<svg width="390" height="844" viewBox="0 0 390 844" fill="none" xmlns="http://www.w3.org/2000/svg">
<g clip-path="url(#clip0_472_6512)">
<rect width="390" height="844" fill="url(#paint0_linear_472_6512)"/>
<g filter="url(#filter0_d_472_6512)">
<rect width="390" height="84" transform="translate(0 47)" fill="white"/>
<path d="M34.5715 87.5172H20.878L24.1535 84.0784C24.29 83.9401 24.3988 83.7746 24.4737 83.5916C24.5485 83.4087 24.5879 83.2119 24.5896 83.0127C24.5912 82.8136 24.5551 82.6161 24.4832 82.4318C24.4114 82.2475 24.3054 82.0801 24.1712 81.9393C24.0371 81.7984 23.8776 81.6871 23.7021 81.6117C23.5265 81.5363 23.3384 81.4983 23.1487 81.5001C22.959 81.5018 22.7716 81.5432 22.5973 81.6218C22.423 81.7004 22.2654 81.8146 22.1336 81.9578L16.4197 87.9566C16.2866 88.096 16.1811 88.2614 16.1091 88.4436C16.0371 88.6258 16 88.8212 16 89.0184C16 89.2157 16.0371 89.411 16.1091 89.5932C16.1811 89.7754 16.2866 89.9409 16.4197 90.0802L22.1336 96.079C22.4031 96.3522 22.7639 96.5034 23.1384 96.4999C23.513 96.4965 23.8713 96.3388 24.1361 96.0608C24.401 95.7827 24.5512 95.4065 24.5545 95.0133C24.5577 94.6201 24.4137 94.2413 24.1535 93.9584L20.878 90.5166H34.5715C34.9504 90.5166 35.3137 90.3586 35.5816 90.0774C35.8495 89.7961 36 89.4147 36 89.0169C36 88.6192 35.8495 88.2377 35.5816 87.9565C35.3137 87.6752 34.9504 87.5172 34.5715 87.5172Z" fill="#374151"/>
<path d="M49.517 98V80.5455H61.2784V83.5881H53.2074V87.7472H60.6733V90.7898H53.2074V94.9574H61.3125V98H49.517ZM67.5349 90.4318V98H63.9042V84.9091H67.3644V87.2188H67.5178C67.8076 86.4574 68.2934 85.8551 68.9752 85.4119C69.657 84.9631 70.4837 84.7386 71.4553 84.7386C72.3644 84.7386 73.157 84.9375 73.8332 85.3352C74.5093 85.733 75.0349 86.3011 75.4099 87.0398C75.7849 87.7727 75.9724 88.6477 75.9724 89.6648V98H72.3417V90.3125C72.3474 89.5114 72.1428 88.8864 71.728 88.4375C71.3133 87.983 70.7422 87.7557 70.015 87.7557C69.5263 87.7557 69.0945 87.8608 68.7195 88.071C68.3502 88.2812 68.0604 88.5881 67.8502 88.9915C67.6457 89.3892 67.5405 89.8693 67.5349 90.4318ZM84.5086 98.2557C83.1677 98.2557 82.0143 97.9716 81.0484 97.4034C80.0882 96.8295 79.3495 96.0341 78.8325 95.017C78.3211 94 78.0655 92.8295 78.0655 91.5057C78.0655 90.1648 78.324 88.9886 78.841 87.9773C79.3638 86.9602 80.1052 86.1676 81.0655 85.5994C82.0257 85.0256 83.1677 84.7386 84.4916 84.7386C85.6336 84.7386 86.6336 84.946 87.4916 85.3608C88.3495 85.7756 89.0285 86.358 89.5285 87.108C90.0285 87.858 90.3041 88.7386 90.3552 89.75H86.9291C86.8325 89.0966 86.5768 88.571 86.162 88.1733C85.753 87.7699 85.216 87.5682 84.5513 87.5682C83.9888 87.5682 83.4973 87.7216 83.0768 88.0284C82.662 88.3295 82.3382 88.7699 82.1052 89.3494C81.8723 89.929 81.7558 90.6307 81.7558 91.4545C81.7558 92.2898 81.8694 93 82.0967 93.5852C82.3297 94.1705 82.6564 94.6165 83.0768 94.9233C83.4973 95.2301 83.9888 95.3835 84.5513 95.3835C84.966 95.3835 85.3382 95.2983 85.6677 95.1278C86.003 94.9574 86.2785 94.7102 86.4944 94.3864C86.716 94.0568 86.8609 93.6619 86.9291 93.2017H90.3552C90.2984 94.2017 90.0257 95.0824 89.537 95.8438C89.0541 96.5994 88.3865 97.1903 87.5342 97.6165C86.6819 98.0426 85.6734 98.2557 84.5086 98.2557ZM98.3546 98.2557C97.0307 98.2557 95.8858 97.9744 94.9199 97.4119C93.9597 96.8437 93.2182 96.054 92.6955 95.0426C92.1728 94.0256 91.9114 92.8466 91.9114 91.5057C91.9114 90.1534 92.1728 88.9716 92.6955 87.9602C93.2182 86.9432 93.9597 86.1534 94.9199 85.5909C95.8858 85.0227 97.0307 84.7386 98.3546 84.7386C99.6784 84.7386 100.82 85.0227 101.781 85.5909C102.747 86.1534 103.491 86.9432 104.014 87.9602C104.536 88.9716 104.798 90.1534 104.798 91.5057C104.798 92.8466 104.536 94.0256 104.014 95.0426C103.491 96.054 102.747 96.8437 101.781 97.4119C100.82 97.9744 99.6784 98.2557 98.3546 98.2557ZM98.3716 95.4432C98.9739 95.4432 99.4767 95.2727 99.8801 94.9318C100.284 94.5852 100.588 94.1136 100.792 93.517C101.002 92.9205 101.107 92.2415 101.107 91.4801C101.107 90.7188 101.002 90.0398 100.792 89.4432C100.588 88.8466 100.284 88.375 99.8801 88.0284C99.4767 87.6818 98.9739 87.5085 98.3716 87.5085C97.7637 87.5085 97.2523 87.6818 96.8375 88.0284C96.4284 88.375 96.1188 88.8466 95.9086 89.4432C95.704 90.0398 95.6017 90.7188 95.6017 91.4801C95.6017 92.2415 95.704 92.9205 95.9086 93.517C96.1188 94.1136 96.4284 94.5852 96.8375 94.9318C97.2523 95.2727 97.7637 95.4432 98.3716 95.4432ZM115.313 92.4261V84.9091H118.944V98H115.458V95.6222H115.322C115.027 96.3892 114.535 97.0057 113.848 97.4716C113.166 97.9375 112.333 98.1705 111.35 98.1705C110.475 98.1705 109.705 97.9716 109.041 97.5739C108.376 97.1761 107.856 96.6108 107.481 95.8778C107.112 95.1449 106.924 94.267 106.919 93.2443V84.9091H110.549V92.5966C110.555 93.3693 110.762 93.9801 111.171 94.429C111.58 94.8778 112.129 95.1023 112.816 95.1023C113.254 95.1023 113.663 95.0028 114.044 94.804C114.424 94.5994 114.731 94.2983 114.964 93.9006C115.203 93.5028 115.319 93.0114 115.313 92.4261ZM125.239 90.4318V98H121.608V84.9091H125.068V87.2188H125.222C125.512 86.4574 125.997 85.8551 126.679 85.4119C127.361 84.9631 128.188 84.7386 129.159 84.7386C130.068 84.7386 130.861 84.9375 131.537 85.3352C132.213 85.733 132.739 86.3011 133.114 87.0398C133.489 87.7727 133.676 88.6477 133.676 89.6648V98H130.046V90.3125C130.051 89.5114 129.847 88.8864 129.432 88.4375C129.017 87.983 128.446 87.7557 127.719 87.7557C127.23 87.7557 126.799 87.8608 126.424 88.071C126.054 88.2812 125.764 88.5881 125.554 88.9915C125.35 89.3892 125.245 89.8693 125.239 90.4318ZM143.261 84.9091V87.6364H135.377V84.9091H143.261ZM137.167 81.7727H140.798V93.9773C140.798 94.3125 140.849 94.5739 140.951 94.7614C141.054 94.9432 141.196 95.071 141.377 95.1449C141.565 95.2187 141.781 95.2557 142.025 95.2557C142.196 95.2557 142.366 95.2415 142.537 95.2131C142.707 95.179 142.838 95.1534 142.929 95.1364L143.5 97.8381C143.318 97.8949 143.062 97.9602 142.733 98.0341C142.403 98.1136 142.002 98.1619 141.531 98.179C140.656 98.2131 139.889 98.0966 139.23 97.8295C138.576 97.5625 138.068 97.1477 137.704 96.5852C137.341 96.0227 137.162 95.3125 137.167 94.4545V81.7727ZM151.211 98.2557C149.865 98.2557 148.706 97.983 147.734 97.4375C146.768 96.8864 146.024 96.108 145.501 95.1023C144.978 94.0909 144.717 92.8949 144.717 91.5142C144.717 90.1676 144.978 88.9858 145.501 87.9688C146.024 86.9517 146.76 86.1591 147.708 85.5909C148.663 85.0227 149.782 84.7386 151.066 84.7386C151.93 84.7386 152.734 84.8778 153.478 85.1562C154.228 85.429 154.882 85.8409 155.439 86.392C156.001 86.9432 156.439 87.6364 156.751 88.4716C157.064 89.3011 157.22 90.2727 157.22 91.3864V92.3835H146.166V90.1335H153.802C153.802 89.6108 153.689 89.1477 153.461 88.7443C153.234 88.3409 152.919 88.0256 152.515 87.7983C152.118 87.5653 151.655 87.4489 151.126 87.4489C150.575 87.4489 150.086 87.5767 149.66 87.8324C149.24 88.0824 148.91 88.4205 148.672 88.8466C148.433 89.267 148.311 89.7358 148.305 90.2528V92.392C148.305 93.0398 148.424 93.5994 148.663 94.071C148.907 94.5426 149.251 94.9062 149.694 95.1619C150.137 95.4176 150.663 95.5455 151.271 95.5455C151.674 95.5455 152.044 95.4886 152.379 95.375C152.714 95.2614 153.001 95.0909 153.24 94.8636C153.478 94.6364 153.66 94.358 153.785 94.0284L157.143 94.25C156.973 95.0568 156.623 95.7614 156.095 96.3636C155.572 96.9602 154.896 97.4261 154.066 97.7614C153.243 98.0909 152.291 98.2557 151.211 98.2557ZM159.349 98V84.9091H162.869V87.1932H163.005C163.244 86.3807 163.645 85.767 164.207 85.3523C164.77 84.9318 165.417 84.7216 166.15 84.7216C166.332 84.7216 166.528 84.733 166.738 84.7557C166.949 84.7784 167.133 84.8097 167.292 84.8494V88.071C167.122 88.0199 166.886 87.9744 166.585 87.9347C166.284 87.8949 166.008 87.875 165.758 87.875C165.224 87.875 164.747 87.9915 164.326 88.2244C163.912 88.4517 163.582 88.7699 163.338 89.179C163.099 89.5881 162.98 90.0597 162.98 90.5938V98H159.349ZM174.312 98V80.5455H181.199C182.517 80.5455 183.642 80.7812 184.574 81.2528C185.511 81.7187 186.224 82.3807 186.713 83.2386C187.207 84.0909 187.454 85.0937 187.454 86.2472C187.454 87.4062 187.204 88.4034 186.704 89.2386C186.204 90.0682 185.48 90.7045 184.531 91.1477C183.588 91.5909 182.446 91.8125 181.105 91.8125H176.494V88.8466H180.508C181.213 88.8466 181.798 88.75 182.264 88.5568C182.73 88.3636 183.077 88.0739 183.304 87.6875C183.537 87.3011 183.653 86.821 183.653 86.2472C183.653 85.6676 183.537 85.179 183.304 84.7812C183.077 84.3835 182.727 84.0824 182.256 83.8778C181.79 83.6676 181.202 83.5625 180.491 83.5625H178.003V98H174.312ZM183.738 90.0568L188.077 98H184.003L179.758 90.0568H183.738ZM195.509 98.2557C194.163 98.2557 193.003 97.983 192.032 97.4375C191.066 96.8864 190.322 96.108 189.799 95.1023C189.276 94.0909 189.015 92.8949 189.015 91.5142C189.015 90.1676 189.276 88.9858 189.799 87.9688C190.322 86.9517 191.057 86.1591 192.006 85.5909C192.961 85.0227 194.08 84.7386 195.364 84.7386C196.228 84.7386 197.032 84.8778 197.776 85.1562C198.526 85.429 199.18 85.8409 199.736 86.392C200.299 86.9432 200.736 87.6364 201.049 88.4716C201.361 89.3011 201.518 90.2727 201.518 91.3864V92.3835H190.464V90.1335H198.1C198.1 89.6108 197.986 89.1477 197.759 88.7443C197.532 88.3409 197.217 88.0256 196.813 87.7983C196.415 87.5653 195.952 87.4489 195.424 87.4489C194.873 87.4489 194.384 87.5767 193.958 87.8324C193.538 88.0824 193.208 88.4205 192.969 88.8466C192.731 89.267 192.609 89.7358 192.603 90.2528V92.392C192.603 93.0398 192.722 93.5994 192.961 94.071C193.205 94.5426 193.549 94.9062 193.992 95.1619C194.435 95.4176 194.961 95.5455 195.569 95.5455C195.972 95.5455 196.342 95.4886 196.677 95.375C197.012 95.2614 197.299 95.0909 197.538 94.8636C197.776 94.6364 197.958 94.358 198.083 94.0284L201.441 94.25C201.271 95.0568 200.921 95.7614 200.393 96.3636C199.87 96.9602 199.194 97.4261 198.364 97.7614C197.54 98.0909 196.589 98.2557 195.509 98.2557ZM209.562 98.2557C208.221 98.2557 207.067 97.9716 206.102 97.4034C205.141 96.8295 204.403 96.0341 203.886 95.017C203.374 94 203.119 92.8295 203.119 91.5057C203.119 90.1648 203.377 88.9886 203.894 87.9773C204.417 86.9602 205.158 86.1676 206.119 85.5994C207.079 85.0256 208.221 84.7386 209.545 84.7386C210.687 84.7386 211.687 84.946 212.545 85.3608C213.403 85.7756 214.082 86.358 214.582 87.108C215.082 87.858 215.357 88.7386 215.408 89.75H211.982C211.886 89.0966 211.63 88.571 211.215 88.1733C210.806 87.7699 210.269 87.5682 209.604 87.5682C209.042 87.5682 208.55 87.7216 208.13 88.0284C207.715 88.3295 207.391 88.7699 207.158 89.3494C206.925 89.929 206.809 90.6307 206.809 91.4545C206.809 92.2898 206.923 93 207.15 93.5852C207.383 94.1705 207.709 94.6165 208.13 94.9233C208.55 95.2301 209.042 95.3835 209.604 95.3835C210.019 95.3835 210.391 95.2983 210.721 95.1278C211.056 94.9574 211.332 94.7102 211.548 94.3864C211.769 94.0568 211.914 93.6619 211.982 93.2017H215.408C215.352 94.2017 215.079 95.0824 214.59 95.8438C214.107 96.5994 213.44 97.1903 212.587 97.6165C211.735 98.0426 210.727 98.2557 209.562 98.2557ZM223.408 98.2557C222.084 98.2557 220.939 97.9744 219.973 97.4119C219.013 96.8437 218.271 96.054 217.749 95.0426C217.226 94.0256 216.965 92.8466 216.965 91.5057C216.965 90.1534 217.226 88.9716 217.749 87.9602C218.271 86.9432 219.013 86.1534 219.973 85.5909C220.939 85.0227 222.084 84.7386 223.408 84.7386C224.732 84.7386 225.874 85.0227 226.834 85.5909C227.8 86.1534 228.544 86.9432 229.067 87.9602C229.59 88.9716 229.851 90.1534 229.851 91.5057C229.851 92.8466 229.59 94.0256 229.067 95.0426C228.544 96.054 227.8 96.8437 226.834 97.4119C225.874 97.9744 224.732 98.2557 223.408 98.2557ZM223.425 95.4432C224.027 95.4432 224.53 95.2727 224.933 94.9318C225.337 94.5852 225.641 94.1136 225.845 93.517C226.055 92.9205 226.161 92.2415 226.161 91.4801C226.161 90.7188 226.055 90.0398 225.845 89.4432C225.641 88.8466 225.337 88.375 224.933 88.0284C224.53 87.6818 224.027 87.5085 223.425 87.5085C222.817 87.5085 222.305 87.6818 221.891 88.0284C221.482 88.375 221.172 88.8466 220.962 89.4432C220.757 90.0398 220.655 90.7188 220.655 91.4801C220.655 92.2415 220.757 92.9205 220.962 93.517C221.172 94.1136 221.482 94.5852 221.891 94.9318C222.305 95.2727 222.817 95.4432 223.425 95.4432ZM231.972 98V84.9091H235.492V87.1932H235.628C235.867 86.3807 236.267 85.767 236.83 85.3523C237.392 84.9318 238.04 84.7216 238.773 84.7216C238.955 84.7216 239.151 84.733 239.361 84.7557C239.571 84.7784 239.756 84.8097 239.915 84.8494V88.071C239.744 88.0199 239.509 87.9744 239.207 87.9347C238.906 87.8949 238.631 87.875 238.381 87.875C237.847 87.875 237.369 87.9915 236.949 88.2244C236.534 88.4517 236.205 88.7699 235.96 89.179C235.722 89.5881 235.602 90.0597 235.602 90.5938V98H231.972ZM245.766 98.2131C244.772 98.2131 243.872 97.9574 243.065 97.446C242.264 96.929 241.627 96.1705 241.156 95.1705C240.69 94.1648 240.457 92.9318 240.457 91.4716C240.457 89.9716 240.698 88.7244 241.181 87.7301C241.664 86.7301 242.306 85.983 243.107 85.4886C243.914 84.9886 244.798 84.7386 245.758 84.7386C246.491 84.7386 247.102 84.8636 247.59 85.1136C248.085 85.358 248.482 85.6648 248.784 86.0341C249.09 86.3977 249.323 86.7557 249.482 87.108H249.593V80.5455H253.215V98H249.636V95.9034H249.482C249.312 96.267 249.07 96.6278 248.758 96.9858C248.451 97.3381 248.051 97.6307 247.556 97.8636C247.068 98.0966 246.471 98.2131 245.766 98.2131ZM246.917 95.3239C247.502 95.3239 247.997 95.1648 248.4 94.8466C248.809 94.5227 249.122 94.071 249.337 93.4915C249.559 92.9119 249.67 92.233 249.67 91.4545C249.67 90.6761 249.562 90 249.346 89.4261C249.13 88.8523 248.818 88.4091 248.409 88.0966C247.999 87.7841 247.502 87.6278 246.917 87.6278C246.32 87.6278 245.818 87.7898 245.409 88.1136C244.999 88.4375 244.69 88.8864 244.48 89.4602C244.269 90.0341 244.164 90.6989 244.164 91.4545C244.164 92.2159 244.269 92.8892 244.48 93.4744C244.695 94.054 245.005 94.5085 245.409 94.8381C245.818 95.1619 246.32 95.3239 246.917 95.3239ZM255.96 98V84.9091H259.591V98H255.96ZM257.784 83.2216C257.245 83.2216 256.781 83.0426 256.395 82.6847C256.014 82.321 255.824 81.8864 255.824 81.3807C255.824 80.8807 256.014 80.4517 256.395 80.0938C256.781 79.7301 257.245 79.5483 257.784 79.5483C258.324 79.5483 258.784 79.7301 259.165 80.0938C259.551 80.4517 259.745 80.8807 259.745 81.3807C259.745 81.8864 259.551 82.321 259.165 82.6847C258.784 83.0426 258.324 83.2216 257.784 83.2216ZM265.89 90.4318V98H262.259V84.9091H265.72V87.2188H265.873C266.163 86.4574 266.649 85.8551 267.331 85.4119C268.012 84.9631 268.839 84.7386 269.811 84.7386C270.72 84.7386 271.512 84.9375 272.188 85.3352C272.865 85.733 273.39 86.3011 273.765 87.0398C274.14 87.7727 274.328 88.6477 274.328 89.6648V98H270.697V90.3125C270.703 89.5114 270.498 88.8864 270.083 88.4375C269.669 87.983 269.098 87.7557 268.37 87.7557C267.882 87.7557 267.45 87.8608 267.075 88.071C266.706 88.2812 266.416 88.5881 266.206 88.9915C266.001 89.3892 265.896 89.8693 265.89 90.4318ZM282.847 103.182C281.671 103.182 280.662 103.02 279.821 102.696C278.986 102.378 278.321 101.943 277.827 101.392C277.333 100.841 277.012 100.222 276.864 99.5341L280.222 99.0824C280.324 99.3438 280.486 99.5881 280.708 99.8153C280.929 100.043 281.222 100.224 281.586 100.361C281.955 100.503 282.404 100.574 282.932 100.574C283.722 100.574 284.372 100.381 284.884 99.9943C285.401 99.6136 285.659 98.9744 285.659 98.0767V95.6818H285.506C285.347 96.0455 285.108 96.3892 284.79 96.7131C284.472 97.0369 284.063 97.3011 283.563 97.5057C283.063 97.7102 282.466 97.8125 281.773 97.8125C280.79 97.8125 279.895 97.5852 279.088 97.1307C278.287 96.6705 277.648 95.9687 277.171 95.0256C276.699 94.0767 276.463 92.8778 276.463 91.429C276.463 89.946 276.705 88.7074 277.188 87.7131C277.671 86.7187 278.313 85.9744 279.114 85.4801C279.921 84.9858 280.804 84.7386 281.765 84.7386C282.497 84.7386 283.111 84.8636 283.605 85.1136C284.1 85.358 284.497 85.6648 284.799 86.0341C285.105 86.3977 285.341 86.7557 285.506 87.108H285.642V84.9091H289.247V98.1278C289.247 99.2415 288.975 100.173 288.429 100.923C287.884 101.673 287.128 102.236 286.162 102.611C285.202 102.991 284.097 103.182 282.847 103.182ZM282.924 95.0852C283.509 95.0852 284.003 94.9403 284.407 94.6506C284.816 94.3551 285.128 93.9347 285.344 93.3892C285.566 92.8381 285.676 92.179 285.676 91.4119C285.676 90.6449 285.568 89.9801 285.353 89.4176C285.137 88.8494 284.824 88.4091 284.415 88.0966C284.006 87.7841 283.509 87.6278 282.924 87.6278C282.327 87.6278 281.824 87.7898 281.415 88.1136C281.006 88.4318 280.696 88.875 280.486 89.4432C280.276 90.0114 280.171 90.6676 280.171 91.4119C280.171 92.1676 280.276 92.821 280.486 93.3722C280.702 93.9176 281.012 94.3409 281.415 94.642C281.824 94.9375 282.327 95.0852 282.924 95.0852Z" fill="#1F2A37"/>
</g>
<path d="M17.2784 173V161.364H24.5739V162.875H19.0341V166.42H24.1932V167.926H19.0341V171.489H24.642V173H17.2784ZM28.4815 161.364V173H26.7827V161.364H28.4815ZM30.767 173V164.273H32.4659V173H30.767ZM31.625 162.926C31.3295 162.926 31.0758 162.828 30.8636 162.631C30.6553 162.43 30.5511 162.191 30.5511 161.915C30.5511 161.634 30.6553 161.396 30.8636 161.199C31.0758 160.998 31.3295 160.898 31.625 160.898C31.9205 160.898 32.1723 160.998 32.3807 161.199C32.5928 161.396 32.6989 161.634 32.6989 161.915C32.6989 162.191 32.5928 162.43 32.3807 162.631C32.1723 162.828 31.9205 162.926 31.625 162.926ZM41.2912 166.403L39.7514 166.676C39.687 166.479 39.5848 166.292 39.4446 166.114C39.3082 165.936 39.1226 165.79 38.8878 165.676C38.6529 165.562 38.3594 165.506 38.0071 165.506C37.526 165.506 37.1245 165.614 36.8026 165.83C36.4806 166.042 36.3196 166.316 36.3196 166.653C36.3196 166.945 36.4276 167.18 36.6435 167.358C36.8594 167.536 37.2079 167.682 37.6889 167.795L39.0753 168.114C39.8783 168.299 40.4768 168.585 40.8707 168.972C41.2647 169.358 41.4616 169.86 41.4616 170.477C41.4616 171 41.3101 171.466 41.0071 171.875C40.7079 172.28 40.2893 172.598 39.7514 172.83C39.2173 173.061 38.598 173.176 37.8935 173.176C36.9162 173.176 36.1188 172.968 35.5014 172.551C34.884 172.131 34.5052 171.534 34.3651 170.761L36.0071 170.511C36.1094 170.939 36.3196 171.263 36.6378 171.483C36.956 171.699 37.3707 171.807 37.8821 171.807C38.4389 171.807 38.884 171.691 39.2173 171.46C39.5507 171.225 39.7173 170.939 39.7173 170.602C39.7173 170.33 39.6151 170.1 39.4105 169.915C39.2098 169.729 38.901 169.589 38.4844 169.494L37.0071 169.17C36.1927 168.985 35.5904 168.689 35.2003 168.284C34.8139 167.879 34.6207 167.366 34.6207 166.744C34.6207 166.229 34.7647 165.778 35.0526 165.392C35.3404 165.006 35.7382 164.705 36.2457 164.489C36.7533 164.269 37.3348 164.159 37.9901 164.159C38.9332 164.159 39.6757 164.364 40.2173 164.773C40.759 165.178 41.117 165.722 41.2912 166.403ZM49.8693 166.403L48.3295 166.676C48.2652 166.479 48.1629 166.292 48.0227 166.114C47.8864 165.936 47.7008 165.79 47.4659 165.676C47.2311 165.562 46.9375 165.506 46.5852 165.506C46.1042 165.506 45.7027 165.614 45.3807 165.83C45.0587 166.042 44.8977 166.316 44.8977 166.653C44.8977 166.945 45.0057 167.18 45.2216 167.358C45.4375 167.536 45.786 167.682 46.267 167.795L47.6534 168.114C48.4564 168.299 49.0549 168.585 49.4489 168.972C49.8428 169.358 50.0398 169.86 50.0398 170.477C50.0398 171 49.8883 171.466 49.5852 171.875C49.286 172.28 48.8674 172.598 48.3295 172.83C47.7955 173.061 47.1761 173.176 46.4716 173.176C45.4943 173.176 44.697 172.968 44.0795 172.551C43.4621 172.131 43.0833 171.534 42.9432 170.761L44.5852 170.511C44.6875 170.939 44.8977 171.263 45.2159 171.483C45.5341 171.699 45.9489 171.807 46.4602 171.807C47.017 171.807 47.4621 171.691 47.7955 171.46C48.1288 171.225 48.2955 170.939 48.2955 170.602C48.2955 170.33 48.1932 170.1 47.9886 169.915C47.7879 169.729 47.4792 169.589 47.0625 169.494L45.5852 169.17C44.7708 168.985 44.1686 168.689 43.7784 168.284C43.392 167.879 43.1989 167.366 43.1989 166.744C43.1989 166.229 43.3428 165.778 43.6307 165.392C43.9186 165.006 44.3163 164.705 44.8239 164.489C45.3314 164.269 45.9129 164.159 46.5682 164.159C47.5114 164.159 48.2538 164.364 48.7955 164.773C49.3371 165.178 49.6951 165.722 49.8693 166.403ZM54.4474 173.193C53.8944 173.193 53.3944 173.091 52.9474 172.886C52.5005 172.678 52.1463 172.377 51.8849 171.983C51.6274 171.589 51.4986 171.106 51.4986 170.534C51.4986 170.042 51.5933 169.636 51.7827 169.318C51.9721 169 52.2277 168.748 52.5497 168.562C52.8717 168.377 53.2315 168.237 53.6293 168.142C54.027 168.047 54.4323 167.975 54.8452 167.926C55.3679 167.866 55.7921 167.816 56.1179 167.778C56.4437 167.737 56.6804 167.67 56.8281 167.58C56.9759 167.489 57.0497 167.341 57.0497 167.136V167.097C57.0497 166.6 56.9096 166.216 56.6293 165.943C56.3527 165.67 55.9399 165.534 55.3906 165.534C54.8187 165.534 54.3679 165.661 54.0384 165.915C53.7126 166.165 53.4872 166.443 53.3622 166.75L51.7656 166.386C51.955 165.856 52.2315 165.428 52.5952 165.102C52.9626 164.773 53.3849 164.534 53.8622 164.386C54.3395 164.235 54.8414 164.159 55.3679 164.159C55.7164 164.159 56.0857 164.201 56.4759 164.284C56.8698 164.364 57.2372 164.511 57.5781 164.727C57.9228 164.943 58.205 165.252 58.4247 165.653C58.6444 166.051 58.7543 166.568 58.7543 167.205V173H57.0952V171.807H57.027C56.9171 172.027 56.7524 172.242 56.5327 172.455C56.313 172.667 56.0308 172.843 55.6861 172.983C55.3414 173.123 54.9285 173.193 54.4474 173.193ZM54.8168 171.83C55.2865 171.83 55.688 171.737 56.0213 171.551C56.3584 171.366 56.6141 171.123 56.7884 170.824C56.9664 170.521 57.0554 170.197 57.0554 169.852V168.727C56.9948 168.788 56.8774 168.845 56.7031 168.898C56.5327 168.947 56.3376 168.991 56.1179 169.028C55.8982 169.062 55.6842 169.095 55.4759 169.125C55.2675 169.152 55.0933 169.174 54.9531 169.193C54.6236 169.235 54.3224 169.305 54.0497 169.403C53.7808 169.502 53.5649 169.644 53.402 169.83C53.2429 170.011 53.1634 170.254 53.1634 170.557C53.1634 170.977 53.3187 171.295 53.6293 171.511C53.9399 171.723 54.3357 171.83 54.8168 171.83ZM65.3878 173V161.364H72.6037V162.875H67.1435V166.42H72.0866V167.926H67.1435V173H65.3878ZM77.7472 173.176C76.8873 173.176 76.1468 172.992 75.5256 172.625C74.9081 172.254 74.4309 171.733 74.0938 171.062C73.7604 170.388 73.5938 169.598 73.5938 168.693C73.5938 167.799 73.7604 167.011 74.0938 166.33C74.4309 165.648 74.9006 165.116 75.5028 164.733C76.1089 164.35 76.8172 164.159 77.6278 164.159C78.1203 164.159 78.5975 164.241 79.0597 164.403C79.5218 164.566 79.9366 164.822 80.304 165.17C80.6714 165.519 80.9612 165.972 81.1733 166.528C81.3854 167.081 81.4915 167.754 81.4915 168.545V169.148H74.554V167.875H79.8267C79.8267 167.428 79.7358 167.032 79.554 166.688C79.3722 166.339 79.1165 166.064 78.7869 165.864C78.4612 165.663 78.0786 165.562 77.6392 165.562C77.1619 165.562 76.7453 165.68 76.3892 165.915C76.0369 166.146 75.7642 166.449 75.571 166.824C75.3816 167.195 75.2869 167.598 75.2869 168.034V169.028C75.2869 169.612 75.3892 170.108 75.5938 170.517C75.8021 170.926 76.0919 171.239 76.4631 171.455C76.8343 171.667 77.268 171.773 77.7642 171.773C78.0862 171.773 78.3797 171.727 78.6449 171.636C78.91 171.542 79.1392 171.402 79.3324 171.216C79.5256 171.03 79.6733 170.801 79.7756 170.528L81.3835 170.818C81.2547 171.292 81.0237 171.706 80.6903 172.062C80.3608 172.415 79.946 172.689 79.446 172.886C78.9498 173.08 78.3835 173.176 77.7472 173.176ZM83.3764 173V164.273H85.0185V165.659H85.1094C85.2685 165.189 85.5488 164.82 85.9503 164.551C86.3556 164.278 86.8139 164.142 87.3253 164.142C87.4313 164.142 87.5563 164.146 87.7003 164.153C87.848 164.161 87.9635 164.17 88.0469 164.182V165.807C87.9787 165.788 87.8575 165.767 87.6832 165.744C87.509 165.718 87.3348 165.705 87.1605 165.705C86.759 165.705 86.401 165.79 86.0866 165.96C85.776 166.127 85.5298 166.36 85.348 166.659C85.1662 166.955 85.0753 167.292 85.0753 167.67V173H83.3764ZM91.2159 167.818V173H89.517V164.273H91.1477V165.693H91.2557C91.4564 165.231 91.7708 164.86 92.1989 164.58C92.6307 164.299 93.1742 164.159 93.8295 164.159C94.4242 164.159 94.9451 164.284 95.392 164.534C95.839 164.78 96.1856 165.148 96.4318 165.636C96.678 166.125 96.8011 166.729 96.8011 167.449V173H95.1023V167.653C95.1023 167.021 94.9375 166.527 94.608 166.17C94.2784 165.811 93.8258 165.631 93.25 165.631C92.8561 165.631 92.5057 165.716 92.1989 165.886C91.8958 166.057 91.6553 166.307 91.4773 166.636C91.303 166.962 91.2159 167.356 91.2159 167.818ZM101.619 173.193C101.066 173.193 100.566 173.091 100.119 172.886C99.6723 172.678 99.3182 172.377 99.0568 171.983C98.7992 171.589 98.6705 171.106 98.6705 170.534C98.6705 170.042 98.7652 169.636 98.9545 169.318C99.1439 169 99.3996 168.748 99.7216 168.562C100.044 168.377 100.403 168.237 100.801 168.142C101.199 168.047 101.604 167.975 102.017 167.926C102.54 167.866 102.964 167.816 103.29 167.778C103.616 167.737 103.852 167.67 104 167.58C104.148 167.489 104.222 167.341 104.222 167.136V167.097C104.222 166.6 104.081 166.216 103.801 165.943C103.525 165.67 103.112 165.534 102.562 165.534C101.991 165.534 101.54 165.661 101.21 165.915C100.884 166.165 100.659 166.443 100.534 166.75L98.9375 166.386C99.1269 165.856 99.4034 165.428 99.767 165.102C100.134 164.773 100.557 164.534 101.034 164.386C101.511 164.235 102.013 164.159 102.54 164.159C102.888 164.159 103.258 164.201 103.648 164.284C104.042 164.364 104.409 164.511 104.75 164.727C105.095 164.943 105.377 165.252 105.597 165.653C105.816 166.051 105.926 166.568 105.926 167.205V173H104.267V171.807H104.199C104.089 172.027 103.924 172.242 103.705 172.455C103.485 172.667 103.203 172.843 102.858 172.983C102.513 173.123 102.1 173.193 101.619 173.193ZM101.989 171.83C102.458 171.83 102.86 171.737 103.193 171.551C103.53 171.366 103.786 171.123 103.96 170.824C104.138 170.521 104.227 170.197 104.227 169.852V168.727C104.167 168.788 104.049 168.845 103.875 168.898C103.705 168.947 103.509 168.991 103.29 169.028C103.07 169.062 102.856 169.095 102.648 169.125C102.439 169.152 102.265 169.174 102.125 169.193C101.795 169.235 101.494 169.305 101.222 169.403C100.953 169.502 100.737 169.644 100.574 169.83C100.415 170.011 100.335 170.254 100.335 170.557C100.335 170.977 100.491 171.295 100.801 171.511C101.112 171.723 101.508 171.83 101.989 171.83ZM109.888 167.818V173H108.189V164.273H109.82V165.693H109.928C110.128 165.231 110.443 164.86 110.871 164.58C111.303 164.299 111.846 164.159 112.501 164.159C113.096 164.159 113.617 164.284 114.064 164.534C114.511 164.78 114.857 165.148 115.104 165.636C115.35 166.125 115.473 166.729 115.473 167.449V173H113.774V167.653C113.774 167.021 113.609 166.527 113.28 166.17C112.95 165.811 112.498 165.631 111.922 165.631C111.528 165.631 111.178 165.716 110.871 165.886C110.568 166.057 110.327 166.307 110.149 166.636C109.975 166.962 109.888 167.356 109.888 167.818ZM121.018 173.17C120.314 173.17 119.685 172.991 119.132 172.631C118.583 172.267 118.151 171.75 117.837 171.08C117.526 170.405 117.371 169.597 117.371 168.653C117.371 167.71 117.528 166.903 117.842 166.233C118.161 165.562 118.596 165.049 119.149 164.693C119.702 164.337 120.329 164.159 121.03 164.159C121.571 164.159 122.007 164.25 122.337 164.432C122.67 164.61 122.928 164.818 123.109 165.057C123.295 165.295 123.439 165.506 123.541 165.688H123.643V161.364H125.342V173H123.683V171.642H123.541C123.439 171.828 123.291 172.04 123.098 172.278C122.909 172.517 122.647 172.725 122.314 172.903C121.981 173.081 121.549 173.17 121.018 173.17ZM121.393 171.722C121.882 171.722 122.295 171.593 122.632 171.335C122.973 171.074 123.231 170.712 123.405 170.25C123.583 169.788 123.672 169.25 123.672 168.636C123.672 168.03 123.585 167.5 123.411 167.045C123.236 166.591 122.981 166.237 122.643 165.983C122.306 165.729 121.89 165.602 121.393 165.602C120.882 165.602 120.456 165.735 120.115 166C119.774 166.265 119.517 166.627 119.342 167.085C119.172 167.544 119.087 168.061 119.087 168.636C119.087 169.22 119.174 169.744 119.348 170.21C119.522 170.676 119.78 171.045 120.121 171.318C120.465 171.587 120.89 171.722 121.393 171.722ZM131.528 173.176C130.669 173.176 129.928 172.992 129.307 172.625C128.689 172.254 128.212 171.733 127.875 171.062C127.542 170.388 127.375 169.598 127.375 168.693C127.375 167.799 127.542 167.011 127.875 166.33C128.212 165.648 128.682 165.116 129.284 164.733C129.89 164.35 130.598 164.159 131.409 164.159C131.902 164.159 132.379 164.241 132.841 164.403C133.303 164.566 133.718 164.822 134.085 165.17C134.453 165.519 134.742 165.972 134.955 166.528C135.167 167.081 135.273 167.754 135.273 168.545V169.148H128.335V167.875H133.608C133.608 167.428 133.517 167.032 133.335 166.688C133.153 166.339 132.898 166.064 132.568 165.864C132.242 165.663 131.86 165.562 131.42 165.562C130.943 165.562 130.527 165.68 130.17 165.915C129.818 166.146 129.545 166.449 129.352 166.824C129.163 167.195 129.068 167.598 129.068 168.034V169.028C129.068 169.612 129.17 170.108 129.375 170.517C129.583 170.926 129.873 171.239 130.244 171.455C130.616 171.667 131.049 171.773 131.545 171.773C131.867 171.773 132.161 171.727 132.426 171.636C132.691 171.542 132.92 171.402 133.114 171.216C133.307 171.03 133.455 170.801 133.557 170.528L135.165 170.818C135.036 171.292 134.805 171.706 134.472 172.062C134.142 172.415 133.727 172.689 133.227 172.886C132.731 173.08 132.165 173.176 131.528 173.176ZM136.976 173V171.835L141.703 165.83V165.75H137.129V164.273H143.822V165.511L139.277 171.443V171.523H143.982V173H136.976Z" fill="#1F2A37"/>
<path d="M16 193C16 189.686 18.6863 187 22 187H101C104.314 187 107 189.686 107 193V203C107 206.314 104.314 209 101 209H22C18.6863 209 16 206.314 16 203V193Z" fill="#F1F9FF"/>
<g clip-path="url(#clip1_472_6512)">
<path d="M33.9167 196.333C34.15 196.333 34.3334 196.513 34.3334 196.75C34.3334 196.861 34.2895 196.967 34.2113 197.045C34.1332 197.123 34.0272 197.167 33.9167 197.167C33.6792 197.167 33.5 196.979 33.5 196.75C33.5 196.513 33.6792 196.333 33.9167 196.333ZM26.8334 193.833V197.583C26.8334 198.817 27.7459 199.875 28.975 200.046C29.2334 201.3 30.3417 202.167 31.625 202.167C31.9807 202.167 32.3329 202.097 32.6615 201.961C32.9901 201.824 33.2886 201.625 33.5401 201.373C33.7916 201.122 33.9911 200.823 34.1272 200.495C34.2633 200.166 34.3334 199.814 34.3334 199.458V197.921C34.8167 197.746 35.1667 197.288 35.1667 196.75C35.1667 196.419 35.035 196.101 34.8006 195.866C34.5662 195.632 34.2482 195.5 33.9167 195.5C33.5852 195.5 33.2672 195.632 33.0328 195.866C32.7984 196.101 32.6667 196.419 32.6667 196.75C32.6667 197.288 33.0167 197.75 33.5 197.921V199.421C33.5 200.463 32.6667 201.296 31.625 201.296C30.7917 201.296 30.0917 200.792 29.8417 200.042C31 199.792 31.8334 198.75 31.8334 197.583V193.833H30.1667V195.083H31V197.583C31 198.025 30.8244 198.449 30.5119 198.762C30.1993 199.074 29.7754 199.25 29.3334 199.25C28.8913 199.25 28.4674 199.074 28.1549 198.762C27.8423 198.449 27.6667 198.025 27.6667 197.583V195.083H28.5V193.833H26.8334Z" fill="#095D7E"/>
</g>
<path d="M41.3983 202V193.273H46.8102V194.406H42.715V197.065H46.4224V198.195H42.715V202H41.3983ZM50.6039 202.132C49.9902 202.132 49.4547 201.991 48.9973 201.71C48.54 201.429 48.1848 201.036 47.932 200.53C47.6792 200.024 47.5527 199.433 47.5527 198.757C47.5527 198.078 47.6792 197.484 47.932 196.976C48.1848 196.467 48.54 196.072 48.9973 195.791C49.4547 195.51 49.9902 195.369 50.6039 195.369C51.2175 195.369 51.753 195.51 52.2104 195.791C52.6678 196.072 53.0229 196.467 53.2757 196.976C53.5286 197.484 53.655 198.078 53.655 198.757C53.655 199.433 53.5286 200.024 53.2757 200.53C53.0229 201.036 52.6678 201.429 52.2104 201.71C51.753 201.991 51.2175 202.132 50.6039 202.132ZM50.6081 201.062C51.0059 201.062 51.3354 200.957 51.5968 200.747C51.8581 200.537 52.0513 200.257 52.1763 199.908C52.3042 199.558 52.3681 199.173 52.3681 198.753C52.3681 198.335 52.3042 197.952 52.1763 197.602C52.0513 197.25 51.8581 196.967 51.5968 196.754C51.3354 196.541 51.0059 196.435 50.6081 196.435C50.2076 196.435 49.8752 196.541 49.611 196.754C49.3496 196.967 49.155 197.25 49.0272 197.602C48.9022 197.952 48.8397 198.335 48.8397 198.753C48.8397 199.173 48.9022 199.558 49.0272 199.908C49.155 200.257 49.3496 200.537 49.611 200.747C49.8752 200.957 50.2076 201.062 50.6081 201.062ZM56.3514 193.273V202H55.0772V193.273H56.3514ZM59.3397 193.273V202H58.0655V193.273H59.3397ZM63.8109 202.132C63.1973 202.132 62.6618 201.991 62.2044 201.71C61.747 201.429 61.3919 201.036 61.139 200.53C60.8862 200.024 60.7598 199.433 60.7598 198.757C60.7598 198.078 60.8862 197.484 61.139 196.976C61.3919 196.467 61.747 196.072 62.2044 195.791C62.6618 195.51 63.1973 195.369 63.8109 195.369C64.4245 195.369 64.96 195.51 65.4174 195.791C65.8748 196.072 66.2299 196.467 66.4828 196.976C66.7356 197.484 66.862 198.078 66.862 198.757C66.862 199.433 66.7356 200.024 66.4828 200.53C66.2299 201.036 65.8748 201.429 65.4174 201.71C64.96 201.991 64.4245 202.132 63.8109 202.132ZM63.8152 201.062C64.2129 201.062 64.5424 200.957 64.8038 200.747C65.0652 200.537 65.2583 200.257 65.3833 199.908C65.5112 199.558 65.5751 199.173 65.5751 198.753C65.5751 198.335 65.5112 197.952 65.3833 197.602C65.2583 197.25 65.0652 196.967 64.8038 196.754C64.5424 196.541 64.2129 196.435 63.8152 196.435C63.4146 196.435 63.0822 196.541 62.818 196.754C62.5566 196.967 62.362 197.25 62.2342 197.602C62.1092 197.952 62.0467 198.335 62.0467 198.753C62.0467 199.173 62.1092 199.558 62.2342 199.908C62.362 200.257 62.5566 200.537 62.818 200.747C63.0822 200.957 63.4146 201.062 63.8152 201.062ZM69.5041 202L67.5779 195.455H68.8947L70.1774 200.261H70.2413L71.5282 195.455H72.845L74.1234 200.24H74.1873L75.4615 195.455H76.7782L74.8564 202H73.5566L72.2271 197.274H72.1291L70.7995 202H69.5041ZM86.8777 193.273H88.1987V199.013C88.1987 199.624 88.0552 200.165 87.7683 200.636C87.4814 201.105 87.0779 201.474 86.5581 201.744C86.0382 202.011 85.4288 202.145 84.7299 202.145C84.0339 202.145 83.426 202.011 82.9061 201.744C82.3862 201.474 81.9828 201.105 81.6958 200.636C81.4089 200.165 81.2654 199.624 81.2654 199.013V193.273H82.5822V198.906C82.5822 199.301 82.6689 199.652 82.8422 199.959C83.0183 200.266 83.2669 200.507 83.5879 200.683C83.9089 200.857 84.2896 200.943 84.7299 200.943C85.1731 200.943 85.5552 200.857 85.8762 200.683C86.2001 200.507 86.4473 200.266 86.6177 199.959C86.791 199.652 86.8777 199.301 86.8777 198.906V193.273ZM90.0108 204.455V195.455H91.2551V196.516H91.3617C91.4355 196.379 91.5421 196.222 91.6813 196.043C91.8205 195.864 92.0137 195.707 92.2608 195.574C92.508 195.438 92.8347 195.369 93.2409 195.369C93.7694 195.369 94.2409 195.503 94.6557 195.77C95.0705 196.037 95.3958 196.422 95.6316 196.925C95.8702 197.428 95.9895 198.033 95.9895 198.74C95.9895 199.447 95.8716 200.054 95.6358 200.56C95.4 201.062 95.0762 201.45 94.6642 201.723C94.2523 201.993 93.7821 202.128 93.2537 202.128C92.856 202.128 92.5307 202.061 92.2779 201.928C92.0279 201.794 91.8319 201.638 91.6898 201.459C91.5478 201.28 91.4384 201.121 91.3617 200.982H91.285V204.455H90.0108ZM91.2594 198.727C91.2594 199.187 91.3262 199.591 91.4597 199.938C91.5932 200.284 91.7864 200.555 92.0392 200.751C92.2921 200.945 92.6017 201.041 92.9682 201.041C93.3489 201.041 93.6671 200.94 93.9228 200.739C94.1784 200.534 94.3716 200.257 94.5023 199.908C94.6358 199.558 94.7026 199.165 94.7026 198.727C94.7026 198.295 94.6373 197.908 94.5066 197.564C94.3787 197.22 94.1855 196.949 93.927 196.75C93.6713 196.551 93.3517 196.452 92.9682 196.452C92.5989 196.452 92.2864 196.547 92.0307 196.737C91.7779 196.928 91.5861 197.193 91.4554 197.534C91.3248 197.875 91.2594 198.273 91.2594 198.727Z" fill="#095D7E"/>
<path d="M52.0166 19.7231C52.6585 19.7231 53.2673 19.8421 53.8428 20.0801C54.4183 20.3125 54.9274 20.6777 55.3701 21.1758C55.8184 21.6683 56.1698 22.3019 56.4243 23.0767C56.6789 23.8459 56.8062 24.7728 56.8062 25.8574V25.874C56.8062 27.2188 56.6125 28.3698 56.2251 29.3271C55.8377 30.2845 55.2816 31.0205 54.5566 31.5352C53.8372 32.0443 52.9767 32.2988 51.9751 32.2988C51.2391 32.2988 50.575 32.166 49.9829 31.9004C49.3963 31.6292 48.9093 31.2585 48.522 30.7881C48.1401 30.3122 47.8828 29.7699 47.75 29.1611L47.7334 29.0698H49.8335L49.8667 29.1528C49.9718 29.4295 50.1213 29.673 50.3149 29.8833C50.5142 30.0936 50.7521 30.2568 51.0288 30.373C51.311 30.4837 51.6265 30.5391 51.9751 30.5391C52.606 30.5391 53.1206 30.3537 53.519 29.9829C53.923 29.6066 54.2246 29.1058 54.4238 28.4805C54.6286 27.8496 54.7448 27.1523 54.7725 26.3887C54.778 26.3057 54.7808 26.2254 54.7808 26.1479C54.7808 26.0649 54.7808 25.9847 54.7808 25.9072L54.4072 23.9067C54.4072 23.453 54.3021 23.0407 54.0918 22.6699C53.8815 22.2992 53.5965 22.0059 53.2368 21.79C52.8826 21.5742 52.4814 21.4663 52.0332 21.4663C51.6016 21.4663 51.2059 21.5715 50.8462 21.7817C50.4865 21.992 50.1987 22.2798 49.9829 22.645C49.7671 23.0047 49.6592 23.4087 49.6592 23.8569V23.8735C49.6592 24.3384 49.7616 24.7507 49.9663 25.1104C50.1711 25.4645 50.4505 25.744 50.8047 25.9487C51.1589 26.1535 51.5628 26.2559 52.0166 26.2559C52.4704 26.2559 52.8771 26.1562 53.2368 25.957C53.5965 25.7578 53.8815 25.4811 54.0918 25.127C54.3021 24.7728 54.4072 24.3716 54.4072 23.9233V23.9067H54.9053V26.1147H54.6147C54.4709 26.4302 54.2578 26.7235 53.9756 26.9946C53.6934 27.2658 53.3447 27.4844 52.9297 27.6504C52.5202 27.8164 52.0387 27.8994 51.4854 27.8994C50.7217 27.8994 50.0465 27.7279 49.46 27.3848C48.8734 27.0417 48.4113 26.5713 48.0737 25.9736C47.7417 25.376 47.5757 24.7008 47.5757 23.9482V23.9316C47.5757 23.1182 47.7638 22.396 48.1401 21.7651C48.522 21.1287 49.0477 20.6307 49.7173 20.271C50.3924 19.9058 51.1589 19.7231 52.0166 19.7231ZM60.0747 30.3896C59.6984 30.3896 59.383 30.2651 59.1284 30.0161C58.8794 29.7616 58.7549 29.4517 58.7549 29.0864C58.7549 28.7157 58.8794 28.4058 59.1284 28.1567C59.383 27.9022 59.6984 27.7749 60.0747 27.7749C60.4565 27.7749 60.772 27.9022 61.021 28.1567C61.27 28.4058 61.3945 28.7157 61.3945 29.0864C61.3945 29.4517 61.27 29.7616 61.021 30.0161C60.772 30.2651 60.4565 30.3896 60.0747 30.3896ZM60.0747 24.2305C59.6984 24.2305 59.383 24.106 59.1284 23.8569C58.8794 23.6024 58.7549 23.2925 58.7549 22.9272C58.7549 22.5565 58.8794 22.2466 59.1284 21.9976C59.383 21.743 59.6984 21.6157 60.0747 21.6157C60.4565 21.6157 60.772 21.743 61.021 21.9976C61.27 22.2466 61.3945 22.5565 61.3945 22.9272C61.3945 23.2925 61.27 23.6024 61.021 23.8569C60.772 24.106 60.4565 24.2305 60.0747 24.2305ZM69.1538 32V29.7007H63.2935V27.9492C63.6089 27.4124 63.9243 26.8729 64.2397 26.3306C64.5607 25.7882 64.8844 25.2487 65.2109 24.7119C65.543 24.1696 65.8722 23.6356 66.1987 23.1099C66.5308 22.5786 66.86 22.0557 67.1865 21.541C67.5186 21.0208 67.8506 20.5145 68.1826 20.022H71.1958V27.9326H72.8145V29.7007H71.1958V32H69.1538ZM65.2856 27.9824H69.187V21.7319H69.0625C68.819 22.1082 68.5672 22.4956 68.3071 22.894C68.0526 23.2925 67.7952 23.6992 67.5352 24.1143C67.2751 24.5293 67.0177 24.9471 66.7632 25.3677C66.5086 25.7827 66.2568 26.2005 66.0078 26.6211C65.7588 27.0361 65.5181 27.4484 65.2856 27.8579V27.9824ZM77.27 32V22.1304H77.1206L74.1406 24.2305V22.2217L77.27 20.022H79.4033V32H77.27Z" fill="black"/>
<path fill-rule="evenodd" clip-rule="evenodd" d="M303.804 19.4999H302.637C301.993 19.4999 301.471 20.0036 301.471 20.6249V30.3749C301.471 30.9963 301.993 31.4999 302.637 31.4999H303.804C304.448 31.4999 304.971 30.9963 304.971 30.3749V20.6249C304.971 20.0036 304.448 19.4999 303.804 19.4999ZM297.147 22.1251H298.314C298.958 22.1251 299.48 22.6288 299.48 23.2501V30.3751C299.48 30.9964 298.958 31.5001 298.314 31.5001H297.147C296.503 31.5001 295.98 30.9964 295.98 30.3751V23.2501C295.98 22.6288 296.503 22.1251 297.147 22.1251ZM292.824 24.7499H291.657C291.013 24.7499 290.49 25.2535 290.49 25.8749V30.3749C290.49 30.9962 291.013 31.4999 291.657 31.4999H292.824C293.468 31.4999 293.99 30.9962 293.99 30.3749V25.8749C293.99 25.2535 293.468 24.7499 292.824 24.7499ZM287.333 26.9998H286.167C285.522 26.9998 285 27.5035 285 28.1248V30.3748C285 30.9961 285.522 31.4998 286.167 31.4998H287.333C287.978 31.4998 288.5 30.9961 288.5 30.3748V28.1248C288.5 27.5035 287.978 26.9998 287.333 26.9998Z" fill="black"/>
<path fill-rule="evenodd" clip-rule="evenodd" d="M320.471 21.846C322.938 21.8461 325.31 22.8167 327.097 24.5571C327.232 24.6915 327.447 24.6898 327.58 24.5533L328.867 23.2234C328.934 23.1542 328.971 23.0604 328.971 22.9629C328.97 22.8653 328.932 22.772 328.864 22.7036C324.172 18.0988 316.77 18.0988 312.078 22.7036C312.01 22.772 311.971 22.8652 311.971 22.9628C311.97 23.0603 312.007 23.1541 312.074 23.2234L313.362 24.5533C313.494 24.69 313.709 24.6917 313.844 24.5571C315.632 22.8166 318.004 21.846 320.471 21.846ZM320.471 26.1727C321.826 26.1726 323.133 26.6884 324.138 27.62C324.274 27.7522 324.488 27.7493 324.62 27.6135L325.905 26.2836C325.973 26.2139 326.011 26.1192 326.01 26.0209C326.009 25.9226 325.969 25.8287 325.9 25.7604C322.841 22.8463 318.104 22.8463 315.045 25.7604C314.975 25.8287 314.936 25.9226 314.935 26.021C314.934 26.1193 314.972 26.214 315.04 26.2836L316.325 27.6135C316.457 27.7493 316.671 27.7522 316.807 27.62C317.811 26.689 319.117 26.1732 320.471 26.1727ZM323.046 29.084C323.048 29.1826 323.01 29.2777 322.941 29.3468L320.718 31.6445C320.653 31.712 320.564 31.75 320.471 31.75C320.378 31.75 320.289 31.712 320.224 31.6445L318.001 29.3468C317.932 29.2776 317.894 29.1825 317.896 29.0839C317.898 28.9853 317.94 28.8919 318.011 28.8258C319.431 27.596 321.511 27.596 322.931 28.8258C323.002 28.892 323.044 28.9854 323.046 29.084Z" fill="black"/>
<rect opacity="0.4" x="336.471" y="19.5" width="24" height="12" rx="3.5" stroke="black"/>
<path opacity="0.5" d="M361.971 23.5V27.5C362.777 27.1612 363.301 26.3731 363.301 25.5C363.301 24.6269 362.777 23.8388 361.971 23.5Z" fill="black"/>
<rect x="337.971" y="21" width="17" height="9" rx="2" fill="black"/>
<path d="M101.694 515V497.545H108.24C109.581 497.545 110.706 497.778 111.615 498.244C112.529 498.71 113.22 499.364 113.686 500.205C114.157 501.04 114.393 502.014 114.393 503.128C114.393 504.247 114.154 505.219 113.677 506.043C113.206 506.861 112.51 507.494 111.589 507.943C110.669 508.386 109.538 508.608 108.197 508.608H103.535V505.983H107.771C108.555 505.983 109.197 505.875 109.697 505.659C110.197 505.437 110.566 505.116 110.805 504.696C111.049 504.27 111.172 503.747 111.172 503.128C111.172 502.509 111.049 501.98 110.805 501.543C110.561 501.099 110.189 500.764 109.689 500.537C109.189 500.304 108.544 500.188 107.754 500.188H104.856V515H101.694ZM110.711 507.091L115.032 515H111.504L107.26 507.091H110.711ZM122.775 515.256C121.463 515.256 120.329 514.983 119.375 514.438C118.426 513.886 117.696 513.108 117.184 512.102C116.673 511.091 116.417 509.901 116.417 508.531C116.417 507.185 116.673 506.003 117.184 504.986C117.701 503.963 118.423 503.168 119.349 502.599C120.275 502.026 121.363 501.739 122.613 501.739C123.42 501.739 124.181 501.869 124.897 502.131C125.619 502.386 126.255 502.784 126.806 503.324C127.363 503.864 127.801 504.551 128.119 505.386C128.437 506.216 128.596 507.205 128.596 508.352V509.298H117.866V507.219H125.639C125.633 506.628 125.505 506.102 125.255 505.642C125.005 505.176 124.656 504.81 124.207 504.543C123.764 504.276 123.247 504.142 122.656 504.142C122.025 504.142 121.471 504.295 120.994 504.602C120.517 504.903 120.145 505.301 119.877 505.795C119.616 506.284 119.483 506.821 119.477 507.406V509.222C119.477 509.983 119.616 510.636 119.895 511.182C120.173 511.722 120.562 512.136 121.062 512.426C121.562 512.71 122.147 512.852 122.818 512.852C123.267 512.852 123.673 512.79 124.037 512.665C124.4 512.534 124.716 512.344 124.983 512.094C125.25 511.844 125.451 511.534 125.588 511.165L128.468 511.489C128.287 512.25 127.94 512.915 127.429 513.483C126.923 514.045 126.275 514.483 125.485 514.795C124.696 515.102 123.792 515.256 122.775 515.256ZM134.973 515.264C134.144 515.264 133.397 515.116 132.732 514.821C132.073 514.52 131.55 514.077 131.164 513.491C130.783 512.906 130.593 512.185 130.593 511.327C130.593 510.588 130.729 509.977 131.002 509.494C131.275 509.011 131.647 508.625 132.118 508.335C132.59 508.045 133.121 507.827 133.712 507.679C134.309 507.526 134.925 507.415 135.561 507.347C136.328 507.267 136.951 507.196 137.428 507.134C137.905 507.065 138.252 506.963 138.468 506.827C138.689 506.685 138.8 506.466 138.8 506.17V506.119C138.8 505.477 138.61 504.98 138.229 504.628C137.848 504.276 137.3 504.099 136.584 504.099C135.828 504.099 135.229 504.264 134.786 504.594C134.348 504.923 134.053 505.312 133.9 505.761L131.019 505.352C131.246 504.557 131.621 503.892 132.144 503.358C132.667 502.818 133.306 502.415 134.061 502.148C134.817 501.875 135.652 501.739 136.567 501.739C137.198 501.739 137.826 501.812 138.451 501.96C139.076 502.108 139.647 502.352 140.164 502.693C140.681 503.028 141.096 503.486 141.408 504.065C141.726 504.645 141.885 505.369 141.885 506.239V515H138.919V513.202H138.817C138.63 513.565 138.365 513.906 138.025 514.224C137.689 514.537 137.266 514.79 136.755 514.983C136.249 515.17 135.655 515.264 134.973 515.264ZM135.775 512.997C136.394 512.997 136.931 512.875 137.385 512.631C137.84 512.381 138.189 512.051 138.434 511.642C138.684 511.233 138.809 510.787 138.809 510.304V508.761C138.712 508.841 138.547 508.915 138.314 508.983C138.087 509.051 137.831 509.111 137.547 509.162C137.263 509.213 136.982 509.259 136.703 509.298C136.425 509.338 136.184 509.372 135.979 509.401C135.519 509.463 135.107 509.565 134.743 509.707C134.38 509.849 134.093 510.048 133.882 510.304C133.672 510.554 133.567 510.878 133.567 511.276C133.567 511.844 133.775 512.273 134.189 512.562C134.604 512.852 135.132 512.997 135.775 512.997ZM149.846 515.23C148.817 515.23 147.897 514.966 147.084 514.438C146.272 513.909 145.63 513.142 145.158 512.136C144.686 511.131 144.451 509.909 144.451 508.472C144.451 507.017 144.689 505.79 145.167 504.79C145.65 503.784 146.3 503.026 147.118 502.514C147.936 501.997 148.848 501.739 149.854 501.739C150.621 501.739 151.252 501.869 151.746 502.131C152.24 502.386 152.632 502.696 152.922 503.06C153.212 503.418 153.436 503.756 153.596 504.074H153.723V497.545H156.817V515H153.783V512.938H153.596C153.436 513.256 153.206 513.594 152.905 513.952C152.604 514.304 152.206 514.605 151.712 514.855C151.218 515.105 150.596 515.23 149.846 515.23ZM150.706 512.699C151.36 512.699 151.917 512.523 152.377 512.17C152.837 511.812 153.186 511.315 153.425 510.679C153.664 510.043 153.783 509.301 153.783 508.455C153.783 507.608 153.664 506.872 153.425 506.247C153.192 505.622 152.846 505.136 152.385 504.79C151.931 504.443 151.371 504.27 150.706 504.27C150.019 504.27 149.445 504.449 148.985 504.807C148.525 505.165 148.178 505.659 147.945 506.29C147.712 506.92 147.596 507.642 147.596 508.455C147.596 509.273 147.712 510.003 147.945 510.645C148.184 511.281 148.533 511.784 148.993 512.153C149.459 512.517 150.03 512.699 150.706 512.699ZM162.022 519.909C161.602 519.909 161.213 519.875 160.855 519.807C160.502 519.744 160.221 519.67 160.011 519.585L160.727 517.182C161.176 517.313 161.576 517.375 161.929 517.369C162.281 517.364 162.591 517.253 162.858 517.037C163.13 516.827 163.36 516.474 163.548 515.98L163.812 515.273L159.065 501.909H162.338L165.355 511.795H165.491L168.517 501.909H171.798L166.556 516.585C166.312 517.278 165.988 517.872 165.585 518.366C165.181 518.866 164.687 519.247 164.102 519.509C163.522 519.776 162.829 519.909 162.022 519.909ZM186.423 501.909V504.295H178.897V501.909H186.423ZM180.755 498.773H183.841V511.062C183.841 511.477 183.903 511.795 184.028 512.017C184.159 512.233 184.329 512.381 184.539 512.46C184.75 512.54 184.983 512.58 185.238 512.58C185.431 512.58 185.608 512.565 185.767 512.537C185.931 512.509 186.056 512.483 186.142 512.46L186.662 514.872C186.497 514.929 186.261 514.991 185.954 515.06C185.653 515.128 185.284 515.168 184.846 515.179C184.074 515.202 183.377 515.085 182.758 514.83C182.139 514.568 181.647 514.165 181.284 513.619C180.926 513.074 180.75 512.392 180.755 511.574V498.773ZM194.573 515.256C193.294 515.256 192.186 514.974 191.249 514.412C190.311 513.849 189.584 513.062 189.067 512.051C188.556 511.04 188.3 509.858 188.3 508.506C188.3 507.153 188.556 505.969 189.067 504.952C189.584 503.935 190.311 503.145 191.249 502.582C192.186 502.02 193.294 501.739 194.573 501.739C195.851 501.739 196.959 502.02 197.897 502.582C198.834 503.145 199.559 503.935 200.07 504.952C200.587 505.969 200.846 507.153 200.846 508.506C200.846 509.858 200.587 511.04 200.07 512.051C199.559 513.062 198.834 513.849 197.897 514.412C196.959 514.974 195.851 515.256 194.573 515.256ZM194.59 512.784C195.283 512.784 195.863 512.594 196.328 512.213C196.794 511.827 197.141 511.31 197.368 510.662C197.601 510.014 197.718 509.293 197.718 508.497C197.718 507.696 197.601 506.972 197.368 506.324C197.141 505.67 196.794 505.151 196.328 504.764C195.863 504.378 195.283 504.185 194.59 504.185C193.88 504.185 193.289 504.378 192.817 504.764C192.351 505.151 192.002 505.67 191.769 506.324C191.542 506.972 191.428 507.696 191.428 508.497C191.428 509.293 191.542 510.014 191.769 510.662C192.002 511.31 192.351 511.827 192.817 512.213C193.289 512.594 193.88 512.784 194.59 512.784ZM209.554 515V497.545H216.099C217.44 497.545 218.565 497.778 219.474 498.244C220.389 498.71 221.079 499.364 221.545 500.205C222.017 501.04 222.252 502.014 222.252 503.128C222.252 504.247 222.014 505.219 221.537 506.043C221.065 506.861 220.369 507.494 219.449 507.943C218.528 508.386 217.397 508.608 216.056 508.608H211.395V505.983H215.63C216.414 505.983 217.056 505.875 217.556 505.659C218.056 505.437 218.426 505.116 218.664 504.696C218.909 504.27 219.031 503.747 219.031 503.128C219.031 502.509 218.909 501.98 218.664 501.543C218.42 501.099 218.048 500.764 217.548 500.537C217.048 500.304 216.403 500.188 215.613 500.188H212.716V515H209.554ZM218.571 507.091L222.892 515H219.363L215.119 507.091H218.571ZM230.635 515.256C229.322 515.256 228.189 514.983 227.234 514.438C226.285 513.886 225.555 513.108 225.044 512.102C224.532 511.091 224.277 509.901 224.277 508.531C224.277 507.185 224.532 506.003 225.044 504.986C225.561 503.963 226.282 503.168 227.208 502.599C228.135 502.026 229.223 501.739 230.473 501.739C231.279 501.739 232.041 501.869 232.757 502.131C233.478 502.386 234.115 502.784 234.666 503.324C235.223 503.864 235.66 504.551 235.978 505.386C236.297 506.216 236.456 507.205 236.456 508.352V509.298H225.725V507.219H233.498C233.493 506.628 233.365 506.102 233.115 505.642C232.865 505.176 232.515 504.81 232.066 504.543C231.623 504.276 231.106 504.142 230.515 504.142C229.885 504.142 229.331 504.295 228.853 504.602C228.376 504.903 228.004 505.301 227.737 505.795C227.475 506.284 227.342 506.821 227.336 507.406V509.222C227.336 509.983 227.475 510.636 227.754 511.182C228.032 511.722 228.422 512.136 228.922 512.426C229.422 512.71 230.007 512.852 230.677 512.852C231.126 512.852 231.532 512.79 231.896 512.665C232.26 512.534 232.575 512.344 232.842 512.094C233.109 511.844 233.311 511.534 233.447 511.165L236.328 511.489C236.146 512.25 235.799 512.915 235.288 513.483C234.782 514.045 234.135 514.483 233.345 514.795C232.555 515.102 231.652 515.256 230.635 515.256ZM244.776 515.256C243.469 515.256 242.347 514.969 241.409 514.395C240.478 513.821 239.759 513.028 239.253 512.017C238.753 511 238.503 509.83 238.503 508.506C238.503 507.176 238.759 506.003 239.27 504.986C239.782 503.963 240.503 503.168 241.435 502.599C242.373 502.026 243.48 501.739 244.759 501.739C245.821 501.739 246.762 501.935 247.58 502.327C248.404 502.713 249.06 503.261 249.549 503.972C250.037 504.676 250.316 505.5 250.384 506.443H247.435C247.316 505.812 247.032 505.287 246.583 504.866C246.14 504.44 245.546 504.227 244.801 504.227C244.171 504.227 243.617 504.398 243.14 504.739C242.662 505.074 242.29 505.557 242.023 506.188C241.762 506.818 241.631 507.574 241.631 508.455C241.631 509.347 241.762 510.114 242.023 510.756C242.284 511.392 242.651 511.884 243.123 512.23C243.6 512.571 244.159 512.741 244.801 512.741C245.256 512.741 245.662 512.656 246.02 512.486C246.384 512.31 246.688 512.057 246.932 511.727C247.176 511.398 247.344 510.997 247.435 510.526H250.384C250.31 511.452 250.037 512.273 249.566 512.989C249.094 513.699 248.452 514.256 247.64 514.659C246.827 515.057 245.873 515.256 244.776 515.256ZM258.627 515.256C257.349 515.256 256.241 514.974 255.304 514.412C254.366 513.849 253.639 513.062 253.122 512.051C252.61 511.04 252.355 509.858 252.355 508.506C252.355 507.153 252.61 505.969 253.122 504.952C253.639 503.935 254.366 503.145 255.304 502.582C256.241 502.02 257.349 501.739 258.627 501.739C259.906 501.739 261.014 502.02 261.951 502.582C262.889 503.145 263.613 503.935 264.125 504.952C264.642 505.969 264.9 507.153 264.9 508.506C264.9 509.858 264.642 511.04 264.125 512.051C263.613 513.062 262.889 513.849 261.951 514.412C261.014 514.974 259.906 515.256 258.627 515.256ZM258.645 512.784C259.338 512.784 259.917 512.594 260.383 512.213C260.849 511.827 261.196 511.31 261.423 510.662C261.656 510.014 261.772 509.293 261.772 508.497C261.772 507.696 261.656 506.972 261.423 506.324C261.196 505.67 260.849 505.151 260.383 504.764C259.917 504.378 259.338 504.185 258.645 504.185C257.934 504.185 257.343 504.378 256.872 504.764C256.406 505.151 256.056 505.67 255.824 506.324C255.596 506.972 255.483 507.696 255.483 508.497C255.483 509.293 255.596 510.014 255.824 510.662C256.056 511.31 256.406 511.827 256.872 512.213C257.343 512.594 257.934 512.784 258.645 512.784ZM267.519 515V501.909H270.51V504.091H270.647C270.885 503.335 271.294 502.753 271.874 502.344C272.459 501.929 273.127 501.722 273.877 501.722C274.047 501.722 274.238 501.73 274.448 501.747C274.664 501.759 274.843 501.778 274.985 501.807V504.645C274.854 504.599 274.647 504.56 274.363 504.526C274.084 504.486 273.814 504.466 273.553 504.466C272.99 504.466 272.485 504.588 272.036 504.832C271.593 505.071 271.243 505.403 270.988 505.83C270.732 506.256 270.604 506.747 270.604 507.304V515H267.519ZM281.353 515.23C280.325 515.23 279.404 514.966 278.592 514.438C277.779 513.909 277.137 513.142 276.666 512.136C276.194 511.131 275.958 509.909 275.958 508.472C275.958 507.017 276.197 505.79 276.674 504.79C277.157 503.784 277.808 503.026 278.626 502.514C279.444 501.997 280.356 501.739 281.362 501.739C282.129 501.739 282.76 501.869 283.254 502.131C283.748 502.386 284.14 502.696 284.43 503.06C284.72 503.418 284.944 503.756 285.103 504.074H285.231V497.545H288.325V515H285.291V512.938H285.103C284.944 513.256 284.714 513.594 284.413 513.952C284.112 514.304 283.714 514.605 283.22 514.855C282.725 515.105 282.103 515.23 281.353 515.23ZM282.214 512.699C282.868 512.699 283.424 512.523 283.885 512.17C284.345 511.812 284.694 511.315 284.933 510.679C285.172 510.043 285.291 509.301 285.291 508.455C285.291 507.608 285.172 506.872 284.933 506.247C284.7 505.622 284.353 505.136 283.893 504.79C283.439 504.443 282.879 504.27 282.214 504.27C281.527 504.27 280.953 504.449 280.493 504.807C280.032 505.165 279.686 505.659 279.453 506.29C279.22 506.92 279.103 507.642 279.103 508.455C279.103 509.273 279.22 510.003 279.453 510.645C279.691 511.281 280.041 511.784 280.501 512.153C280.967 512.517 281.538 512.699 282.214 512.699Z" fill="#6B7280"/>
<path d="M54.0554 620.997C49.8452 620.997 46.2315 619.932 43.2145 617.801C40.2145 615.653 37.9048 612.56 36.2855 608.52C34.6832 604.463 33.8821 599.58 33.8821 593.869C33.8991 588.159 34.7088 583.301 36.3111 579.295C37.9304 575.273 40.2401 572.205 43.2401 570.091C46.2571 567.977 49.8622 566.92 54.0554 566.92C58.2486 566.92 61.8537 567.977 64.8707 570.091C67.8878 572.205 70.1974 575.273 71.7997 579.295C73.419 583.318 74.2287 588.176 74.2287 593.869C74.2287 599.597 73.419 604.489 71.7997 608.545C70.1974 612.585 67.8878 615.67 64.8707 617.801C61.8707 619.932 58.2656 620.997 54.0554 620.997ZM54.0554 612.994C57.3281 612.994 59.9105 611.384 61.8026 608.162C63.7116 604.923 64.6662 600.159 64.6662 593.869C64.6662 589.71 64.2315 586.216 63.3622 583.386C62.4929 580.557 61.2656 578.426 59.6804 576.994C58.0952 575.545 56.2202 574.821 54.0554 574.821C50.7997 574.821 48.2259 576.44 46.3338 579.679C44.4418 582.901 43.4872 587.631 43.4702 593.869C43.4531 598.045 43.8707 601.557 44.723 604.403C45.5923 607.25 46.8196 609.398 48.4048 610.847C49.9901 612.278 51.8736 612.994 54.0554 612.994ZM102.079 620.997C97.8686 620.997 94.255 619.932 91.2379 617.801C88.2379 615.653 85.9283 612.56 84.3089 608.52C82.7067 604.463 81.9055 599.58 81.9055 593.869C81.9226 588.159 82.7322 583.301 84.3345 579.295C85.9538 575.273 88.2635 572.205 91.2635 570.091C94.2805 567.977 97.8857 566.92 102.079 566.92C106.272 566.92 109.877 567.977 112.894 570.091C115.911 572.205 118.221 575.273 119.823 579.295C121.442 583.318 122.252 588.176 122.252 593.869C122.252 599.597 121.442 604.489 119.823 608.545C118.221 612.585 115.911 615.67 112.894 617.801C109.894 619.932 106.289 620.997 102.079 620.997ZM102.079 612.994C105.352 612.994 107.934 611.384 109.826 608.162C111.735 604.923 112.69 600.159 112.69 593.869C112.69 589.71 112.255 586.216 111.386 583.386C110.516 580.557 109.289 578.426 107.704 576.994C106.119 575.545 104.244 574.821 102.079 574.821C98.8232 574.821 96.2493 576.44 94.3572 579.679C92.4652 582.901 91.5107 587.631 91.4936 593.869C91.4766 598.045 91.8942 601.557 92.7464 604.403C93.6158 607.25 94.843 609.398 96.4283 610.847C98.0135 612.278 99.897 612.994 102.079 612.994ZM136.551 613.71C135 613.71 133.67 613.165 132.562 612.074C131.455 610.966 130.909 609.636 130.926 608.085C130.909 606.551 131.455 605.239 132.562 604.148C133.67 603.057 135 602.511 136.551 602.511C138.051 602.511 139.355 603.057 140.463 604.148C141.588 605.239 142.159 606.551 142.176 608.085C142.159 609.125 141.886 610.071 141.358 610.923C140.847 611.776 140.165 612.457 139.312 612.969C138.477 613.463 137.557 613.71 136.551 613.71ZM136.551 587.759C135 587.759 133.67 587.213 132.562 586.122C131.455 585.014 130.909 583.685 130.926 582.134C130.909 580.599 131.455 579.287 132.562 578.196C133.67 577.088 135 576.534 136.551 576.534C138.051 576.534 139.355 577.088 140.463 578.196C141.588 579.287 142.159 580.599 142.176 582.134C142.159 583.156 141.886 584.094 141.358 584.946C140.847 585.798 140.165 586.48 139.312 586.991C138.477 587.503 137.557 587.759 136.551 587.759ZM170.985 620.997C166.775 620.997 163.161 619.932 160.144 617.801C157.144 615.653 154.835 612.56 153.215 608.52C151.613 604.463 150.812 599.58 150.812 593.869C150.829 588.159 151.638 583.301 153.241 579.295C154.86 575.273 157.17 572.205 160.17 570.091C163.187 567.977 166.792 566.92 170.985 566.92C175.178 566.92 178.783 567.977 181.8 570.091C184.817 572.205 187.127 575.273 188.729 579.295C190.349 583.318 191.158 588.176 191.158 593.869C191.158 599.597 190.349 604.489 188.729 608.545C187.127 612.585 184.817 615.67 181.8 617.801C178.8 619.932 175.195 620.997 170.985 620.997ZM170.985 612.994C174.258 612.994 176.84 611.384 178.732 608.162C180.641 604.923 181.596 600.159 181.596 593.869C181.596 589.71 181.161 586.216 180.292 583.386C179.423 580.557 178.195 578.426 176.61 576.994C175.025 575.545 173.15 574.821 170.985 574.821C167.729 574.821 165.156 576.44 163.263 579.679C161.371 582.901 160.417 587.631 160.4 593.869C160.383 598.045 160.8 601.557 161.653 604.403C162.522 607.25 163.749 609.398 165.335 610.847C166.92 612.278 168.803 612.994 170.985 612.994ZM219.009 620.997C214.798 620.997 211.185 619.932 208.168 617.801C205.168 615.653 202.858 612.56 201.239 608.52C199.636 604.463 198.835 599.58 198.835 593.869C198.852 588.159 199.662 583.301 201.264 579.295C202.884 575.273 205.193 572.205 208.193 570.091C211.21 567.977 214.815 566.92 219.009 566.92C223.202 566.92 226.807 567.977 229.824 570.091C232.841 572.205 235.151 575.273 236.753 579.295C238.372 583.318 239.182 588.176 239.182 593.869C239.182 599.597 238.372 604.489 236.753 608.545C235.151 612.585 232.841 615.67 229.824 617.801C226.824 619.932 223.219 620.997 219.009 620.997ZM219.009 612.994C222.281 612.994 224.864 611.384 226.756 608.162C228.665 604.923 229.619 600.159 229.619 593.869C229.619 589.71 229.185 586.216 228.315 583.386C227.446 580.557 226.219 578.426 224.634 576.994C223.048 575.545 221.173 574.821 219.009 574.821C215.753 574.821 213.179 576.44 211.287 579.679C209.395 582.901 208.44 587.631 208.423 593.869C208.406 598.045 208.824 601.557 209.676 604.403C210.545 607.25 211.773 609.398 213.358 610.847C214.943 612.278 216.827 612.994 219.009 612.994ZM253.481 613.71C251.93 613.71 250.6 613.165 249.492 612.074C248.384 610.966 247.839 609.636 247.856 608.085C247.839 606.551 248.384 605.239 249.492 604.148C250.6 603.057 251.93 602.511 253.481 602.511C254.981 602.511 256.285 603.057 257.393 604.148C258.518 605.239 259.089 606.551 259.106 608.085C259.089 609.125 258.816 610.071 258.288 610.923C257.776 611.776 257.094 612.457 256.242 612.969C255.407 613.463 254.487 613.71 253.481 613.71ZM253.481 587.759C251.93 587.759 250.6 587.213 249.492 586.122C248.384 585.014 247.839 583.685 247.856 582.134C247.839 580.599 248.384 579.287 249.492 578.196C250.6 577.088 251.93 576.534 253.481 576.534C254.981 576.534 256.285 577.088 257.393 578.196C258.518 579.287 259.089 580.599 259.106 582.134C259.089 583.156 258.816 584.094 258.288 584.946C257.776 585.798 257.094 586.48 256.242 586.991C255.407 587.503 254.487 587.759 253.481 587.759ZM287.915 620.997C283.705 620.997 280.091 619.932 277.074 617.801C274.074 615.653 271.764 612.56 270.145 608.52C268.543 604.463 267.741 599.58 267.741 593.869C267.759 588.159 268.568 583.301 270.17 579.295C271.79 575.273 274.099 572.205 277.099 570.091C280.116 567.977 283.722 566.92 287.915 566.92C292.108 566.92 295.713 567.977 298.73 570.091C301.747 572.205 304.057 575.273 305.659 579.295C307.278 583.318 308.088 588.176 308.088 593.869C308.088 599.597 307.278 604.489 305.659 608.545C304.057 612.585 301.747 615.67 298.73 617.801C295.73 619.932 292.125 620.997 287.915 620.997ZM287.915 612.994C291.188 612.994 293.77 611.384 295.662 608.162C297.571 604.923 298.526 600.159 298.526 593.869C298.526 589.71 298.091 586.216 297.222 583.386C296.352 580.557 295.125 578.426 293.54 576.994C291.955 575.545 290.08 574.821 287.915 574.821C284.659 574.821 282.085 576.44 280.193 579.679C278.301 582.901 277.347 587.631 277.33 593.869C277.313 598.045 277.73 601.557 278.582 604.403C279.452 607.25 280.679 609.398 282.264 610.847C283.849 612.278 285.733 612.994 287.915 612.994ZM335.938 620.997C331.728 620.997 328.114 619.932 325.097 617.801C322.097 615.653 319.788 612.56 318.168 608.52C316.566 604.463 315.765 599.58 315.765 593.869C315.782 588.159 316.592 583.301 318.194 579.295C319.813 575.273 322.123 572.205 325.123 570.091C328.14 567.977 331.745 566.92 335.938 566.92C340.131 566.92 343.737 567.977 346.754 570.091C349.771 572.205 352.08 575.273 353.683 579.295C355.302 583.318 356.112 588.176 356.112 593.869C356.112 599.597 355.302 604.489 353.683 608.545C352.08 612.585 349.771 615.67 346.754 617.801C343.754 619.932 340.148 620.997 335.938 620.997ZM335.938 612.994C339.211 612.994 341.793 611.384 343.685 608.162C345.594 604.923 346.549 600.159 346.549 593.869C346.549 589.71 346.114 586.216 345.245 583.386C344.376 580.557 343.148 578.426 341.563 576.994C339.978 575.545 338.103 574.821 335.938 574.821C332.683 574.821 330.109 576.44 328.217 579.679C326.325 582.901 325.37 587.631 325.353 593.869C325.336 598.045 325.754 601.557 326.606 604.403C327.475 607.25 328.702 609.398 330.288 610.847C331.873 612.278 333.756 612.994 335.938 612.994Z" fill="#6B7280"/>
<g clip-path="url(#clip2_472_6512)">
<g filter="url(#filter1_dd_472_6512)">
<circle cx="195" cy="740" r="56" fill="white"/>
<circle cx="195" cy="740" r="55.5" stroke="#6B7280"/>
</g>
<circle cx="196" cy="740" r="41" fill="#FF7B7B"/>
<g opacity="0.2">
<circle cx="296" cy="713" r="29" fill="#D1D5DB"/>
<path d="M289.6 701.5H291.2C292.722 701.5 293.9 702.649 293.9 704V722C293.9 723.351 292.722 724.5 291.2 724.5H289.6C288.078 724.5 286.9 723.351 286.9 722V704C286.9 702.649 288.078 701.5 289.6 701.5ZM300.8 701.5H302.4C303.922 701.5 305.1 702.649 305.1 704V722C305.1 723.351 303.922 724.5 302.4 724.5H300.8C299.278 724.5 298.1 723.351 298.1 722V704C298.1 702.649 299.278 701.5 300.8 701.5Z" fill="#6B7280" stroke="#374151"/>
</g>
</g>
<circle cx="128.5" cy="330" r="4" fill="#4EB5A3"/>
<circle cx="140.5" cy="330" r="4" fill="#4EB5A3"/>
<circle cx="152.5" cy="330" r="4" fill="#4EB5A3"/>
<circle cx="164.5" cy="330" r="4" fill="#4EB5A3"/>
<circle cx="176.5" cy="330" r="4" fill="#4EB5A3"/>
<circle cx="188.5" cy="330" r="4" fill="#D9D9D9"/>
<circle cx="200.5" cy="330" r="4" fill="#D9D9D9"/>
<circle cx="212.5" cy="330" r="4" fill="#D9D9D9"/>
<circle cx="224.5" cy="330" r="4" fill="#D9D9D9"/>
<circle cx="236.5" cy="330" r="4" fill="#D9D9D9"/>
<circle cx="248.5" cy="330" r="4" fill="#D9D9D9"/>
<circle cx="260.5" cy="330" r="4" fill="#D9D9D9"/>
<path d="M139.3 358C139.3 361 136.76 363.1 134 363.1C131.24 363.1 128.7 361 128.7 358H127C127 361.41 129.72 364.23 133 364.72V368H135V364.72C138.28 364.23 141 361.41 141 358M132.8 351.9C132.8 351.24 133.34 350.7 134 350.7C134.66 350.7 135.2 351.24 135.2 351.9L135.19 358.1C135.19 358.76 134.66 359.3 134 359.3C133.34 359.3 132.8 358.76 132.8 358.1M134 361C134.796 361 135.559 360.684 136.121 360.121C136.684 359.559 137 358.796 137 358V352C137 351.204 136.684 350.441 136.121 349.879C135.559 349.316 134.796 349 134 349C133.204 349 132.441 349.316 131.879 349.879C131.316 350.441 131 351.204 131 352V358C131 358.796 131.316 359.559 131.879 360.121C132.441 360.684 133.204 361 134 361Z" fill="#6B7280"/>
<path d="M150.423 364V356.364H151.557V357.557H151.656C151.816 357.149 152.072 356.833 152.427 356.607C152.782 356.379 153.208 356.264 153.705 356.264C154.209 356.264 154.628 356.379 154.963 356.607C155.301 356.833 155.564 357.149 155.753 357.557H155.833C156.028 357.162 156.321 356.849 156.713 356.617C157.104 356.382 157.573 356.264 158.119 356.264C158.802 356.264 159.361 356.478 159.795 356.906C160.229 357.33 160.446 357.991 160.446 358.889V364H159.273V358.889C159.273 358.326 159.119 357.923 158.811 357.681C158.502 357.439 158.139 357.318 157.722 357.318C157.185 357.318 156.769 357.481 156.474 357.805C156.179 358.127 156.031 358.535 156.031 359.028V364H154.838V358.77C154.838 358.336 154.697 357.986 154.416 357.721C154.134 357.452 153.771 357.318 153.327 357.318C153.022 357.318 152.737 357.399 152.472 357.562C152.21 357.724 151.998 357.95 151.835 358.238C151.676 358.523 151.597 358.853 151.597 359.227V364H150.423ZM162.591 364V356.364H163.765V364H162.591ZM163.188 355.091C162.959 355.091 162.762 355.013 162.596 354.857C162.434 354.701 162.353 354.514 162.353 354.295C162.353 354.077 162.434 353.889 162.596 353.734C162.762 353.578 162.959 353.5 163.188 353.5C163.417 353.5 163.612 353.578 163.775 353.734C163.94 353.889 164.023 354.077 164.023 354.295C164.023 354.514 163.94 354.701 163.775 354.857C163.612 355.013 163.417 355.091 163.188 355.091ZM169.016 364.159C168.3 364.159 167.684 363.99 167.167 363.652C166.65 363.314 166.252 362.848 165.973 362.255C165.695 361.662 165.556 360.984 165.556 360.222C165.556 359.446 165.698 358.762 165.983 358.168C166.272 357.572 166.673 357.106 167.186 356.771C167.703 356.433 168.307 356.264 168.996 356.264C169.533 356.264 170.017 356.364 170.448 356.562C170.879 356.761 171.232 357.04 171.507 357.398C171.782 357.756 171.953 358.173 172.019 358.651H170.846C170.756 358.303 170.557 357.994 170.249 357.726C169.944 357.454 169.533 357.318 169.016 357.318C168.559 357.318 168.158 357.437 167.813 357.676C167.471 357.911 167.205 358.245 167.012 358.675C166.824 359.103 166.729 359.605 166.729 360.182C166.729 360.772 166.822 361.286 167.007 361.723C167.196 362.161 167.462 362.5 167.803 362.742C168.148 362.984 168.552 363.105 169.016 363.105C169.321 363.105 169.598 363.052 169.846 362.946C170.095 362.84 170.305 362.688 170.478 362.489C170.65 362.29 170.773 362.051 170.846 361.773H172.019C171.953 362.223 171.788 362.629 171.527 362.991C171.268 363.349 170.925 363.634 170.498 363.846C170.073 364.055 169.579 364.159 169.016 364.159ZM173.734 364V356.364H174.868V357.517H174.947C175.086 357.139 175.338 356.833 175.703 356.597C176.067 356.362 176.478 356.244 176.936 356.244C177.022 356.244 177.13 356.246 177.259 356.249C177.388 356.253 177.486 356.258 177.552 356.264V357.457C177.512 357.447 177.421 357.433 177.279 357.413C177.14 357.389 176.992 357.378 176.836 357.378C176.465 357.378 176.134 357.456 175.842 357.612C175.554 357.764 175.325 357.976 175.156 358.248C174.99 358.516 174.907 358.823 174.907 359.168V364H173.734ZM181.813 364.159C181.123 364.159 180.519 363.995 179.998 363.667C179.481 363.339 179.077 362.88 178.785 362.29C178.497 361.7 178.353 361.01 178.353 360.222C178.353 359.426 178.497 358.732 178.785 358.138C179.077 357.545 179.481 357.085 179.998 356.756C180.519 356.428 181.123 356.264 181.813 356.264C182.502 356.264 183.105 356.428 183.623 356.756C184.143 357.085 184.547 357.545 184.836 358.138C185.127 358.732 185.273 359.426 185.273 360.222C185.273 361.01 185.127 361.7 184.836 362.29C184.547 362.88 184.143 363.339 183.623 363.667C183.105 363.995 182.502 364.159 181.813 364.159ZM181.813 363.105C182.337 363.105 182.767 362.971 183.105 362.702C183.444 362.434 183.694 362.081 183.856 361.643C184.019 361.206 184.1 360.732 184.1 360.222C184.1 359.711 184.019 359.236 183.856 358.795C183.694 358.354 183.444 357.998 183.105 357.726C182.767 357.454 182.337 357.318 181.813 357.318C181.289 357.318 180.858 357.454 180.52 357.726C180.182 357.998 179.932 358.354 179.77 358.795C179.607 359.236 179.526 359.711 179.526 360.222C179.526 360.732 179.607 361.206 179.77 361.643C179.932 362.081 180.182 362.434 180.52 362.702C180.858 362.971 181.289 363.105 181.813 363.105ZM187.064 366.864V356.364H188.198V357.577H188.337C188.423 357.444 188.542 357.275 188.695 357.07C188.851 356.861 189.073 356.675 189.361 356.513C189.653 356.347 190.047 356.264 190.544 356.264C191.187 356.264 191.754 356.425 192.244 356.746C192.735 357.068 193.118 357.524 193.393 358.114C193.668 358.704 193.806 359.4 193.806 360.202C193.806 361.01 193.668 361.711 193.393 362.305C193.118 362.895 192.737 363.352 192.249 363.677C191.762 363.998 191.2 364.159 190.564 364.159C190.074 364.159 189.681 364.078 189.386 363.915C189.091 363.75 188.864 363.562 188.705 363.354C188.546 363.142 188.423 362.966 188.337 362.827H188.237V366.864H187.064ZM188.218 360.182C188.218 360.759 188.302 361.267 188.471 361.708C188.64 362.146 188.887 362.489 189.212 362.737C189.537 362.982 189.934 363.105 190.405 363.105C190.896 363.105 191.305 362.976 191.633 362.717C191.964 362.455 192.213 362.104 192.379 361.663C192.548 361.219 192.632 360.725 192.632 360.182C192.632 359.645 192.549 359.161 192.384 358.73C192.221 358.296 191.974 357.953 191.643 357.701C191.315 357.446 190.902 357.318 190.405 357.318C189.928 357.318 189.527 357.439 189.202 357.681C188.877 357.92 188.632 358.254 188.466 358.685C188.3 359.113 188.218 359.612 188.218 360.182ZM196.769 359.406V364H195.595V353.818H196.769V357.557H196.868C197.047 357.162 197.316 356.849 197.673 356.617C198.035 356.382 198.515 356.264 199.115 356.264C199.636 356.264 200.091 356.369 200.482 356.577C200.874 356.783 201.177 357.099 201.392 357.527C201.611 357.951 201.72 358.491 201.72 359.148V364H200.547V359.227C200.547 358.621 200.39 358.152 200.075 357.82C199.763 357.486 199.331 357.318 198.777 357.318C198.393 357.318 198.048 357.399 197.743 357.562C197.441 357.724 197.203 357.961 197.027 358.273C196.855 358.584 196.769 358.962 196.769 359.406ZM206.969 364.159C206.28 364.159 205.675 363.995 205.154 363.667C204.637 363.339 204.233 362.88 203.941 362.29C203.653 361.7 203.509 361.01 203.509 360.222C203.509 359.426 203.653 358.732 203.941 358.138C204.233 357.545 204.637 357.085 205.154 356.756C205.675 356.428 206.28 356.264 206.969 356.264C207.658 356.264 208.262 356.428 208.779 356.756C209.299 357.085 209.703 357.545 209.992 358.138C210.283 358.732 210.429 359.426 210.429 360.222C210.429 361.01 210.283 361.7 209.992 362.29C209.703 362.88 209.299 363.339 208.779 363.667C208.262 363.995 207.658 364.159 206.969 364.159ZM206.969 363.105C207.493 363.105 207.924 362.971 208.262 362.702C208.6 362.434 208.85 362.081 209.012 361.643C209.175 361.206 209.256 360.732 209.256 360.222C209.256 359.711 209.175 359.236 209.012 358.795C208.85 358.354 208.6 357.998 208.262 357.726C207.924 357.454 207.493 357.318 206.969 357.318C206.445 357.318 206.015 357.454 205.676 357.726C205.338 357.998 205.088 358.354 204.926 358.795C204.763 359.236 204.682 359.711 204.682 360.222C204.682 360.732 204.763 361.206 204.926 361.643C205.088 362.081 205.338 362.434 205.676 362.702C206.015 362.971 206.445 363.105 206.969 363.105ZM213.394 359.406V364H212.22V356.364H213.354V357.557H213.453C213.632 357.169 213.904 356.857 214.269 356.622C214.633 356.384 215.104 356.264 215.681 356.264C216.198 356.264 216.65 356.37 217.038 356.582C217.426 356.791 217.727 357.109 217.943 357.537C218.158 357.961 218.266 358.498 218.266 359.148V364H217.093V359.227C217.093 358.627 216.937 358.16 216.625 357.825C216.314 357.487 215.886 357.318 215.343 357.318C214.968 357.318 214.633 357.399 214.338 357.562C214.047 357.724 213.816 357.961 213.647 358.273C213.478 358.584 213.394 358.962 213.394 359.406ZM223.612 364.159C222.876 364.159 222.241 363.997 221.707 363.672C221.177 363.344 220.768 362.886 220.479 362.3C220.194 361.71 220.052 361.024 220.052 360.241C220.052 359.459 220.194 358.77 220.479 358.173C220.768 357.573 221.169 357.106 221.683 356.771C222.2 356.433 222.803 356.264 223.492 356.264C223.89 356.264 224.283 356.33 224.67 356.463C225.058 356.596 225.411 356.811 225.729 357.109C226.048 357.404 226.301 357.795 226.49 358.283C226.679 358.77 226.773 359.37 226.773 360.082V360.58H220.887V359.565H225.58C225.58 359.134 225.494 358.75 225.322 358.412C225.153 358.074 224.911 357.807 224.596 357.612C224.284 357.416 223.916 357.318 223.492 357.318C223.025 357.318 222.621 357.434 222.279 357.666C221.941 357.895 221.681 358.193 221.499 358.561C221.316 358.929 221.225 359.323 221.225 359.744V360.42C221.225 360.997 221.325 361.486 221.523 361.887C221.726 362.285 222.006 362.588 222.364 362.797C222.722 363.002 223.138 363.105 223.612 363.105C223.92 363.105 224.198 363.062 224.447 362.976C224.699 362.886 224.916 362.754 225.098 362.578C225.28 362.399 225.421 362.177 225.521 361.912L226.654 362.23C226.535 362.615 226.334 362.953 226.053 363.244C225.771 363.533 225.423 363.758 225.009 363.92C224.594 364.08 224.129 364.159 223.612 364.159ZM233.669 353.818V364H232.496V353.818H233.669ZM239.02 364.159C238.284 364.159 237.649 363.997 237.116 363.672C236.585 363.344 236.176 362.886 235.888 362.3C235.603 361.71 235.46 361.024 235.46 360.241C235.46 359.459 235.603 358.77 235.888 358.173C236.176 357.573 236.577 357.106 237.091 356.771C237.608 356.433 238.211 356.264 238.9 356.264C239.298 356.264 239.691 356.33 240.079 356.463C240.466 356.596 240.819 356.811 241.138 357.109C241.456 357.404 241.709 357.795 241.898 358.283C242.087 358.77 242.182 359.37 242.182 360.082V360.58H236.295V359.565H240.988C240.988 359.134 240.902 358.75 240.73 358.412C240.561 358.074 240.319 357.807 240.004 357.612C239.693 357.416 239.325 357.318 238.9 357.318C238.433 357.318 238.029 357.434 237.687 357.666C237.349 357.895 237.089 358.193 236.907 358.561C236.724 358.929 236.633 359.323 236.633 359.744V360.42C236.633 360.997 236.733 361.486 236.932 361.887C237.134 362.285 237.414 362.588 237.772 362.797C238.13 363.002 238.546 363.105 239.02 363.105C239.328 363.105 239.606 363.062 239.855 362.976C240.107 362.886 240.324 362.754 240.506 362.578C240.689 362.399 240.829 362.177 240.929 361.912L242.062 362.23C241.943 362.615 241.742 362.953 241.461 363.244C241.179 363.533 240.831 363.758 240.417 363.92C240.002 364.08 239.537 364.159 239.02 364.159ZM249.978 356.364L247.154 364H245.961L243.137 356.364H244.41L246.518 362.449H246.598L248.706 356.364H249.978ZM254.455 364.159C253.719 364.159 253.085 363.997 252.551 363.672C252.021 363.344 251.612 362.886 251.323 362.3C251.038 361.71 250.896 361.024 250.896 360.241C250.896 359.459 251.038 358.77 251.323 358.173C251.612 357.573 252.013 357.106 252.526 356.771C253.043 356.433 253.647 356.264 254.336 356.264C254.734 356.264 255.126 356.33 255.514 356.463C255.902 356.596 256.255 356.811 256.573 357.109C256.891 357.404 257.145 357.795 257.334 358.283C257.523 358.77 257.617 359.37 257.617 360.082V360.58H251.731V359.565H256.424C256.424 359.134 256.338 358.75 256.165 358.412C255.996 358.074 255.754 357.807 255.44 357.612C255.128 357.416 254.76 357.318 254.336 357.318C253.869 357.318 253.464 357.434 253.123 357.666C252.785 357.895 252.525 358.193 252.342 358.561C252.16 358.929 252.069 359.323 252.069 359.744V360.42C252.069 360.997 252.168 361.486 252.367 361.887C252.569 362.285 252.849 362.588 253.207 362.797C253.565 363.002 253.981 363.105 254.455 363.105C254.763 363.105 255.042 363.062 255.29 362.976C255.542 362.886 255.759 362.754 255.942 362.578C256.124 362.399 256.265 362.177 256.364 361.912L257.498 362.23C257.379 362.615 257.178 362.953 256.896 363.244C256.615 363.533 256.267 363.758 255.852 363.92C255.438 364.08 254.972 364.159 254.455 364.159ZM260.575 353.818V364H259.402V353.818H260.575Z" fill="#1F2A37"/>
</g>
<defs>
<filter id="filter0_d_472_6512" x="-9" y="39" width="408" height="102" filterUnits="userSpaceOnUse" color-interpolation-filters="sRGB">
<feFlood flood-opacity="0" result="BackgroundImageFix"/>
<feColorMatrix in="SourceAlpha" type="matrix" values="0 0 0 0 0 0 0 0 0 0 0 0 0 0 0 0 0 0 127 0" result="hardAlpha"/>
<feOffset dy="1"/>
<feGaussianBlur stdDeviation="4.5"/>
<feComposite in2="hardAlpha" operator="out"/>
<feColorMatrix type="matrix" values="0 0 0 0 0 0 0 0 0 0 0 0 0 0 0 0 0 0 0.06 0"/>
<feBlend mode="normal" in2="BackgroundImageFix" result="effect1_dropShadow_472_6512"/>
<feBlend mode="normal" in="SourceGraphic" in2="effect1_dropShadow_472_6512" result="shape"/>
</filter>
<filter id="filter1_dd_472_6512" x="127" y="682" width="136" height="136" filterUnits="userSpaceOnUse" color-interpolation-filters="sRGB">
<feFlood flood-opacity="0" result="BackgroundImageFix"/>
<feColorMatrix in="SourceAlpha" type="matrix" values="0 0 0 0 0 0 0 0 0 0 0 0 0 0 0 0 0 0 127 0" result="hardAlpha"/>
<feOffset dy="4"/>
<feGaussianBlur stdDeviation="3"/>
<feColorMatrix type="matrix" values="0 0 0 0 0 0 0 0 0 0 0 0 0 0 0 0 0 0 0.05 0"/>
<feBlend mode="normal" in2="BackgroundImageFix" result="effect1_dropShadow_472_6512"/>
<feColorMatrix in="SourceAlpha" type="matrix" values="0 0 0 0 0 0 0 0 0 0 0 0 0 0 0 0 0 0 127 0" result="hardAlpha"/>
<feMorphology radius="3" operator="erode" in="SourceAlpha" result="effect2_dropShadow_472_6512"/>
<feOffset dy="10"/>
<feGaussianBlur stdDeviation="7.5"/>
<feColorMatrix type="matrix" values="0 0 0 0 0 0 0 0 0 0 0 0 0 0 0 0 0 0 0.1 0"/>
<feBlend mode="normal" in2="effect1_dropShadow_472_6512" result="effect2_dropShadow_472_6512"/>
<feBlend mode="normal" in="SourceGraphic" in2="effect2_dropShadow_472_6512" result="shape"/>
</filter>
<linearGradient id="paint0_linear_472_6512" x1="195" y1="422" x2="195" y2="844" gradientUnits="userSpaceOnUse">
<stop offset="0.592417" stop-color="white"/>
<stop offset="0.853081" stop-color="#F7FCFC"/>
<stop offset="1" stop-color="#E4F5F6"/>
</linearGradient>
<clipPath id="clip0_472_6512">
<rect width="390" height="844" fill="white"/>
</clipPath>
<clipPath id="clip1_472_6512">
<rect width="10" height="10" fill="white" transform="translate(26 193)"/>
</clipPath>
<clipPath id="clip2_472_6512">
<rect width="198" height="136" fill="white" transform="translate(127 684)"/>
</clipPath>
</defs>
</svg>
