<svg width="1398" height="1010" viewBox="0 0 1398 1010" fill="none" xmlns="http://www.w3.org/2000/svg">
<rect width="1398" height="1010" fill="white"/>
<path d="M1201.56 418.005V512.445C1201.56 533.245 1196.29 548.704 1185.75 558.822C1175.21 568.941 1159.89 574 1139.79 574C1129.11 574 1118.99 572.665 1109.43 569.995C1100.02 567.325 1092.08 563.46 1085.61 558.401L1098.68 534.791C1103.46 538.726 1109.29 541.817 1116.18 544.066C1123.07 546.315 1130.02 547.439 1137.05 547.439C1148.01 547.439 1156.02 544.909 1161.08 539.85C1166.14 534.791 1168.67 527.061 1168.67 516.661V512.867C1164.45 517.083 1159.47 520.315 1153.7 522.564C1147.94 524.813 1141.76 525.937 1135.15 525.937C1120.26 525.937 1108.45 521.721 1099.74 513.289C1091.02 504.716 1086.67 491.927 1086.67 474.922V418.005H1119.55V470.073C1119.55 488.484 1127.21 497.689 1142.53 497.689C1150.4 497.689 1156.73 495.159 1161.5 490.1C1166.28 484.9 1168.67 477.241 1168.67 467.122V418.005H1201.56Z" fill="#14967F"/>
<path d="M1027.92 432.972C1031.86 427.491 1037.13 423.345 1043.73 420.534C1050.48 417.723 1058.21 416.318 1066.92 416.318V446.674C1063.27 446.393 1060.81 446.252 1059.54 446.252C1050.13 446.252 1042.75 448.923 1037.41 454.263C1032.07 459.463 1029.4 467.333 1029.4 477.873V531.418H996.514V418.005H1027.92V432.972Z" fill="#14967F"/>
<path d="M966.068 418.005V531.418H934.658V518.348C926.506 528.185 914.701 533.104 899.242 533.104C888.562 533.104 878.865 530.715 870.151 525.937C861.579 521.158 854.833 514.342 849.914 505.489C844.995 496.635 842.536 486.376 842.536 474.711C842.536 463.047 844.995 452.787 849.914 443.934C854.833 435.08 861.579 428.264 870.151 423.485C878.865 418.707 888.562 416.318 899.242 416.318C913.718 416.318 925.031 420.886 933.182 430.02V418.005H966.068ZM904.934 506.121C913.226 506.121 920.112 503.31 925.593 497.689C931.074 491.927 933.814 484.268 933.814 474.711C933.814 465.155 931.074 457.566 925.593 451.944C920.112 446.182 913.226 443.301 904.934 443.301C896.502 443.301 889.545 446.182 884.064 451.944C878.583 457.566 875.843 465.155 875.843 474.711C875.843 484.268 878.583 491.927 884.064 497.689C889.545 503.31 896.502 506.121 904.934 506.121Z" fill="#14967F"/>
<path d="M748.843 375V531.417H717.433V518.347C709.282 528.185 697.477 533.104 682.018 533.104C671.337 533.104 661.64 530.715 652.926 525.936C644.354 521.158 637.608 514.342 632.689 505.488C627.77 496.634 625.311 486.375 625.311 474.711C625.311 463.046 627.77 452.787 632.689 443.933C637.608 435.079 644.354 428.263 652.926 423.485C661.64 418.707 671.337 416.318 682.018 416.318C696.493 416.318 707.806 420.885 715.957 430.02V375H748.843ZM687.709 506.121C696.001 506.121 702.887 503.31 708.368 497.689C713.849 491.927 716.59 484.267 716.59 474.711C716.59 465.154 713.849 457.565 708.368 451.944C702.887 446.182 696.001 443.301 687.709 443.301C679.277 443.301 672.321 446.182 666.84 451.944C661.359 457.565 658.618 465.154 658.618 474.711C658.618 484.267 661.359 491.927 666.84 497.689C672.321 503.31 679.277 506.121 687.709 506.121Z" fill="#095D7E"/>
<path d="M557.461 506.753C563.364 506.753 568.564 505.91 573.061 504.224C577.699 502.397 581.985 499.586 585.92 495.792L603.417 514.764C592.736 526.991 577.137 533.104 556.618 533.104C543.829 533.104 532.516 530.645 522.679 525.726C512.841 520.667 505.252 513.71 499.912 504.856C494.571 496.002 491.901 485.954 491.901 474.711C491.901 463.609 494.501 453.631 499.701 444.777C505.041 435.782 512.279 428.826 521.414 423.907C530.689 418.848 541.089 416.318 552.613 416.318C563.434 416.318 573.272 418.637 582.126 423.275C590.979 427.772 598.006 434.377 603.206 443.09C608.547 451.663 611.217 461.852 611.217 473.657L527.316 489.889C529.705 495.511 533.43 499.727 538.489 502.537C543.689 505.348 550.013 506.753 557.461 506.753ZM552.613 441.193C544.321 441.193 537.576 443.863 532.376 449.204C527.176 454.544 524.435 461.922 524.154 471.338L579.385 460.587C577.839 454.685 574.677 449.977 569.899 446.463C565.121 442.95 559.359 441.193 552.613 441.193Z" fill="#095D7E"/>
<path d="M423.245 416.318C437.439 416.318 448.682 420.534 456.973 428.966C465.406 437.258 469.622 449.766 469.622 466.49V531.418H436.736V471.549C436.736 462.555 434.839 455.879 431.044 451.523C427.39 447.025 422.12 444.777 415.234 444.777C407.505 444.777 401.391 447.306 396.894 452.366C392.397 457.285 390.148 464.663 390.148 474.5V531.418H357.263V471.549C357.263 453.701 350.095 444.777 335.761 444.777C328.172 444.777 322.129 447.306 317.631 452.366C313.134 457.285 310.886 464.663 310.886 474.5V531.418H278V418.005H309.41V431.074C313.626 426.296 318.756 422.642 324.799 420.113C330.982 417.583 337.728 416.318 345.036 416.318C353.047 416.318 360.284 417.934 366.749 421.167C373.214 424.258 378.413 428.826 382.348 434.869C386.986 428.966 392.818 424.399 399.845 421.167C407.013 417.934 414.812 416.318 423.245 416.318Z" fill="#095D7E"/>
<g clip-path="url(#clip0_2168_4579)">
<path d="M805.43 404.766C808.014 404.766 810.108 402.672 810.108 400.088L810.108 387.927C810.108 385.344 808.014 383.25 805.43 383.25C802.847 383.25 800.753 385.344 800.753 387.927L800.753 400.088C800.753 402.672 802.847 404.766 805.43 404.766Z" fill="#2885AA"/>
<path d="M792.539 396.11L818.076 396.11C820.66 396.11 822.786 398.282 822.786 400.865L822.786 509.908C822.786 510.958 822.417 511.977 821.767 512.802L808.991 529.017C808.104 530.144 806.745 530.801 805.312 530.801C803.878 530.801 802.522 530.143 801.635 529.017L788.864 512.802C788.215 511.977 787.86 510.958 787.86 509.908L787.86 400.865C787.861 398.281 789.956 396.11 792.539 396.11Z" fill="#14967F"/>
<path d="M822.893 509.908C822.893 510.958 822.47 511.977 821.821 512.802L809.018 529.017C808.131 530.144 806.759 530.801 805.325 530.801C803.892 530.801 802.529 530.144 801.642 529.017L788.922 512.802C788.272 511.977 787.968 510.958 787.968 509.909L822.893 509.908Z" fill="#2885AA"/>
<path d="M805.431 383.249C805.458 383.249 805.486 383.253 805.513 383.253L805.513 404.761C805.486 404.762 805.459 404.765 805.43 404.766C802.847 404.766 800.753 402.671 800.753 400.088L800.753 387.927C800.753 385.344 802.847 383.249 805.431 383.249Z" fill="#095D7E"/>
<path d="M792.54 396.11L805.513 396.11L805.513 530.79C805.446 530.793 805.379 530.801 805.312 530.801C803.878 530.801 802.522 530.144 801.635 529.018L788.865 512.802C788.215 511.977 787.86 510.958 787.86 509.909L787.861 400.865C787.861 398.281 789.956 396.11 792.54 396.11Z" fill="#107261"/>
<path d="M805.513 509.908L805.513 530.79C805.45 530.793 805.389 530.801 805.326 530.801C803.892 530.801 802.529 530.144 801.642 529.017L788.922 512.802C788.273 511.977 787.968 510.958 787.968 509.908L805.513 509.908Z" fill="#095D7E"/>
<path d="M778.613 466.107C781.196 466.107 783.29 464.013 783.29 461.43L783.29 431.272L824.452 431.272C827.035 431.272 829.13 429.178 829.129 426.594C829.129 424.011 827.035 421.917 824.452 421.917L778.612 421.917C776.029 421.917 773.935 424.011 773.935 426.594L773.935 461.43C773.935 464.013 776.029 466.107 778.613 466.107Z" fill="#095D7E"/>
</g>
<defs>
<clipPath id="clip0_2168_4579">
<rect width="107.16" height="107.16" fill="white" transform="matrix(-0.707107 -0.707107 -0.707107 0.707107 881.152 457.033)"/>
</clipPath>
</defs>
</svg>
