<svg width="1440" height="758" viewBox="0 0 1440 758" fill="none" xmlns="http://www.w3.org/2000/svg">
<g clip-path="url(#clip0_738_3219)">
<rect width="1440" height="758" fill="white"/>
<path d="M205.904 24.8957V44.4313C205.904 48.7338 204.82 51.9316 202.653 54.0247C200.486 56.1178 197.336 57.1643 193.203 57.1643C191.007 57.1643 188.927 56.8882 186.962 56.3358C185.025 55.7835 183.393 54.984 182.063 53.9375L184.751 49.0536C185.733 49.8676 186.933 50.5071 188.349 50.9722C189.765 51.4374 191.195 51.6699 192.64 51.6699C194.894 51.6699 196.541 51.1467 197.581 50.1001C198.622 49.0536 199.142 47.4547 199.142 45.3034V44.5185C198.275 45.3906 197.249 46.0593 196.064 46.5244C194.88 46.9895 193.608 47.2221 192.25 47.2221C189.187 47.2221 186.759 46.35 184.968 44.6057C183.176 42.8324 182.28 40.187 182.28 36.6694V24.8957H189.042V35.6664C189.042 39.4747 190.617 41.3789 193.767 41.3789C195.385 41.3789 196.686 40.8556 197.668 39.809C198.651 38.7334 199.142 37.1491 199.142 35.056V24.8957H205.904Z" fill="#14967F"/>
<path d="M170.201 27.9917C171.01 26.8579 172.094 26.0004 173.452 25.4189C174.839 24.8375 176.428 24.5468 178.22 24.5468V30.8261C177.468 30.768 176.963 30.7389 176.703 30.7389C174.767 30.7389 173.249 31.2912 172.151 32.3959C171.053 33.4716 170.504 35.0995 170.504 37.2798V48.3558H163.742V24.8957H170.201V27.9917Z" fill="#14967F"/>
<path d="M157.482 24.8957V48.3558H151.023V45.6522C149.347 47.6872 146.92 48.7047 143.741 48.7047C141.545 48.7047 139.551 48.2105 137.759 47.2221C135.997 46.2337 134.61 44.8237 133.598 42.9923C132.587 41.1608 132.081 39.0386 132.081 36.6257C132.081 34.2129 132.587 32.0907 133.598 30.2592C134.61 28.4278 135.997 27.0178 137.759 26.0294C139.551 25.041 141.545 24.5468 143.741 24.5468C146.718 24.5468 149.044 25.4916 150.72 27.3812V24.8957H157.482ZM144.912 43.1231C146.616 43.1231 148.032 42.5417 149.159 41.3788C150.286 40.1869 150.85 38.6026 150.85 36.6257C150.85 34.6489 150.286 33.0791 149.159 31.9163C148.032 30.7244 146.616 30.1284 144.912 30.1284C143.178 30.1284 141.747 30.7244 140.62 31.9163C139.493 33.0791 138.93 34.6489 138.93 36.6257C138.93 38.6026 139.493 40.1869 140.62 41.3788C141.747 42.5417 143.178 43.1231 144.912 43.1231Z" fill="#14967F"/>
<path d="M112.816 16V48.3559H106.357V45.6523C104.681 47.6872 102.254 48.7047 99.0752 48.7047C96.879 48.7047 94.885 48.2105 93.0934 47.2221C91.3306 46.2337 89.9436 44.8237 88.9322 42.9923C87.9207 41.1608 87.415 39.0386 87.415 36.6258C87.415 34.2129 87.9207 32.0907 88.9322 30.2593C89.9436 28.4278 91.3306 27.0179 93.0934 26.0294C94.885 25.041 96.879 24.5468 99.0752 24.5468C102.052 24.5468 104.378 25.4916 106.054 27.3812V16H112.816ZM100.246 43.1231C101.95 43.1231 103.366 42.5417 104.493 41.3789C105.62 40.1869 106.184 38.6026 106.184 36.6258C106.184 34.6489 105.62 33.0791 104.493 31.9163C103.366 30.7244 101.95 30.1284 100.246 30.1284C98.5117 30.1284 97.0812 30.7244 95.9542 31.9163C94.8272 33.0791 94.2637 34.6489 94.2637 36.6258C94.2637 38.6026 94.8272 40.1869 95.9542 41.3789C97.0812 42.5417 98.5117 43.1231 100.246 43.1231Z" fill="#095D7E"/>
<path d="M73.4636 43.2539C74.6773 43.2539 75.7465 43.0795 76.6712 42.7306C77.6248 42.3527 78.5062 41.7713 79.3153 40.9864L82.9131 44.9109C80.7168 47.4401 77.5092 48.7047 73.2902 48.7047C70.6605 48.7047 68.3343 48.1959 66.3115 47.1785C64.2886 46.1319 62.7282 44.6929 61.6301 42.8614C60.532 41.03 59.9829 38.9514 59.9829 36.6257C59.9829 34.3292 60.5175 32.2651 61.5867 30.4337C62.6848 28.5731 64.173 27.1341 66.0514 26.1166C67.9586 25.0701 70.097 24.5468 72.4666 24.5468C74.6917 24.5468 76.7145 25.0265 78.5351 25.9858C80.3556 26.9161 81.8005 28.2824 82.8697 30.0848C83.9678 31.8581 84.5169 33.9658 84.5169 36.4077L67.2651 39.7654C67.7563 40.9282 68.5221 41.8004 69.5624 42.3818C70.6316 42.9632 71.932 43.2539 73.4636 43.2539ZM72.4666 29.6924C70.7617 29.6924 69.3746 30.2447 68.3054 31.3494C67.2362 32.4541 66.6727 33.9803 66.6149 35.928L77.9716 33.7041C77.6537 32.4832 77.0035 31.5093 76.021 30.7825C75.0385 30.0557 73.8537 29.6924 72.4666 29.6924Z" fill="#095D7E"/>
<path d="M45.8655 24.5468C48.7842 24.5468 51.096 25.4189 52.8009 27.1632C54.5348 28.8784 55.4017 31.4657 55.4017 34.9251V48.3558H48.6397V35.9717C48.6397 34.1111 48.2496 32.7303 47.4694 31.8291C46.718 30.8988 45.6344 30.4337 44.2184 30.4337C42.629 30.4337 41.372 30.9569 40.4473 32.0035C39.5225 33.021 39.0602 34.5472 39.0602 36.5821V48.3558H32.2982V35.9717C32.2982 32.2797 30.8244 30.4337 27.8769 30.4337C26.3164 30.4337 25.0738 30.9569 24.1491 32.0035C23.2244 33.021 22.762 34.5472 22.762 36.5821V48.3558H16V24.8957H22.4586V27.5993C23.3255 26.6108 24.3803 25.855 25.6229 25.3317C26.8944 24.8085 28.2814 24.5468 29.7841 24.5468C31.4313 24.5468 32.9195 24.8811 34.2488 25.5498C35.578 26.1893 36.6472 27.1341 37.4564 28.3842C38.41 27.1632 39.6092 26.2184 41.0541 25.5498C42.5279 24.8811 44.1317 24.5468 45.8655 24.5468Z" fill="#095D7E"/>
<g clip-path="url(#clip1_738_3219)">
<path d="M124.452 22.1572C124.983 22.1572 125.413 21.724 125.413 21.1896L125.413 18.674C125.413 18.1396 124.983 17.7064 124.452 17.7065C123.92 17.7065 123.49 18.1396 123.49 18.674V21.1896C123.49 21.724 123.92 22.1572 124.452 22.1572Z" fill="#2885AA"/>
<path d="M121.801 20.3668L127.052 20.3668C127.583 20.3668 128.02 20.8159 128.02 21.3502L128.02 43.9065C128.02 44.1237 127.944 44.3345 127.81 44.5051L125.183 47.8593C125.001 48.0923 124.722 48.2283 124.427 48.2283C124.132 48.2283 123.853 48.0923 123.671 47.8593L121.045 44.505C120.911 44.3344 120.838 44.1236 120.838 43.9065L120.838 21.3502C120.838 20.8158 121.269 20.3667 121.801 20.3668Z" fill="#14967F"/>
<path d="M128.042 43.9066C128.042 44.1237 127.955 44.3345 127.822 44.5052L125.189 47.8593C125.007 48.0923 124.725 48.2283 124.43 48.2284C124.135 48.2284 123.855 48.0924 123.672 47.8594L121.057 44.5051C120.923 44.3345 120.861 44.1237 120.861 43.9066L128.042 43.9066Z" fill="#2885AA"/>
<path d="M124.451 17.7063C124.457 17.7063 124.463 17.7071 124.468 17.7072V22.1562C124.463 22.1563 124.457 22.157 124.451 22.1571C123.92 22.1571 123.49 21.7239 123.49 21.1896L123.49 18.6739C123.49 18.1395 123.92 17.7063 124.451 17.7063Z" fill="#095D7E"/>
<path d="M121.801 20.3668L124.468 20.3668L124.468 48.2261C124.455 48.2266 124.441 48.2284 124.427 48.2284C124.132 48.2284 123.853 48.0924 123.671 47.8595L121.045 44.5052C120.912 44.3345 120.839 44.1237 120.839 43.9066L120.839 21.3502C120.839 20.8159 121.27 20.3667 121.801 20.3668Z" fill="#107261"/>
<path d="M124.468 43.9065L124.468 48.2261C124.455 48.2266 124.443 48.2283 124.43 48.2283C124.135 48.2283 123.855 48.0923 123.672 47.8593L121.057 44.5051C120.923 44.3345 120.861 44.1237 120.861 43.9065L124.468 43.9065Z" fill="#095D7E"/>
<path d="M118.937 34.8461C119.468 34.8461 119.899 34.4129 119.899 33.8785L119.899 27.6401L128.362 27.6401C128.894 27.6401 129.324 27.2069 129.324 26.6725C129.324 26.1382 128.894 25.705 128.362 25.705L118.937 25.705C118.406 25.705 117.975 26.1382 117.975 26.6725L117.975 33.8785C117.975 34.4129 118.406 34.8461 118.937 34.8461Z" fill="#095D7E"/>
</g>
<rect x="1" y="74" width="1439" height="1" fill="#D1D5DB"/>
<rect x="1376" y="13" width="48" height="48" rx="24" fill="#F3F4F6"/>
<path d="M1395.61 31.3636H1397.36V39.6136C1397.36 40.3598 1397.22 40.9981 1396.92 41.5284C1396.63 42.0587 1396.22 42.464 1395.69 42.7443C1395.16 43.0208 1394.54 43.1591 1393.82 43.1591C1393.17 43.1591 1392.58 43.0398 1392.06 42.8011C1391.54 42.5625 1391.13 42.2159 1390.82 41.7614C1390.52 41.303 1390.38 40.7462 1390.38 40.0909H1392.12C1392.12 40.4129 1392.19 40.6913 1392.34 40.9261C1392.49 41.161 1392.7 41.3447 1392.96 41.4773C1393.23 41.6061 1393.53 41.6705 1393.87 41.6705C1394.24 41.6705 1394.55 41.5928 1394.81 41.4375C1395.07 41.2784 1395.27 41.0455 1395.41 40.7386C1395.55 40.4318 1395.61 40.0568 1395.61 39.6136V31.3636ZM1403.69 43H1399.92V31.3636H1403.81C1404.95 31.3636 1405.92 31.5966 1406.74 32.0625C1407.56 32.5246 1408.19 33.1894 1408.62 34.0568C1409.06 34.9205 1409.28 35.9564 1409.28 37.1648C1409.28 38.3769 1409.06 39.4186 1408.62 40.2898C1408.18 41.161 1407.54 41.8314 1406.71 42.3011C1405.88 42.767 1404.87 43 1403.69 43ZM1401.67 41.4659H1403.59C1404.48 41.4659 1405.21 41.2992 1405.8 40.9659C1406.39 40.6288 1406.83 40.142 1407.12 39.5057C1407.41 38.8655 1407.56 38.0852 1407.56 37.1648C1407.56 36.2519 1407.41 35.4773 1407.12 34.8409C1406.83 34.2045 1406.4 33.7216 1405.83 33.392C1405.26 33.0625 1404.55 32.8977 1403.7 32.8977H1401.67V41.4659Z" fill="#1F2A37"/>
<g filter="url(#filter0_d_738_3219)">
<rect width="1440" height="112" transform="translate(0 139)" fill="white"/>
<path d="M25.1186 169.5V159.318H28.7479C29.54 159.318 30.1963 159.462 30.7166 159.751C31.237 160.039 31.6264 160.433 31.8849 160.934C32.1435 161.431 32.2727 161.991 32.2727 162.614C32.2727 163.241 32.1418 163.804 31.88 164.305C31.6214 164.802 31.2304 165.196 30.7067 165.488C30.1863 165.776 29.5317 165.92 28.7429 165.92H26.2472V164.618H28.6037C29.1042 164.618 29.5102 164.532 29.8217 164.359C30.1333 164.184 30.362 163.945 30.5078 163.643C30.6536 163.342 30.7266 162.999 30.7266 162.614C30.7266 162.23 30.6536 161.888 30.5078 161.59C30.362 161.292 30.1316 161.058 29.8168 160.889C29.5052 160.72 29.0942 160.636 28.5838 160.636H26.6548V169.5H25.1186ZM36.1083 169.669C35.6244 169.669 35.1869 169.58 34.7958 169.401C34.4047 169.218 34.0948 168.955 33.8661 168.61C33.6407 168.265 33.5281 167.843 33.5281 167.342C33.5281 166.911 33.6109 166.557 33.7766 166.278C33.9424 166 34.1661 165.78 34.4478 165.617C34.7295 165.455 35.0444 165.332 35.3924 165.249C35.7404 165.166 36.0951 165.103 36.4563 165.06C36.9137 165.007 37.2849 164.964 37.57 164.931C37.855 164.895 38.0621 164.837 38.1914 164.757C38.3207 164.678 38.3853 164.548 38.3853 164.369V164.335C38.3853 163.9 38.2627 163.564 38.0174 163.325C37.7755 163.087 37.4142 162.967 36.9336 162.967C36.4331 162.967 36.0387 163.078 35.7504 163.3C35.4653 163.519 35.2681 163.763 35.1587 164.031L33.7617 163.713C33.9274 163.249 34.1694 162.875 34.4876 162.589C34.8091 162.301 35.1786 162.092 35.5962 161.963C36.0138 161.83 36.453 161.764 36.9137 161.764C37.2186 161.764 37.5418 161.801 37.8832 161.874C38.2279 161.943 38.5494 162.072 38.8477 162.261C39.1493 162.45 39.3962 162.72 39.5884 163.072C39.7807 163.42 39.8768 163.872 39.8768 164.429V169.5H38.4251V168.456H38.3654C38.2693 168.648 38.1251 168.837 37.9329 169.023C37.7406 169.208 37.4937 169.362 37.1921 169.485C36.8905 169.608 36.5292 169.669 36.1083 169.669ZM36.4315 168.476C36.8424 168.476 37.1938 168.395 37.4854 168.232C37.7804 168.07 38.0041 167.858 38.1566 167.596C38.3124 167.331 38.3903 167.047 38.3903 166.746V165.761C38.3372 165.814 38.2345 165.864 38.082 165.911C37.9329 165.954 37.7622 165.992 37.57 166.025C37.3777 166.055 37.1905 166.083 37.0082 166.109C36.8259 166.133 36.6734 166.152 36.5508 166.169C36.2624 166.205 35.9989 166.267 35.7603 166.353C35.525 166.439 35.3361 166.563 35.1935 166.726C35.0543 166.885 34.9847 167.097 34.9847 167.362C34.9847 167.73 35.1206 168.009 35.3924 168.197C35.6642 168.383 36.0105 168.476 36.4315 168.476ZM45.4213 161.864V163.057H41.2502V161.864H45.4213ZM42.3688 160.034H43.8553V167.258C43.8553 167.546 43.8984 167.763 43.9846 167.909C44.0707 168.052 44.1818 168.149 44.3176 168.202C44.4569 168.252 44.6077 168.277 44.7701 168.277C44.8894 168.277 44.9938 168.269 45.0833 168.252C45.1728 168.236 45.2424 168.222 45.2921 168.212L45.5605 169.44C45.4744 169.473 45.3517 169.507 45.1926 169.54C45.0336 169.576 44.8347 169.596 44.5961 169.599C44.205 169.606 43.8404 169.536 43.5023 169.391C43.1642 169.245 42.8908 169.019 42.682 168.714C42.4732 168.41 42.3688 168.027 42.3688 167.566V160.034ZM47.0657 169.5V161.864H48.5522V169.5H47.0657ZM47.8164 160.685C47.5579 160.685 47.3358 160.599 47.1502 160.427C46.9679 160.251 46.8768 160.042 46.8768 159.8C46.8768 159.555 46.9679 159.346 47.1502 159.174C47.3358 158.998 47.5579 158.911 47.8164 158.911C48.0749 158.911 48.2953 158.998 48.4776 159.174C48.6632 159.346 48.756 159.555 48.756 159.8C48.756 160.042 48.6632 160.251 48.4776 160.427C48.2953 160.599 48.0749 160.685 47.8164 160.685ZM53.8432 169.654C53.0908 169.654 52.4429 169.493 51.8993 169.172C51.3591 168.847 50.9415 168.391 50.6465 167.805C50.3548 167.215 50.209 166.524 50.209 165.732C50.209 164.949 50.3548 164.26 50.6465 163.663C50.9415 163.067 51.3525 162.601 51.8794 162.266C52.4097 161.932 53.0295 161.764 53.7388 161.764C54.1697 161.764 54.5873 161.835 54.9917 161.978C55.396 162.121 55.7589 162.344 56.0804 162.649C56.4019 162.954 56.6555 163.35 56.8411 163.837C57.0267 164.321 57.1195 164.91 57.1195 165.602V166.129H51.0492V165.016H55.6628C55.6628 164.625 55.5833 164.278 55.4242 163.977C55.2651 163.672 55.0414 163.431 54.753 163.256C54.468 163.08 54.1332 162.992 53.7488 162.992C53.3311 162.992 52.9666 163.095 52.655 163.3C52.3468 163.503 52.1081 163.768 51.9391 164.096C51.7734 164.421 51.6905 164.774 51.6905 165.155V166.025C51.6905 166.535 51.78 166.969 51.959 167.327C52.1413 167.685 52.3948 167.959 52.7196 168.148C53.0444 168.333 53.4239 168.426 53.8581 168.426C54.1399 168.426 54.3967 168.386 54.6287 168.307C54.8607 168.224 55.0613 168.101 55.2303 167.939C55.3993 167.777 55.5286 167.576 55.6181 167.337L57.025 167.591C56.9123 168.005 56.7102 168.368 56.4185 168.68C56.1301 168.988 55.7672 169.228 55.3297 169.401C54.8955 169.57 54.4 169.654 53.8432 169.654ZM60.2553 164.966V169.5H58.7688V161.864H60.1957V163.107H60.2901C60.4658 162.702 60.7409 162.377 61.1154 162.132C61.4933 161.887 61.9689 161.764 62.5423 161.764C63.0626 161.764 63.5183 161.874 63.9094 162.092C64.3005 162.308 64.6038 162.629 64.8192 163.057C65.0347 163.484 65.1424 164.013 65.1424 164.643V169.5H63.6559V164.822C63.6559 164.268 63.5117 163.836 63.2234 163.524C62.935 163.209 62.5389 163.052 62.0352 163.052C61.6905 163.052 61.3839 163.126 61.1154 163.276C60.8503 163.425 60.6398 163.643 60.484 163.932C60.3316 164.217 60.2553 164.562 60.2553 164.966ZM70.7006 161.864V163.057H66.5295V161.864H70.7006ZM67.6481 160.034H69.1346V167.258C69.1346 167.546 69.1777 167.763 69.2638 167.909C69.35 168.052 69.4611 168.149 69.5969 168.202C69.7362 168.252 69.887 168.277 70.0494 168.277C70.1687 168.277 70.2731 168.269 70.3626 168.252C70.4521 168.236 70.5217 168.222 70.5714 168.212L70.8398 169.44C70.7537 169.473 70.631 169.507 70.4719 169.54C70.3129 169.576 70.114 169.596 69.8754 169.599C69.4843 169.606 69.1197 169.536 68.7816 169.391C68.4435 169.245 68.1701 169.019 67.9613 168.714C67.7525 168.41 67.6481 168.027 67.6481 167.566V160.034ZM84.3874 159.318V169.5H82.9755L77.8001 162.033H77.7056V169.5H76.1694V159.318H77.5913L82.7717 166.795H82.8661V159.318H84.3874ZM88.7314 169.669C88.2475 169.669 87.81 169.58 87.4189 169.401C87.0278 169.218 86.7179 168.955 86.4892 168.61C86.2638 168.265 86.1511 167.843 86.1511 167.342C86.1511 166.911 86.234 166.557 86.3997 166.278C86.5654 166 86.7891 165.78 87.0708 165.617C87.3526 165.455 87.6674 165.332 88.0154 165.249C88.3635 165.166 88.7181 165.103 89.0794 165.06C89.5368 165.007 89.908 164.964 90.193 164.931C90.478 164.895 90.6852 164.837 90.8145 164.757C90.9437 164.678 91.0083 164.548 91.0083 164.369V164.335C91.0083 163.9 90.8857 163.564 90.6404 163.325C90.3985 163.087 90.0372 162.967 89.5566 162.967C89.0562 162.967 88.6618 163.078 88.3734 163.3C88.0884 163.519 87.8912 163.763 87.7818 164.031L86.3848 163.713C86.5505 163.249 86.7924 162.875 87.1106 162.589C87.4321 162.301 87.8017 162.092 88.2193 161.963C88.6369 161.83 89.0761 161.764 89.5368 161.764C89.8417 161.764 90.1648 161.801 90.5062 161.874C90.8509 161.943 91.1724 162.072 91.4707 162.261C91.7723 162.45 92.0192 162.72 92.2115 163.072C92.4037 163.42 92.4998 163.872 92.4998 164.429V169.5H91.0481V168.456H90.9885C90.8923 168.648 90.7482 168.837 90.5559 169.023C90.3637 169.208 90.1168 169.362 89.8152 169.485C89.5136 169.608 89.1523 169.669 88.7314 169.669ZM89.0545 168.476C89.4655 168.476 89.8168 168.395 90.1085 168.232C90.4035 168.07 90.6272 167.858 90.7797 167.596C90.9354 167.331 91.0133 167.047 91.0133 166.746V165.761C90.9603 165.814 90.8575 165.864 90.7051 165.911C90.5559 165.954 90.3852 165.992 90.193 166.025C90.0008 166.055 89.8135 166.083 89.6312 166.109C89.4489 166.133 89.2965 166.152 89.1738 166.169C88.8855 166.205 88.622 166.267 88.3833 166.353C88.148 166.439 87.9591 166.563 87.8166 166.726C87.6774 166.885 87.6078 167.097 87.6078 167.362C87.6078 167.73 87.7437 168.009 88.0154 168.197C88.2872 168.383 88.6336 168.476 89.0545 168.476ZM94.4798 169.5V161.864H95.9066V163.107H96.0011C96.1602 162.686 96.4203 162.357 96.7816 162.122C97.1429 161.884 97.5754 161.764 98.0792 161.764C98.5896 161.764 99.0172 161.884 99.3619 162.122C99.7099 162.361 99.9667 162.689 100.132 163.107H100.212C100.394 162.699 100.684 162.374 101.082 162.132C101.48 161.887 101.954 161.764 102.504 161.764C103.197 161.764 103.762 161.981 104.199 162.415C104.64 162.85 104.86 163.504 104.86 164.379V169.5H103.374V164.518C103.374 164.001 103.233 163.627 102.951 163.395C102.67 163.163 102.333 163.047 101.942 163.047C101.458 163.047 101.082 163.196 100.814 163.494C100.545 163.789 100.411 164.169 100.411 164.633V169.5H98.9293V164.424C98.9293 164.01 98.8001 163.677 98.5415 163.425C98.283 163.173 97.9466 163.047 97.5323 163.047C97.2506 163.047 96.9904 163.121 96.7518 163.271C96.5165 163.416 96.3259 163.62 96.18 163.882C96.0375 164.144 95.9663 164.447 95.9663 164.792V169.5H94.4798ZM110.144 169.654C109.392 169.654 108.744 169.493 108.2 169.172C107.66 168.847 107.242 168.391 106.947 167.805C106.656 167.215 106.51 166.524 106.51 165.732C106.51 164.949 106.656 164.26 106.947 163.663C107.242 163.067 107.653 162.601 108.18 162.266C108.711 161.932 109.33 161.764 110.04 161.764C110.47 161.764 110.888 161.835 111.292 161.978C111.697 162.121 112.06 162.344 112.381 162.649C112.703 162.954 112.956 163.35 113.142 163.837C113.327 164.321 113.42 164.91 113.42 165.602V166.129H107.35V165.016H111.964C111.964 164.625 111.884 164.278 111.725 163.977C111.566 163.672 111.342 163.431 111.054 163.256C110.769 163.08 110.434 162.992 110.05 162.992C109.632 162.992 109.267 163.095 108.956 163.3C108.648 163.503 108.409 163.768 108.24 164.096C108.074 164.421 107.991 164.774 107.991 165.155V166.025C107.991 166.535 108.081 166.969 108.26 167.327C108.442 167.685 108.696 167.959 109.02 168.148C109.345 168.333 109.725 168.426 110.159 168.426C110.441 168.426 110.698 168.386 110.93 168.307C111.162 168.224 111.362 168.101 111.531 167.939C111.7 167.777 111.829 167.576 111.919 167.337L113.326 167.591C113.213 168.005 113.011 168.368 112.719 168.68C112.431 168.988 112.068 169.228 111.631 169.401C111.196 169.57 110.701 169.654 110.144 169.654Z" fill="#1F2A37"/>
<rect x="24.5" y="183" width="357" height="41" rx="7.5" fill="#F9FAFB"/>
<rect x="24.5" y="183" width="357" height="41" rx="7.5" stroke="#D1D5DB"/>
<path d="M41.233 208.5V198.318H44.6733C45.4721 198.318 46.125 198.462 46.6321 198.751C47.1425 199.036 47.5204 199.422 47.7656 199.909C48.0109 200.396 48.1335 200.94 48.1335 201.54C48.1335 202.14 48.0109 202.685 47.7656 203.175C47.5237 203.666 47.1491 204.057 46.642 204.349C46.1349 204.637 45.4853 204.781 44.6932 204.781H42.2273V203.688H44.6534C45.2003 203.688 45.6394 203.593 45.9709 203.404C46.3023 203.215 46.5426 202.96 46.6918 202.638C46.8442 202.314 46.9205 201.947 46.9205 201.54C46.9205 201.132 46.8442 200.768 46.6918 200.446C46.5426 200.125 46.3007 199.873 45.9659 199.69C45.6312 199.505 45.187 199.412 44.6335 199.412H42.4659V208.5H41.233ZM52.2077 208.679C51.7238 208.679 51.2847 208.588 50.8903 208.406C50.4959 208.22 50.1826 207.953 49.9506 207.605C49.7186 207.254 49.6026 206.83 49.6026 206.332C49.6026 205.895 49.6888 205.54 49.8612 205.268C50.0335 204.993 50.2638 204.778 50.5522 204.622C50.8406 204.466 51.1587 204.35 51.5067 204.274C51.8581 204.195 52.2111 204.132 52.5657 204.085C53.0297 204.026 53.4059 203.981 53.6942 203.951C53.9859 203.918 54.198 203.863 54.3306 203.787C54.4665 203.711 54.5344 203.578 54.5344 203.389V203.349C54.5344 202.859 54.4002 202.478 54.1317 202.206C53.8666 201.934 53.4639 201.798 52.9237 201.798C52.3635 201.798 51.9244 201.921 51.6062 202.166C51.288 202.411 51.0643 202.673 50.935 202.952L49.8214 202.554C50.0202 202.09 50.2854 201.729 50.6168 201.47C50.9516 201.208 51.3162 201.026 51.7106 200.923C52.1083 200.817 52.4994 200.764 52.8839 200.764C53.1291 200.764 53.4109 200.794 53.729 200.854C54.0505 200.91 54.3604 201.028 54.6587 201.207C54.9603 201.386 55.2106 201.656 55.4094 202.017C55.6083 202.378 55.7077 202.862 55.7077 203.469V208.5H54.5344V207.466H54.4748C54.3952 207.632 54.2627 207.809 54.0771 207.998C53.8915 208.187 53.6445 208.348 53.3363 208.48C53.0281 208.613 52.6519 208.679 52.2077 208.679ZM52.3867 207.625C52.8507 207.625 53.2418 207.534 53.56 207.352C53.8815 207.169 54.1235 206.934 54.2859 206.646C54.4516 206.357 54.5344 206.054 54.5344 205.736V204.662C54.4847 204.722 54.3754 204.776 54.2063 204.826C54.0406 204.872 53.8484 204.914 53.6296 204.95C53.4142 204.983 53.2037 205.013 52.9982 205.04C52.796 205.063 52.632 205.083 52.506 205.099C52.2011 205.139 51.9161 205.204 51.6509 205.293C51.3891 205.379 51.177 205.51 51.0146 205.686C50.8555 205.858 50.7759 206.094 50.7759 206.392C50.7759 206.8 50.9267 207.108 51.2283 207.317C51.5333 207.522 51.9194 207.625 52.3867 207.625ZM61.1703 200.864V201.858H57.2129V200.864H61.1703ZM58.3663 199.034H59.5396V206.312C59.5396 206.644 59.5877 206.893 59.6838 207.058C59.7832 207.221 59.9092 207.33 60.0616 207.386C60.2174 207.439 60.3815 207.466 60.5538 207.466C60.6831 207.466 60.7891 207.459 60.872 207.446C60.9548 207.429 61.0211 207.416 61.0708 207.406L61.3095 208.46C61.2299 208.49 61.1189 208.52 60.9764 208.55C60.8339 208.583 60.6532 208.599 60.4345 208.599C60.103 208.599 59.7782 208.528 59.46 208.386C59.1452 208.243 58.8833 208.026 58.6745 207.734C58.469 207.443 58.3663 207.075 58.3663 206.631V199.034ZM62.9352 208.5V200.864H64.1085V208.5H62.9352ZM63.5318 199.591C63.3031 199.591 63.1059 199.513 62.9402 199.357C62.7778 199.201 62.6966 199.014 62.6966 198.795C62.6966 198.577 62.7778 198.389 62.9402 198.234C63.1059 198.078 63.3031 198 63.5318 198C63.7605 198 63.956 198.078 64.1184 198.234C64.2842 198.389 64.367 198.577 64.367 198.795C64.367 199.014 64.2842 199.201 64.1184 199.357C63.956 199.513 63.7605 199.591 63.5318 199.591ZM69.4592 208.659C68.7234 208.659 68.0887 208.497 67.555 208.172C67.0247 207.844 66.6154 207.386 66.3271 206.8C66.042 206.21 65.8995 205.524 65.8995 204.741C65.8995 203.959 66.042 203.27 66.3271 202.673C66.6154 202.073 67.0165 201.606 67.5302 201.271C68.0472 200.933 68.6504 200.764 69.3398 200.764C69.7376 200.764 70.1303 200.83 70.5181 200.963C70.9059 201.096 71.2589 201.311 71.5771 201.609C71.8952 201.904 72.1488 202.295 72.3377 202.783C72.5266 203.27 72.6211 203.87 72.6211 204.582V205.08H66.7347V204.065H71.4279C71.4279 203.634 71.3417 203.25 71.1694 202.912C71.0004 202.574 70.7584 202.307 70.4435 202.112C70.132 201.916 69.7641 201.818 69.3398 201.818C68.8725 201.818 68.4682 201.934 68.1268 202.166C67.7887 202.395 67.5285 202.693 67.3462 203.061C67.1639 203.429 67.0728 203.823 67.0728 204.244V204.92C67.0728 205.497 67.1722 205.986 67.3711 206.387C67.5733 206.785 67.8533 207.088 68.2113 207.297C68.5692 207.502 68.9852 207.605 69.4592 207.605C69.7674 207.605 70.0458 207.562 70.2944 207.476C70.5463 207.386 70.7634 207.254 70.9457 207.078C71.128 206.899 71.2688 206.677 71.3683 206.412L72.5018 206.73C72.3825 207.115 72.1819 207.453 71.9002 207.744C71.6185 208.033 71.2705 208.258 70.8562 208.42C70.4419 208.58 69.9762 208.659 69.4592 208.659ZM75.5792 203.906V208.5H74.4059V200.864H75.5394V202.057H75.6388C75.8178 201.669 76.0896 201.357 76.4542 201.122C76.8188 200.884 77.2894 200.764 77.8661 200.764C78.3832 200.764 78.8356 200.87 79.2234 201.082C79.6112 201.291 79.9128 201.609 80.1282 202.037C80.3436 202.461 80.4513 202.998 80.4513 203.648V208.5H79.2781V203.727C79.2781 203.127 79.1223 202.66 78.8107 202.325C78.4992 201.987 78.0716 201.818 77.5281 201.818C77.1535 201.818 76.8188 201.899 76.5238 202.062C76.2321 202.224 76.0018 202.461 75.8327 202.773C75.6637 203.084 75.5792 203.462 75.5792 203.906ZM85.9164 200.864V201.858H81.959V200.864H85.9164ZM83.1124 199.034H84.2857V206.312C84.2857 206.644 84.3337 206.893 84.4299 207.058C84.5293 207.221 84.6552 207.33 84.8077 207.386C84.9635 207.439 85.1275 207.466 85.2999 207.466C85.4292 207.466 85.5352 207.459 85.6181 207.446C85.7009 207.429 85.7672 207.416 85.8169 207.406L86.0556 208.46C85.976 208.49 85.865 208.52 85.7225 208.55C85.58 208.583 85.3993 208.599 85.1806 208.599C84.8491 208.599 84.5243 208.528 84.2061 208.386C83.8913 208.243 83.6294 208.026 83.4206 207.734C83.2151 207.443 83.1124 207.075 83.1124 206.631V199.034ZM99.8517 198.318V208.5H98.6586L93.1103 200.506H93.0108V208.5H91.7779V198.318H92.9711L98.5392 206.332H98.6387V198.318H99.8517ZM104.407 208.679C103.923 208.679 103.484 208.588 103.089 208.406C102.695 208.22 102.382 207.953 102.15 207.605C101.918 207.254 101.802 206.83 101.802 206.332C101.802 205.895 101.888 205.54 102.06 205.268C102.233 204.993 102.463 204.778 102.751 204.622C103.04 204.466 103.358 204.35 103.706 204.274C104.057 204.195 104.41 204.132 104.765 204.085C105.229 204.026 105.605 203.981 105.893 203.951C106.185 203.918 106.397 203.863 106.53 203.787C106.666 203.711 106.734 203.578 106.734 203.389V203.349C106.734 202.859 106.599 202.478 106.331 202.206C106.066 201.934 105.663 201.798 105.123 201.798C104.563 201.798 104.124 201.921 103.805 202.166C103.487 202.411 103.263 202.673 103.134 202.952L102.021 202.554C102.219 202.09 102.485 201.729 102.816 201.47C103.151 201.208 103.515 201.026 103.91 200.923C104.308 200.817 104.699 200.764 105.083 200.764C105.328 200.764 105.61 200.794 105.928 200.854C106.25 200.91 106.56 201.028 106.858 201.207C107.16 201.386 107.41 201.656 107.609 202.017C107.808 202.378 107.907 202.862 107.907 203.469V208.5H106.734V207.466H106.674C106.594 207.632 106.462 207.809 106.276 207.998C106.091 208.187 105.844 208.348 105.536 208.48C105.227 208.613 104.851 208.679 104.407 208.679ZM104.586 207.625C105.05 207.625 105.441 207.534 105.759 207.352C106.081 207.169 106.323 206.934 106.485 206.646C106.651 206.357 106.734 206.054 106.734 205.736V204.662C106.684 204.722 106.575 204.776 106.406 204.826C106.24 204.872 106.048 204.914 105.829 204.95C105.613 204.983 105.403 205.013 105.197 205.04C104.995 205.063 104.831 205.083 104.705 205.099C104.4 205.139 104.115 205.204 103.85 205.293C103.588 205.379 103.376 205.51 103.214 205.686C103.055 205.858 102.975 206.094 102.975 206.392C102.975 206.8 103.126 207.108 103.428 207.317C103.732 207.522 104.119 207.625 104.586 207.625ZM110.048 208.5V200.864H111.182V202.057H111.281C111.441 201.649 111.697 201.333 112.052 201.107C112.407 200.879 112.833 200.764 113.33 200.764C113.834 200.764 114.253 200.879 114.588 201.107C114.926 201.333 115.189 201.649 115.378 202.057H115.458C115.653 201.662 115.946 201.349 116.338 201.117C116.729 200.882 117.198 200.764 117.744 200.764C118.427 200.764 118.986 200.978 119.42 201.406C119.854 201.83 120.071 202.491 120.071 203.389V208.5H118.898V203.389C118.898 202.826 118.744 202.423 118.436 202.181C118.127 201.939 117.764 201.818 117.347 201.818C116.81 201.818 116.394 201.981 116.099 202.305C115.804 202.627 115.656 203.035 115.656 203.528V208.5H114.463V203.27C114.463 202.836 114.322 202.486 114.041 202.221C113.759 201.952 113.396 201.818 112.952 201.818C112.647 201.818 112.362 201.899 112.097 202.062C111.835 202.224 111.623 202.45 111.46 202.738C111.301 203.023 111.222 203.353 111.222 203.727V208.5H110.048ZM125.418 208.659C124.682 208.659 124.048 208.497 123.514 208.172C122.984 207.844 122.574 207.386 122.286 206.8C122.001 206.21 121.858 205.524 121.858 204.741C121.858 203.959 122.001 203.27 122.286 202.673C122.574 202.073 122.975 201.606 123.489 201.271C124.006 200.933 124.609 200.764 125.299 200.764C125.697 200.764 126.089 200.83 126.477 200.963C126.865 201.096 127.218 201.311 127.536 201.609C127.854 201.904 128.108 202.295 128.297 202.783C128.486 203.27 128.58 203.87 128.58 204.582V205.08H122.694V204.065H127.387C127.387 203.634 127.301 203.25 127.128 202.912C126.959 202.574 126.717 202.307 126.403 202.112C126.091 201.916 125.723 201.818 125.299 201.818C124.831 201.818 124.427 201.934 124.086 202.166C123.748 202.395 123.488 202.693 123.305 203.061C123.123 203.429 123.032 203.823 123.032 204.244V204.92C123.032 205.497 123.131 205.986 123.33 206.387C123.532 206.785 123.812 207.088 124.17 207.297C124.528 207.502 124.944 207.605 125.418 207.605C125.726 207.605 126.005 207.562 126.253 207.476C126.505 207.386 126.722 207.254 126.905 207.078C127.087 206.899 127.228 206.677 127.327 206.412L128.461 206.73C128.341 207.115 128.141 207.453 127.859 207.744C127.577 208.033 127.229 208.258 126.815 208.42C126.401 208.58 125.935 208.659 125.418 208.659Z" fill="#6B7280"/>
<circle cx="406" cy="203" r="6.25" fill="#F9FAFB" stroke="#095D7E" stroke-width="3.5"/>
<path d="M423.119 207V196.818H424.655V201.243H429.731V196.818H431.272V207H429.731V202.56H424.655V207H423.119ZM436.353 207.144C435.67 207.144 435.082 207.02 434.588 206.771C434.098 206.523 433.72 206.185 433.455 205.757C433.189 205.326 433.057 204.839 433.057 204.295C433.057 203.881 433.143 203.513 433.315 203.192C433.488 202.867 433.728 202.567 434.036 202.292C434.344 202.017 434.701 201.74 435.105 201.462L436.746 200.303C437.024 200.121 437.241 199.929 437.397 199.727C437.553 199.521 437.631 199.268 437.631 198.966C437.631 198.727 437.528 198.499 437.322 198.28C437.117 198.061 436.842 197.952 436.497 197.952C436.259 197.952 436.048 198.01 435.866 198.126C435.687 198.242 435.546 198.391 435.443 198.573C435.344 198.752 435.294 198.941 435.294 199.14C435.294 199.372 435.357 199.606 435.483 199.841C435.612 200.076 435.778 200.32 435.98 200.572C436.182 200.82 436.394 201.079 436.616 201.347L441.344 207H439.664L435.751 202.401C435.423 202.013 435.118 201.649 434.837 201.308C434.555 200.963 434.326 200.615 434.151 200.263C433.978 199.909 433.892 199.526 433.892 199.115C433.892 198.648 433.998 198.233 434.21 197.872C434.426 197.508 434.726 197.223 435.11 197.017C435.495 196.812 435.945 196.709 436.462 196.709C436.986 196.709 437.435 196.812 437.81 197.017C438.188 197.219 438.478 197.489 438.68 197.827C438.885 198.162 438.988 198.528 438.988 198.926C438.988 199.41 438.867 199.838 438.625 200.209C438.386 200.577 438.057 200.915 437.636 201.223L435.592 202.729C435.195 203.021 434.918 203.309 434.762 203.594C434.61 203.876 434.533 204.097 434.533 204.256C434.533 204.547 434.608 204.817 434.757 205.066C434.91 205.315 435.122 205.513 435.393 205.663C435.669 205.812 435.99 205.886 436.358 205.886C436.736 205.886 437.104 205.805 437.462 205.643C437.823 205.477 438.149 205.24 438.441 204.932C438.736 204.624 438.97 204.254 439.142 203.823C439.314 203.392 439.401 202.91 439.401 202.376H440.743C440.743 203.033 440.668 203.588 440.519 204.042C440.37 204.493 440.189 204.861 439.977 205.146C439.768 205.427 439.571 205.648 439.386 205.807C439.326 205.86 439.27 205.913 439.217 205.966C439.164 206.019 439.107 206.072 439.048 206.125C438.703 206.473 438.285 206.73 437.795 206.896C437.308 207.061 436.827 207.144 436.353 207.144ZM442.628 207V196.818H446.258C447.05 196.818 447.706 196.962 448.226 197.251C448.747 197.539 449.136 197.933 449.395 198.434C449.653 198.931 449.782 199.491 449.782 200.114C449.782 200.741 449.652 201.304 449.39 201.805C449.131 202.302 448.74 202.696 448.216 202.988C447.696 203.276 447.041 203.42 446.253 203.42H443.757V202.118H446.113C446.614 202.118 447.02 202.032 447.331 201.859C447.643 201.684 447.872 201.445 448.018 201.143C448.163 200.842 448.236 200.499 448.236 200.114C448.236 199.73 448.163 199.388 448.018 199.09C447.872 198.792 447.641 198.558 447.327 198.389C447.015 198.22 446.604 198.136 446.094 198.136H444.165V207H442.628ZM455.602 201.909C455.602 200.663 455.766 199.516 456.094 198.469C456.422 197.421 456.901 196.455 457.531 195.57H458.893C458.648 195.898 458.419 196.301 458.207 196.778C457.995 197.256 457.809 197.779 457.65 198.349C457.491 198.916 457.367 199.504 457.277 200.114C457.188 200.721 457.143 201.319 457.143 201.909C457.143 202.698 457.221 203.497 457.377 204.305C457.532 205.114 457.743 205.865 458.008 206.558C458.273 207.25 458.568 207.815 458.893 208.253H457.531C456.901 207.368 456.422 206.402 456.094 205.354C455.766 204.307 455.602 203.159 455.602 201.909ZM469.036 200.129H467.485C467.425 199.798 467.314 199.506 467.152 199.254C466.99 199.002 466.791 198.789 466.555 198.613C466.32 198.437 466.057 198.305 465.765 198.215C465.477 198.126 465.17 198.081 464.845 198.081C464.259 198.081 463.733 198.228 463.269 198.523C462.808 198.818 462.444 199.251 462.175 199.821C461.91 200.391 461.778 201.087 461.778 201.909C461.778 202.738 461.91 203.437 462.175 204.007C462.444 204.577 462.81 205.008 463.274 205.3C463.738 205.591 464.26 205.737 464.84 205.737C465.162 205.737 465.467 205.694 465.755 205.608C466.047 205.518 466.31 205.388 466.545 205.215C466.781 205.043 466.98 204.832 467.142 204.584C467.308 204.332 467.422 204.044 467.485 203.719L469.036 203.724C468.953 204.224 468.793 204.685 468.554 205.106C468.319 205.523 468.015 205.885 467.644 206.19C467.276 206.491 466.855 206.725 466.381 206.891C465.907 207.056 465.39 207.139 464.83 207.139C463.949 207.139 463.163 206.93 462.474 206.513C461.784 206.092 461.241 205.49 460.843 204.708C460.449 203.926 460.251 202.993 460.251 201.909C460.251 200.822 460.45 199.889 460.848 199.11C461.246 198.328 461.789 197.728 462.479 197.31C463.168 196.889 463.952 196.679 464.83 196.679C465.371 196.679 465.874 196.757 466.342 196.913C466.812 197.065 467.235 197.29 467.609 197.589C467.984 197.884 468.294 198.245 468.539 198.673C468.784 199.097 468.95 199.582 469.036 200.129ZM473.972 207.154C473.256 207.154 472.631 206.99 472.097 206.662C471.564 206.334 471.15 205.875 470.855 205.285C470.56 204.695 470.412 204.005 470.412 203.217C470.412 202.424 470.56 201.732 470.855 201.138C471.15 200.545 471.564 200.085 472.097 199.756C472.631 199.428 473.256 199.264 473.972 199.264C474.688 199.264 475.312 199.428 475.846 199.756C476.38 200.085 476.794 200.545 477.089 201.138C477.384 201.732 477.531 202.424 477.531 203.217C477.531 204.005 477.384 204.695 477.089 205.285C476.794 205.875 476.38 206.334 475.846 206.662C475.312 206.99 474.688 207.154 473.972 207.154ZM473.977 205.906C474.441 205.906 474.825 205.784 475.13 205.538C475.435 205.293 475.66 204.967 475.806 204.559C475.955 204.151 476.03 203.702 476.03 203.212C476.03 202.724 475.955 202.277 475.806 201.869C475.66 201.458 475.435 201.129 475.13 200.88C474.825 200.631 474.441 200.507 473.977 200.507C473.509 200.507 473.122 200.631 472.813 200.88C472.508 201.129 472.281 201.458 472.132 201.869C471.986 202.277 471.914 202.724 471.914 203.212C471.914 203.702 471.986 204.151 472.132 204.559C472.281 204.967 472.508 205.293 472.813 205.538C473.122 205.784 473.509 205.906 473.977 205.906ZM480.677 202.466V207H479.191V199.364H480.618V200.607H480.712C480.888 200.202 481.163 199.877 481.537 199.632C481.915 199.387 482.391 199.264 482.964 199.264C483.484 199.264 483.94 199.374 484.331 199.592C484.722 199.808 485.026 200.129 485.241 200.557C485.457 200.984 485.564 201.513 485.564 202.143V207H484.078V202.322C484.078 201.768 483.934 201.336 483.645 201.024C483.357 200.709 482.961 200.552 482.457 200.552C482.112 200.552 481.806 200.626 481.537 200.776C481.272 200.925 481.062 201.143 480.906 201.432C480.753 201.717 480.677 202.062 480.677 202.466ZM493.28 201.228L491.933 201.467C491.877 201.294 491.787 201.13 491.664 200.974C491.545 200.819 491.383 200.691 491.177 200.592C490.972 200.492 490.715 200.442 490.407 200.442C489.986 200.442 489.634 200.537 489.353 200.726C489.071 200.911 488.93 201.152 488.93 201.447C488.93 201.702 489.025 201.907 489.213 202.063C489.402 202.219 489.707 202.347 490.128 202.446L491.341 202.724C492.044 202.887 492.568 203.137 492.912 203.475C493.257 203.813 493.429 204.252 493.429 204.793C493.429 205.25 493.297 205.658 493.032 206.016C492.77 206.37 492.404 206.649 491.933 206.851C491.466 207.053 490.924 207.154 490.307 207.154C489.452 207.154 488.754 206.972 488.214 206.607C487.674 206.239 487.342 205.717 487.22 205.041L488.657 204.822C488.746 205.197 488.93 205.48 489.208 205.673C489.487 205.862 489.85 205.956 490.297 205.956C490.784 205.956 491.174 205.855 491.466 205.653C491.757 205.447 491.903 205.197 491.903 204.902C491.903 204.663 491.814 204.463 491.635 204.3C491.459 204.138 491.189 204.015 490.824 203.933L489.532 203.649C488.819 203.487 488.292 203.228 487.951 202.874C487.613 202.519 487.444 202.07 487.444 201.526C487.444 201.076 487.569 200.681 487.821 200.343C488.073 200.005 488.421 199.741 488.865 199.553C489.31 199.36 489.818 199.264 490.392 199.264C491.217 199.264 491.867 199.443 492.341 199.801C492.815 200.156 493.128 200.631 493.28 201.228ZM499.901 203.833V199.364H501.393V207H499.931V205.678H499.851C499.676 206.085 499.394 206.425 499.006 206.697C498.622 206.965 498.143 207.099 497.569 207.099C497.079 207.099 496.645 206.992 496.267 206.776C495.892 206.558 495.597 206.234 495.382 205.807C495.17 205.379 495.064 204.851 495.064 204.221V199.364H496.55V204.042C496.55 204.562 496.694 204.977 496.983 205.285C497.271 205.593 497.646 205.747 498.106 205.747C498.385 205.747 498.662 205.678 498.937 205.538C499.215 205.399 499.445 205.189 499.628 204.907C499.813 204.625 499.904 204.267 499.901 203.833ZM504.876 196.818V207H503.39V196.818H504.876ZM510.441 199.364V200.557H506.27V199.364H510.441ZM507.388 197.534H508.875V204.758C508.875 205.046 508.918 205.263 509.004 205.409C509.09 205.552 509.201 205.649 509.337 205.702C509.476 205.752 509.627 205.777 509.79 205.777C509.909 205.777 510.013 205.769 510.103 205.752C510.192 205.736 510.262 205.722 510.312 205.712L510.58 206.94C510.494 206.973 510.371 207.007 510.212 207.04C510.053 207.076 509.854 207.096 509.616 207.099C509.224 207.106 508.86 207.036 508.522 206.891C508.184 206.745 507.91 206.519 507.702 206.214C507.493 205.91 507.388 205.527 507.388 205.066V197.534ZM514.944 202.774C514.944 204.024 514.78 205.172 514.452 206.219C514.124 207.267 513.645 208.233 513.015 209.118H511.653C511.898 208.79 512.127 208.387 512.339 207.91C512.551 207.433 512.737 206.911 512.896 206.344C513.055 205.774 513.179 205.184 513.268 204.574C513.358 203.964 513.403 203.364 513.403 202.774C513.403 201.989 513.325 201.192 513.169 200.383C513.013 199.574 512.803 198.823 512.538 198.131C512.272 197.438 511.978 196.873 511.653 196.435H513.015C513.645 197.32 514.124 198.286 514.452 199.334C514.78 200.381 514.944 201.528 514.944 202.774Z" fill="#1F2A37"/>
<rect x="532.75" y="194.75" width="16.5" height="16.5" rx="8.25" fill="#F9FAFB"/>
<rect x="532.75" y="194.75" width="16.5" height="16.5" rx="8.25" stroke="#D1D5DB" stroke-width="0.5"/>
<path d="M558.119 207V196.818H564.433V198.141H559.655V201.243H563.98V202.56H559.655V207H558.119ZM568.858 207.154C568.143 207.154 567.518 206.99 566.984 206.662C566.451 206.334 566.036 205.875 565.741 205.285C565.446 204.695 565.299 204.005 565.299 203.217C565.299 202.424 565.446 201.732 565.741 201.138C566.036 200.545 566.451 200.085 566.984 199.756C567.518 199.428 568.143 199.264 568.858 199.264C569.574 199.264 570.199 199.428 570.733 199.756C571.266 200.085 571.681 200.545 571.976 201.138C572.271 201.732 572.418 202.424 572.418 203.217C572.418 204.005 572.271 204.695 571.976 205.285C571.681 205.875 571.266 206.334 570.733 206.662C570.199 206.99 569.574 207.154 568.858 207.154ZM568.863 205.906C569.327 205.906 569.712 205.784 570.017 205.538C570.322 205.293 570.547 204.967 570.693 204.559C570.842 204.151 570.917 203.702 570.917 203.212C570.917 202.724 570.842 202.277 570.693 201.869C570.547 201.458 570.322 201.129 570.017 200.88C569.712 200.631 569.327 200.507 568.863 200.507C568.396 200.507 568.008 200.631 567.7 200.88C567.395 201.129 567.168 201.458 567.019 201.869C566.873 202.277 566.8 202.724 566.8 203.212C566.8 203.702 566.873 204.151 567.019 204.559C567.168 204.967 567.395 205.293 567.7 205.538C568.008 205.784 568.396 205.906 568.863 205.906ZM575.564 196.818V207H574.077V196.818H575.564ZM579.05 196.818V207H577.564V196.818H579.05ZM584.267 207.154C583.551 207.154 582.926 206.99 582.392 206.662C581.859 206.334 581.444 205.875 581.15 205.285C580.855 204.695 580.707 204.005 580.707 203.217C580.707 202.424 580.855 201.732 581.15 201.138C581.444 200.545 581.859 200.085 582.392 199.756C582.926 199.428 583.551 199.264 584.267 199.264C584.983 199.264 585.607 199.428 586.141 199.756C586.675 200.085 587.089 200.545 587.384 201.138C587.679 201.732 587.826 202.424 587.826 203.217C587.826 204.005 587.679 204.695 587.384 205.285C587.089 205.875 586.675 206.334 586.141 206.662C585.607 206.99 584.983 207.154 584.267 207.154ZM584.272 205.906C584.736 205.906 585.12 205.784 585.425 205.538C585.73 205.293 585.955 204.967 586.101 204.559C586.25 204.151 586.325 203.702 586.325 203.212C586.325 202.724 586.25 202.277 586.101 201.869C585.955 201.458 585.73 201.129 585.425 200.88C585.12 200.631 584.736 200.507 584.272 200.507C583.804 200.507 583.417 200.631 583.108 200.88C582.803 201.129 582.576 201.458 582.427 201.869C582.281 202.277 582.208 202.724 582.208 203.212C582.208 203.702 582.281 204.151 582.427 204.559C582.576 204.967 582.803 205.293 583.108 205.538C583.417 205.784 583.804 205.906 584.272 205.906ZM590.909 207L588.662 199.364H590.198L591.694 204.972H591.769L593.27 199.364H594.806L596.298 204.947H596.373L597.859 199.364H599.395L597.153 207H595.637L594.086 201.487H593.971L592.42 207H590.909ZM611.178 196.818H612.719V203.515C612.719 204.228 612.552 204.859 612.217 205.409C611.882 205.956 611.412 206.387 610.805 206.702C610.199 207.013 609.488 207.169 608.672 207.169C607.86 207.169 607.151 207.013 606.544 206.702C605.938 206.387 605.467 205.956 605.132 205.409C604.798 204.859 604.63 204.228 604.63 203.515V196.818H606.167V203.391C606.167 203.851 606.268 204.261 606.47 204.619C606.675 204.977 606.965 205.258 607.34 205.464C607.714 205.666 608.158 205.767 608.672 205.767C609.189 205.767 609.635 205.666 610.01 205.464C610.387 205.258 610.676 204.977 610.875 204.619C611.077 204.261 611.178 203.851 611.178 203.391V196.818ZM614.833 209.864V199.364H616.285V200.602H616.409C616.495 200.442 616.62 200.259 616.782 200.05C616.945 199.841 617.17 199.659 617.458 199.503C617.747 199.344 618.128 199.264 618.602 199.264C619.218 199.264 619.768 199.42 620.252 199.732C620.736 200.043 621.116 200.492 621.391 201.079C621.669 201.665 621.808 202.371 621.808 203.197C621.808 204.022 621.671 204.73 621.396 205.32C621.121 205.906 620.743 206.359 620.262 206.677C619.782 206.992 619.233 207.149 618.617 207.149C618.153 207.149 617.773 207.071 617.478 206.915C617.186 206.76 616.958 206.577 616.792 206.369C616.626 206.16 616.499 205.974 616.409 205.812H616.32V209.864H614.833ZM616.29 203.182C616.29 203.719 616.368 204.189 616.524 204.594C616.679 204.998 616.905 205.315 617.2 205.543C617.495 205.769 617.856 205.881 618.284 205.881C618.728 205.881 619.099 205.764 619.397 205.528C619.695 205.29 619.921 204.967 620.073 204.559C620.229 204.151 620.307 203.692 620.307 203.182C620.307 202.678 620.231 202.226 620.078 201.825C619.929 201.424 619.704 201.107 619.402 200.875C619.104 200.643 618.731 200.527 618.284 200.527C617.853 200.527 617.488 200.638 617.19 200.86C616.895 201.082 616.671 201.392 616.519 201.79C616.366 202.187 616.29 202.652 616.29 203.182Z" fill="#1F2A37"/>
<path d="M1131 203.5C1131 191.626 1140.63 182 1152.5 182H1394.5C1406.37 182 1416 191.626 1416 203.5C1416 215.374 1406.37 225 1394.5 225H1152.5C1140.63 225 1131 215.374 1131 203.5Z" fill="#F3F4F6"/>
<path d="M1168.3 202C1168.3 205 1165.76 207.1 1163 207.1C1160.24 207.1 1157.7 205 1157.7 202H1156C1156 205.41 1158.72 208.23 1162 208.72V212H1164V208.72C1167.28 208.23 1170 205.41 1170 202M1161.8 195.9C1161.8 195.24 1162.34 194.7 1163 194.7C1163.66 194.7 1164.2 195.24 1164.2 195.9L1164.19 202.1C1164.19 202.76 1163.66 203.3 1163 203.3C1162.34 203.3 1161.8 202.76 1161.8 202.1M1163 205C1163.8 205 1164.56 204.684 1165.12 204.121C1165.68 203.559 1166 202.796 1166 202V196C1166 195.204 1165.68 194.441 1165.12 193.879C1164.56 193.316 1163.8 193 1163 193C1162.2 193 1161.44 193.316 1160.88 193.879C1160.32 194.441 1160 195.204 1160 196V202C1160 202.796 1160.32 203.559 1160.88 204.121C1161.44 204.684 1162.2 205 1163 205Z" fill="#6B7280"/>
<path d="M1179.42 208V200.364H1180.56V201.557H1180.66C1180.82 201.149 1181.07 200.833 1181.43 200.607C1181.78 200.379 1182.21 200.264 1182.7 200.264C1183.21 200.264 1183.63 200.379 1183.96 200.607C1184.3 200.833 1184.56 201.149 1184.75 201.557H1184.83C1185.03 201.162 1185.32 200.849 1185.71 200.617C1186.1 200.382 1186.57 200.264 1187.12 200.264C1187.8 200.264 1188.36 200.478 1188.79 200.906C1189.23 201.33 1189.45 201.991 1189.45 202.889V208H1188.27V202.889C1188.27 202.326 1188.12 201.923 1187.81 201.681C1187.5 201.439 1187.14 201.318 1186.72 201.318C1186.18 201.318 1185.77 201.481 1185.47 201.805C1185.18 202.127 1185.03 202.535 1185.03 203.028V208H1183.84V202.77C1183.84 202.336 1183.7 201.986 1183.42 201.721C1183.13 201.452 1182.77 201.318 1182.33 201.318C1182.02 201.318 1181.74 201.399 1181.47 201.562C1181.21 201.724 1181 201.95 1180.84 202.238C1180.68 202.523 1180.6 202.853 1180.6 203.227V208H1179.42ZM1191.59 208V200.364H1192.76V208H1191.59ZM1192.19 199.091C1191.96 199.091 1191.76 199.013 1191.6 198.857C1191.43 198.701 1191.35 198.514 1191.35 198.295C1191.35 198.077 1191.43 197.889 1191.6 197.734C1191.76 197.578 1191.96 197.5 1192.19 197.5C1192.42 197.5 1192.61 197.578 1192.77 197.734C1192.94 197.889 1193.02 198.077 1193.02 198.295C1193.02 198.514 1192.94 198.701 1192.77 198.857C1192.61 199.013 1192.42 199.091 1192.19 199.091ZM1198.02 208.159C1197.3 208.159 1196.68 207.99 1196.17 207.652C1195.65 207.314 1195.25 206.848 1194.97 206.255C1194.69 205.662 1194.56 204.984 1194.56 204.222C1194.56 203.446 1194.7 202.762 1194.98 202.168C1195.27 201.572 1195.67 201.106 1196.19 200.771C1196.7 200.433 1197.31 200.264 1198 200.264C1198.53 200.264 1199.02 200.364 1199.45 200.562C1199.88 200.761 1200.23 201.04 1200.51 201.398C1200.78 201.756 1200.95 202.173 1201.02 202.651H1199.85C1199.76 202.303 1199.56 201.994 1199.25 201.726C1198.94 201.454 1198.53 201.318 1198.02 201.318C1197.56 201.318 1197.16 201.437 1196.81 201.676C1196.47 201.911 1196.2 202.245 1196.01 202.675C1195.82 203.103 1195.73 203.605 1195.73 204.182C1195.73 204.772 1195.82 205.286 1196.01 205.723C1196.2 206.161 1196.46 206.5 1196.8 206.742C1197.15 206.984 1197.55 207.105 1198.02 207.105C1198.32 207.105 1198.6 207.052 1198.85 206.946C1199.09 206.84 1199.31 206.688 1199.48 206.489C1199.65 206.29 1199.77 206.051 1199.85 205.773H1201.02C1200.95 206.223 1200.79 206.629 1200.53 206.991C1200.27 207.349 1199.93 207.634 1199.5 207.846C1199.07 208.055 1198.58 208.159 1198.02 208.159ZM1202.73 208V200.364H1203.87V201.517H1203.95C1204.09 201.139 1204.34 200.833 1204.7 200.597C1205.07 200.362 1205.48 200.244 1205.94 200.244C1206.02 200.244 1206.13 200.246 1206.26 200.249C1206.39 200.253 1206.49 200.258 1206.55 200.264V201.457C1206.51 201.447 1206.42 201.433 1206.28 201.413C1206.14 201.389 1205.99 201.378 1205.84 201.378C1205.47 201.378 1205.13 201.456 1204.84 201.612C1204.55 201.764 1204.32 201.976 1204.16 202.248C1203.99 202.516 1203.91 202.823 1203.91 203.168V208H1202.73ZM1210.81 208.159C1210.12 208.159 1209.52 207.995 1209 207.667C1208.48 207.339 1208.08 206.88 1207.79 206.29C1207.5 205.7 1207.35 205.01 1207.35 204.222C1207.35 203.426 1207.5 202.732 1207.79 202.138C1208.08 201.545 1208.48 201.085 1209 200.756C1209.52 200.428 1210.12 200.264 1210.81 200.264C1211.5 200.264 1212.11 200.428 1212.62 200.756C1213.14 201.085 1213.55 201.545 1213.84 202.138C1214.13 202.732 1214.27 203.426 1214.27 204.222C1214.27 205.01 1214.13 205.7 1213.84 206.29C1213.55 206.88 1213.14 207.339 1212.62 207.667C1212.11 207.995 1211.5 208.159 1210.81 208.159ZM1210.81 207.105C1211.34 207.105 1211.77 206.971 1212.11 206.702C1212.44 206.434 1212.69 206.081 1212.86 205.643C1213.02 205.206 1213.1 204.732 1213.1 204.222C1213.1 203.711 1213.02 203.236 1212.86 202.795C1212.69 202.354 1212.44 201.998 1212.11 201.726C1211.77 201.454 1211.34 201.318 1210.81 201.318C1210.29 201.318 1209.86 201.454 1209.52 201.726C1209.18 201.998 1208.93 202.354 1208.77 202.795C1208.61 203.236 1208.53 203.711 1208.53 204.222C1208.53 204.732 1208.61 205.206 1208.77 205.643C1208.93 206.081 1209.18 206.434 1209.52 206.702C1209.86 206.971 1210.29 207.105 1210.81 207.105ZM1216.06 210.864V200.364H1217.2V201.577H1217.34C1217.42 201.444 1217.54 201.275 1217.69 201.07C1217.85 200.861 1218.07 200.675 1218.36 200.513C1218.65 200.347 1219.05 200.264 1219.54 200.264C1220.19 200.264 1220.75 200.425 1221.24 200.746C1221.74 201.068 1222.12 201.524 1222.39 202.114C1222.67 202.704 1222.81 203.4 1222.81 204.202C1222.81 205.01 1222.67 205.711 1222.39 206.305C1222.12 206.895 1221.74 207.352 1221.25 207.677C1220.76 207.998 1220.2 208.159 1219.56 208.159C1219.07 208.159 1218.68 208.078 1218.39 207.915C1218.09 207.75 1217.86 207.562 1217.7 207.354C1217.55 207.142 1217.42 206.966 1217.34 206.827H1217.24V210.864H1216.06ZM1217.22 204.182C1217.22 204.759 1217.3 205.267 1217.47 205.708C1217.64 206.146 1217.89 206.489 1218.21 206.737C1218.54 206.982 1218.93 207.105 1219.41 207.105C1219.9 207.105 1220.3 206.976 1220.63 206.717C1220.96 206.455 1221.21 206.104 1221.38 205.663C1221.55 205.219 1221.63 204.725 1221.63 204.182C1221.63 203.645 1221.55 203.161 1221.38 202.73C1221.22 202.296 1220.97 201.953 1220.64 201.701C1220.31 201.446 1219.9 201.318 1219.41 201.318C1218.93 201.318 1218.53 201.439 1218.2 201.681C1217.88 201.92 1217.63 202.254 1217.47 202.685C1217.3 203.113 1217.22 203.612 1217.22 204.182ZM1225.77 203.406V208H1224.6V197.818H1225.77V201.557H1225.87C1226.05 201.162 1226.32 200.849 1226.67 200.617C1227.03 200.382 1227.52 200.264 1228.12 200.264C1228.64 200.264 1229.09 200.369 1229.48 200.577C1229.87 200.783 1230.18 201.099 1230.39 201.527C1230.61 201.951 1230.72 202.491 1230.72 203.148V208H1229.55V203.227C1229.55 202.621 1229.39 202.152 1229.07 201.82C1228.76 201.486 1228.33 201.318 1227.78 201.318C1227.39 201.318 1227.05 201.399 1226.74 201.562C1226.44 201.724 1226.2 201.961 1226.03 202.273C1225.85 202.584 1225.77 202.962 1225.77 203.406ZM1235.97 208.159C1235.28 208.159 1234.67 207.995 1234.15 207.667C1233.64 207.339 1233.23 206.88 1232.94 206.29C1232.65 205.7 1232.51 205.01 1232.51 204.222C1232.51 203.426 1232.65 202.732 1232.94 202.138C1233.23 201.545 1233.64 201.085 1234.15 200.756C1234.67 200.428 1235.28 200.264 1235.97 200.264C1236.66 200.264 1237.26 200.428 1237.78 200.756C1238.3 201.085 1238.7 201.545 1238.99 202.138C1239.28 202.732 1239.43 203.426 1239.43 204.222C1239.43 205.01 1239.28 205.7 1238.99 206.29C1238.7 206.88 1238.3 207.339 1237.78 207.667C1237.26 207.995 1236.66 208.159 1235.97 208.159ZM1235.97 207.105C1236.49 207.105 1236.92 206.971 1237.26 206.702C1237.6 206.434 1237.85 206.081 1238.01 205.643C1238.17 205.206 1238.26 204.732 1238.26 204.222C1238.26 203.711 1238.17 203.236 1238.01 202.795C1237.85 202.354 1237.6 201.998 1237.26 201.726C1236.92 201.454 1236.49 201.318 1235.97 201.318C1235.45 201.318 1235.01 201.454 1234.68 201.726C1234.34 201.998 1234.09 202.354 1233.93 202.795C1233.76 203.236 1233.68 203.711 1233.68 204.222C1233.68 204.732 1233.76 205.206 1233.93 205.643C1234.09 206.081 1234.34 206.434 1234.68 206.702C1235.01 206.971 1235.45 207.105 1235.97 207.105ZM1242.39 203.406V208H1241.22V200.364H1242.35V201.557H1242.45C1242.63 201.169 1242.9 200.857 1243.27 200.622C1243.63 200.384 1244.1 200.264 1244.68 200.264C1245.2 200.264 1245.65 200.37 1246.04 200.582C1246.43 200.791 1246.73 201.109 1246.94 201.537C1247.16 201.961 1247.27 202.498 1247.27 203.148V208H1246.09V203.227C1246.09 202.627 1245.94 202.16 1245.63 201.825C1245.31 201.487 1244.89 201.318 1244.34 201.318C1243.97 201.318 1243.63 201.399 1243.34 201.562C1243.05 201.724 1242.82 201.961 1242.65 202.273C1242.48 202.584 1242.39 202.962 1242.39 203.406ZM1252.61 208.159C1251.88 208.159 1251.24 207.997 1250.71 207.672C1250.18 207.344 1249.77 206.886 1249.48 206.3C1249.19 205.71 1249.05 205.024 1249.05 204.241C1249.05 203.459 1249.19 202.77 1249.48 202.173C1249.77 201.573 1250.17 201.106 1250.68 200.771C1251.2 200.433 1251.8 200.264 1252.49 200.264C1252.89 200.264 1253.28 200.33 1253.67 200.463C1254.06 200.596 1254.41 200.811 1254.73 201.109C1255.05 201.404 1255.3 201.795 1255.49 202.283C1255.68 202.77 1255.77 203.37 1255.77 204.082V204.58H1249.89V203.565H1254.58C1254.58 203.134 1254.49 202.75 1254.32 202.412C1254.15 202.074 1253.91 201.807 1253.6 201.612C1253.28 201.416 1252.92 201.318 1252.49 201.318C1252.02 201.318 1251.62 201.434 1251.28 201.666C1250.94 201.895 1250.68 202.193 1250.5 202.561C1250.32 202.929 1250.23 203.323 1250.23 203.744V204.42C1250.23 204.997 1250.32 205.486 1250.52 205.887C1250.73 206.285 1251.01 206.588 1251.36 206.797C1251.72 207.002 1252.14 207.105 1252.61 207.105C1252.92 207.105 1253.2 207.062 1253.45 206.976C1253.7 206.886 1253.92 206.754 1254.1 206.578C1254.28 206.399 1254.42 206.177 1254.52 205.912L1255.65 206.23C1255.53 206.615 1255.33 206.953 1255.05 207.244C1254.77 207.533 1254.42 207.758 1254.01 207.92C1253.59 208.08 1253.13 208.159 1252.61 208.159ZM1262.67 197.818V208H1261.5V197.818H1262.67ZM1268.02 208.159C1267.28 208.159 1266.65 207.997 1266.12 207.672C1265.59 207.344 1265.18 206.886 1264.89 206.3C1264.6 205.71 1264.46 205.024 1264.46 204.241C1264.46 203.459 1264.6 202.77 1264.89 202.173C1265.18 201.573 1265.58 201.106 1266.09 200.771C1266.61 200.433 1267.21 200.264 1267.9 200.264C1268.3 200.264 1268.69 200.33 1269.08 200.463C1269.47 200.596 1269.82 200.811 1270.14 201.109C1270.46 201.404 1270.71 201.795 1270.9 202.283C1271.09 202.77 1271.18 203.37 1271.18 204.082V204.58H1265.3V203.565H1269.99C1269.99 203.134 1269.9 202.75 1269.73 202.412C1269.56 202.074 1269.32 201.807 1269 201.612C1268.69 201.416 1268.32 201.318 1267.9 201.318C1267.43 201.318 1267.03 201.434 1266.69 201.666C1266.35 201.895 1266.09 202.193 1265.91 202.561C1265.72 202.929 1265.63 203.323 1265.63 203.744V204.42C1265.63 204.997 1265.73 205.486 1265.93 205.887C1266.13 206.285 1266.41 206.588 1266.77 206.797C1267.13 207.002 1267.55 207.105 1268.02 207.105C1268.33 207.105 1268.61 207.062 1268.85 206.976C1269.11 206.886 1269.32 206.754 1269.51 206.578C1269.69 206.399 1269.83 206.177 1269.93 205.912L1271.06 206.23C1270.94 206.615 1270.74 206.953 1270.46 207.244C1270.18 207.533 1269.83 207.758 1269.42 207.92C1269 208.08 1268.54 208.159 1268.02 208.159ZM1278.98 200.364L1276.15 208H1274.96L1272.14 200.364H1273.41L1275.52 206.449H1275.6L1277.71 200.364H1278.98ZM1283.46 208.159C1282.72 208.159 1282.08 207.997 1281.55 207.672C1281.02 207.344 1280.61 206.886 1280.32 206.3C1280.04 205.71 1279.9 205.024 1279.9 204.241C1279.9 203.459 1280.04 202.77 1280.32 202.173C1280.61 201.573 1281.01 201.106 1281.53 200.771C1282.04 200.433 1282.65 200.264 1283.34 200.264C1283.73 200.264 1284.13 200.33 1284.51 200.463C1284.9 200.596 1285.25 200.811 1285.57 201.109C1285.89 201.404 1286.14 201.795 1286.33 202.283C1286.52 202.77 1286.62 203.37 1286.62 204.082V204.58H1280.73V203.565H1285.42C1285.42 203.134 1285.34 202.75 1285.17 202.412C1285 202.074 1284.75 201.807 1284.44 201.612C1284.13 201.416 1283.76 201.318 1283.34 201.318C1282.87 201.318 1282.46 201.434 1282.12 201.666C1281.78 201.895 1281.52 202.193 1281.34 202.561C1281.16 202.929 1281.07 203.323 1281.07 203.744V204.42C1281.07 204.997 1281.17 205.486 1281.37 205.887C1281.57 206.285 1281.85 206.588 1282.21 206.797C1282.57 207.002 1282.98 207.105 1283.46 207.105C1283.76 207.105 1284.04 207.062 1284.29 206.976C1284.54 206.886 1284.76 206.754 1284.94 206.578C1285.12 206.399 1285.26 206.177 1285.36 205.912L1286.5 206.23C1286.38 206.615 1286.18 206.953 1285.9 207.244C1285.61 207.533 1285.27 207.758 1284.85 207.92C1284.44 208.08 1283.97 208.159 1283.46 208.159ZM1289.58 197.818V208H1288.4V197.818H1289.58Z" fill="#1F2A37"/>
<circle cx="1316" cy="203.5" r="4" fill="#4EB5A3"/>
<circle cx="1328" cy="203.5" r="4" fill="#4EB5A3"/>
<circle cx="1340" cy="203.5" r="4" fill="#4EB5A3"/>
<circle cx="1352" cy="203.5" r="4" fill="#4EB5A3"/>
<circle cx="1364" cy="203.5" r="4" fill="#4EB5A3"/>
<circle cx="1376" cy="203.5" r="4" fill="#D9D9D9"/>
<circle cx="1388" cy="203.5" r="4" fill="#D9D9D9"/>
<circle cx="1400" cy="203.5" r="4" fill="#D9D9D9"/>
</g>
<path d="M626.694 397V379.545H633.24C634.581 379.545 635.706 379.778 636.615 380.244C637.529 380.71 638.22 381.364 638.686 382.205C639.157 383.04 639.393 384.014 639.393 385.128C639.393 386.247 639.154 387.219 638.677 388.043C638.206 388.861 637.51 389.494 636.589 389.943C635.669 390.386 634.538 390.608 633.197 390.608H628.535V387.983H632.771C633.555 387.983 634.197 387.875 634.697 387.659C635.197 387.437 635.566 387.116 635.805 386.696C636.049 386.27 636.172 385.747 636.172 385.128C636.172 384.509 636.049 383.98 635.805 383.543C635.561 383.099 635.189 382.764 634.689 382.537C634.189 382.304 633.544 382.188 632.754 382.188H629.856V397H626.694ZM635.711 389.091L640.032 397H636.504L632.26 389.091H635.711ZM647.775 397.256C646.463 397.256 645.329 396.983 644.375 396.438C643.426 395.886 642.696 395.108 642.184 394.102C641.673 393.091 641.417 391.901 641.417 390.531C641.417 389.185 641.673 388.003 642.184 386.986C642.701 385.963 643.423 385.168 644.349 384.599C645.275 384.026 646.363 383.739 647.613 383.739C648.42 383.739 649.181 383.869 649.897 384.131C650.619 384.386 651.255 384.784 651.806 385.324C652.363 385.864 652.801 386.551 653.119 387.386C653.437 388.216 653.596 389.205 653.596 390.352V391.298H642.866V389.219H650.639C650.633 388.628 650.505 388.102 650.255 387.642C650.005 387.176 649.656 386.81 649.207 386.543C648.764 386.276 648.247 386.142 647.656 386.142C647.025 386.142 646.471 386.295 645.994 386.602C645.517 386.903 645.145 387.301 644.877 387.795C644.616 388.284 644.483 388.821 644.477 389.406V391.222C644.477 391.983 644.616 392.636 644.895 393.182C645.173 393.722 645.562 394.136 646.062 394.426C646.562 394.71 647.147 394.852 647.818 394.852C648.267 394.852 648.673 394.79 649.037 394.665C649.4 394.534 649.716 394.344 649.983 394.094C650.25 393.844 650.451 393.534 650.588 393.165L653.468 393.489C653.287 394.25 652.94 394.915 652.429 395.483C651.923 396.045 651.275 396.483 650.485 396.795C649.696 397.102 648.792 397.256 647.775 397.256ZM659.973 397.264C659.144 397.264 658.397 397.116 657.732 396.821C657.073 396.52 656.55 396.077 656.164 395.491C655.783 394.906 655.593 394.185 655.593 393.327C655.593 392.588 655.729 391.977 656.002 391.494C656.275 391.011 656.647 390.625 657.118 390.335C657.59 390.045 658.121 389.827 658.712 389.679C659.309 389.526 659.925 389.415 660.561 389.347C661.328 389.267 661.951 389.196 662.428 389.134C662.905 389.065 663.252 388.963 663.468 388.827C663.689 388.685 663.8 388.466 663.8 388.17V388.119C663.8 387.477 663.61 386.98 663.229 386.628C662.848 386.276 662.3 386.099 661.584 386.099C660.828 386.099 660.229 386.264 659.786 386.594C659.348 386.923 659.053 387.312 658.9 387.761L656.019 387.352C656.246 386.557 656.621 385.892 657.144 385.358C657.667 384.818 658.306 384.415 659.061 384.148C659.817 383.875 660.652 383.739 661.567 383.739C662.198 383.739 662.826 383.812 663.451 383.96C664.076 384.108 664.647 384.352 665.164 384.693C665.681 385.028 666.096 385.486 666.408 386.065C666.726 386.645 666.885 387.369 666.885 388.239V397H663.919V395.202H663.817C663.63 395.565 663.365 395.906 663.025 396.224C662.689 396.537 662.266 396.79 661.755 396.983C661.249 397.17 660.655 397.264 659.973 397.264ZM660.775 394.997C661.394 394.997 661.931 394.875 662.385 394.631C662.84 394.381 663.189 394.051 663.434 393.642C663.684 393.233 663.809 392.787 663.809 392.304V390.761C663.712 390.841 663.547 390.915 663.314 390.983C663.087 391.051 662.831 391.111 662.547 391.162C662.263 391.213 661.982 391.259 661.703 391.298C661.425 391.338 661.184 391.372 660.979 391.401C660.519 391.463 660.107 391.565 659.743 391.707C659.38 391.849 659.093 392.048 658.882 392.304C658.672 392.554 658.567 392.878 658.567 393.276C658.567 393.844 658.775 394.273 659.189 394.562C659.604 394.852 660.132 394.997 660.775 394.997ZM674.846 397.23C673.817 397.23 672.897 396.966 672.084 396.438C671.272 395.909 670.63 395.142 670.158 394.136C669.686 393.131 669.451 391.909 669.451 390.472C669.451 389.017 669.689 387.79 670.167 386.79C670.65 385.784 671.3 385.026 672.118 384.514C672.936 383.997 673.848 383.739 674.854 383.739C675.621 383.739 676.252 383.869 676.746 384.131C677.24 384.386 677.632 384.696 677.922 385.06C678.212 385.418 678.436 385.756 678.596 386.074H678.723V379.545H681.817V397H678.783V394.938H678.596C678.436 395.256 678.206 395.594 677.905 395.952C677.604 396.304 677.206 396.605 676.712 396.855C676.218 397.105 675.596 397.23 674.846 397.23ZM675.706 394.699C676.36 394.699 676.917 394.523 677.377 394.17C677.837 393.812 678.186 393.315 678.425 392.679C678.664 392.043 678.783 391.301 678.783 390.455C678.783 389.608 678.664 388.872 678.425 388.247C678.192 387.622 677.846 387.136 677.385 386.79C676.931 386.443 676.371 386.27 675.706 386.27C675.019 386.27 674.445 386.449 673.985 386.807C673.525 387.165 673.178 387.659 672.945 388.29C672.712 388.92 672.596 389.642 672.596 390.455C672.596 391.273 672.712 392.003 672.945 392.645C673.184 393.281 673.533 393.784 673.993 394.153C674.459 394.517 675.03 394.699 675.706 394.699ZM687.022 401.909C686.602 401.909 686.213 401.875 685.855 401.807C685.502 401.744 685.221 401.67 685.011 401.585L685.727 399.182C686.176 399.313 686.576 399.375 686.929 399.369C687.281 399.364 687.591 399.253 687.858 399.037C688.13 398.827 688.36 398.474 688.548 397.98L688.812 397.273L684.065 383.909H687.338L690.355 393.795H690.491L693.517 383.909H696.798L691.556 398.585C691.312 399.278 690.988 399.872 690.585 400.366C690.181 400.866 689.687 401.247 689.102 401.509C688.522 401.776 687.829 401.909 687.022 401.909ZM711.423 383.909V386.295H703.897V383.909H711.423ZM705.755 380.773H708.841V393.062C708.841 393.477 708.903 393.795 709.028 394.017C709.159 394.233 709.329 394.381 709.539 394.46C709.75 394.54 709.983 394.58 710.238 394.58C710.431 394.58 710.608 394.565 710.767 394.537C710.931 394.509 711.056 394.483 711.142 394.46L711.662 396.872C711.497 396.929 711.261 396.991 710.954 397.06C710.653 397.128 710.284 397.168 709.846 397.179C709.074 397.202 708.377 397.085 707.758 396.83C707.139 396.568 706.647 396.165 706.284 395.619C705.926 395.074 705.75 394.392 705.755 393.574V380.773ZM719.573 397.256C718.294 397.256 717.186 396.974 716.249 396.412C715.311 395.849 714.584 395.062 714.067 394.051C713.556 393.04 713.3 391.858 713.3 390.506C713.3 389.153 713.556 387.969 714.067 386.952C714.584 385.935 715.311 385.145 716.249 384.582C717.186 384.02 718.294 383.739 719.573 383.739C720.851 383.739 721.959 384.02 722.897 384.582C723.834 385.145 724.559 385.935 725.07 386.952C725.587 387.969 725.846 389.153 725.846 390.506C725.846 391.858 725.587 393.04 725.07 394.051C724.559 395.062 723.834 395.849 722.897 396.412C721.959 396.974 720.851 397.256 719.573 397.256ZM719.59 394.784C720.283 394.784 720.863 394.594 721.328 394.213C721.794 393.827 722.141 393.31 722.368 392.662C722.601 392.014 722.718 391.293 722.718 390.497C722.718 389.696 722.601 388.972 722.368 388.324C722.141 387.67 721.794 387.151 721.328 386.764C720.863 386.378 720.283 386.185 719.59 386.185C718.88 386.185 718.289 386.378 717.817 386.764C717.351 387.151 717.002 387.67 716.769 388.324C716.542 388.972 716.428 389.696 716.428 390.497C716.428 391.293 716.542 392.014 716.769 392.662C717.002 393.31 717.351 393.827 717.817 394.213C718.289 394.594 718.88 394.784 719.59 394.784ZM734.554 397V379.545H741.099C742.44 379.545 743.565 379.778 744.474 380.244C745.389 380.71 746.079 381.364 746.545 382.205C747.017 383.04 747.252 384.014 747.252 385.128C747.252 386.247 747.014 387.219 746.537 388.043C746.065 388.861 745.369 389.494 744.449 389.943C743.528 390.386 742.397 390.608 741.056 390.608H736.395V387.983H740.63C741.414 387.983 742.056 387.875 742.556 387.659C743.056 387.437 743.426 387.116 743.664 386.696C743.909 386.27 744.031 385.747 744.031 385.128C744.031 384.509 743.909 383.98 743.664 383.543C743.42 383.099 743.048 382.764 742.548 382.537C742.048 382.304 741.403 382.188 740.613 382.188H737.716V397H734.554ZM743.571 389.091L747.892 397H744.363L740.119 389.091H743.571ZM755.635 397.256C754.322 397.256 753.189 396.983 752.234 396.438C751.285 395.886 750.555 395.108 750.044 394.102C749.532 393.091 749.277 391.901 749.277 390.531C749.277 389.185 749.532 388.003 750.044 386.986C750.561 385.963 751.282 385.168 752.208 384.599C753.135 384.026 754.223 383.739 755.473 383.739C756.279 383.739 757.041 383.869 757.757 384.131C758.478 384.386 759.115 384.784 759.666 385.324C760.223 385.864 760.66 386.551 760.978 387.386C761.297 388.216 761.456 389.205 761.456 390.352V391.298H750.725V389.219H758.498C758.493 388.628 758.365 388.102 758.115 387.642C757.865 387.176 757.515 386.81 757.066 386.543C756.623 386.276 756.106 386.142 755.515 386.142C754.885 386.142 754.331 386.295 753.853 386.602C753.376 386.903 753.004 387.301 752.737 387.795C752.475 388.284 752.342 388.821 752.336 389.406V391.222C752.336 391.983 752.475 392.636 752.754 393.182C753.032 393.722 753.422 394.136 753.922 394.426C754.422 394.71 755.007 394.852 755.677 394.852C756.126 394.852 756.532 394.79 756.896 394.665C757.26 394.534 757.575 394.344 757.842 394.094C758.109 393.844 758.311 393.534 758.447 393.165L761.328 393.489C761.146 394.25 760.799 394.915 760.288 395.483C759.782 396.045 759.135 396.483 758.345 396.795C757.555 397.102 756.652 397.256 755.635 397.256ZM769.776 397.256C768.469 397.256 767.347 396.969 766.409 396.395C765.478 395.821 764.759 395.028 764.253 394.017C763.753 393 763.503 391.83 763.503 390.506C763.503 389.176 763.759 388.003 764.27 386.986C764.782 385.963 765.503 385.168 766.435 384.599C767.373 384.026 768.48 383.739 769.759 383.739C770.821 383.739 771.762 383.935 772.58 384.327C773.404 384.713 774.06 385.261 774.549 385.972C775.037 386.676 775.316 387.5 775.384 388.443H772.435C772.316 387.812 772.032 387.287 771.583 386.866C771.14 386.44 770.546 386.227 769.801 386.227C769.171 386.227 768.617 386.398 768.14 386.739C767.662 387.074 767.29 387.557 767.023 388.188C766.762 388.818 766.631 389.574 766.631 390.455C766.631 391.347 766.762 392.114 767.023 392.756C767.284 393.392 767.651 393.884 768.123 394.23C768.6 394.571 769.159 394.741 769.801 394.741C770.256 394.741 770.662 394.656 771.02 394.486C771.384 394.31 771.688 394.057 771.932 393.727C772.176 393.398 772.344 392.997 772.435 392.526H775.384C775.31 393.452 775.037 394.273 774.566 394.989C774.094 395.699 773.452 396.256 772.64 396.659C771.827 397.057 770.873 397.256 769.776 397.256ZM783.627 397.256C782.349 397.256 781.241 396.974 780.304 396.412C779.366 395.849 778.639 395.062 778.122 394.051C777.61 393.04 777.355 391.858 777.355 390.506C777.355 389.153 777.61 387.969 778.122 386.952C778.639 385.935 779.366 385.145 780.304 384.582C781.241 384.02 782.349 383.739 783.627 383.739C784.906 383.739 786.014 384.02 786.951 384.582C787.889 385.145 788.613 385.935 789.125 386.952C789.642 387.969 789.9 389.153 789.9 390.506C789.9 391.858 789.642 393.04 789.125 394.051C788.613 395.062 787.889 395.849 786.951 396.412C786.014 396.974 784.906 397.256 783.627 397.256ZM783.645 394.784C784.338 394.784 784.917 394.594 785.383 394.213C785.849 393.827 786.196 393.31 786.423 392.662C786.656 392.014 786.772 391.293 786.772 390.497C786.772 389.696 786.656 388.972 786.423 388.324C786.196 387.67 785.849 387.151 785.383 386.764C784.917 386.378 784.338 386.185 783.645 386.185C782.934 386.185 782.343 386.378 781.872 386.764C781.406 387.151 781.056 387.67 780.824 388.324C780.596 388.972 780.483 389.696 780.483 390.497C780.483 391.293 780.596 392.014 780.824 392.662C781.056 393.31 781.406 393.827 781.872 394.213C782.343 394.594 782.934 394.784 783.645 394.784ZM792.519 397V383.909H795.51V386.091H795.647C795.885 385.335 796.294 384.753 796.874 384.344C797.459 383.929 798.127 383.722 798.877 383.722C799.047 383.722 799.238 383.73 799.448 383.747C799.664 383.759 799.843 383.778 799.985 383.807V386.645C799.854 386.599 799.647 386.56 799.363 386.526C799.084 386.486 798.814 386.466 798.553 386.466C797.99 386.466 797.485 386.588 797.036 386.832C796.593 387.071 796.243 387.403 795.988 387.83C795.732 388.256 795.604 388.747 795.604 389.304V397H792.519ZM806.353 397.23C805.325 397.23 804.404 396.966 803.592 396.438C802.779 395.909 802.137 395.142 801.666 394.136C801.194 393.131 800.958 391.909 800.958 390.472C800.958 389.017 801.197 387.79 801.674 386.79C802.157 385.784 802.808 385.026 803.626 384.514C804.444 383.997 805.356 383.739 806.362 383.739C807.129 383.739 807.76 383.869 808.254 384.131C808.748 384.386 809.14 384.696 809.43 385.06C809.72 385.418 809.944 385.756 810.103 386.074H810.231V379.545H813.325V397H810.291V394.938H810.103C809.944 395.256 809.714 395.594 809.413 395.952C809.112 396.304 808.714 396.605 808.22 396.855C807.725 397.105 807.103 397.23 806.353 397.23ZM807.214 394.699C807.868 394.699 808.424 394.523 808.885 394.17C809.345 393.812 809.694 393.315 809.933 392.679C810.172 392.043 810.291 391.301 810.291 390.455C810.291 389.608 810.172 388.872 809.933 388.247C809.7 387.622 809.353 387.136 808.893 386.79C808.439 386.443 807.879 386.27 807.214 386.27C806.527 386.27 805.953 386.449 805.493 386.807C805.032 387.165 804.686 387.659 804.453 388.29C804.22 388.92 804.103 389.642 804.103 390.455C804.103 391.273 804.22 392.003 804.453 392.645C804.691 393.281 805.041 393.784 805.501 394.153C805.967 394.517 806.538 394.699 807.214 394.699Z" fill="#6B7280"/>
<path d="M579.055 502.997C574.845 502.997 571.232 501.932 568.214 499.801C565.214 497.653 562.905 494.56 561.286 490.52C559.683 486.463 558.882 481.58 558.882 475.869C558.899 470.159 559.709 465.301 561.311 461.295C562.93 457.273 565.24 454.205 568.24 452.091C571.257 449.977 574.862 448.92 579.055 448.92C583.249 448.92 586.854 449.977 589.871 452.091C592.888 454.205 595.197 457.273 596.8 461.295C598.419 465.318 599.229 470.176 599.229 475.869C599.229 481.597 598.419 486.489 596.8 490.545C595.197 494.585 592.888 497.67 589.871 499.801C586.871 501.932 583.266 502.997 579.055 502.997ZM579.055 494.994C582.328 494.994 584.911 493.384 586.803 490.162C588.712 486.923 589.666 482.159 589.666 475.869C589.666 471.71 589.232 468.216 588.362 465.386C587.493 462.557 586.266 460.426 584.68 458.994C583.095 457.545 581.22 456.821 579.055 456.821C575.8 456.821 573.226 458.44 571.334 461.679C569.442 464.901 568.487 469.631 568.47 475.869C568.453 480.045 568.871 483.557 569.723 486.403C570.592 489.25 571.82 491.398 573.405 492.847C574.99 494.278 576.874 494.994 579.055 494.994ZM627.079 502.997C622.869 502.997 619.255 501.932 616.238 499.801C613.238 497.653 610.928 494.56 609.309 490.52C607.707 486.463 606.906 481.58 606.906 475.869C606.923 470.159 607.732 465.301 609.335 461.295C610.954 457.273 613.263 454.205 616.263 452.091C619.281 449.977 622.886 448.92 627.079 448.92C631.272 448.92 634.877 449.977 637.894 452.091C640.911 454.205 643.221 457.273 644.823 461.295C646.442 465.318 647.252 470.176 647.252 475.869C647.252 481.597 646.442 486.489 644.823 490.545C643.221 494.585 640.911 497.67 637.894 499.801C634.894 501.932 631.289 502.997 627.079 502.997ZM627.079 494.994C630.352 494.994 632.934 493.384 634.826 490.162C636.735 486.923 637.69 482.159 637.69 475.869C637.69 471.71 637.255 468.216 636.386 465.386C635.516 462.557 634.289 460.426 632.704 458.994C631.119 457.545 629.244 456.821 627.079 456.821C623.823 456.821 621.249 458.44 619.357 461.679C617.465 464.901 616.511 469.631 616.494 475.869C616.477 480.045 616.894 483.557 617.746 486.403C618.616 489.25 619.843 491.398 621.428 492.847C623.013 494.278 624.897 494.994 627.079 494.994ZM661.551 495.71C660 495.71 658.67 495.165 657.562 494.074C656.455 492.966 655.909 491.636 655.926 490.085C655.909 488.551 656.455 487.239 657.562 486.148C658.67 485.057 660 484.511 661.551 484.511C663.051 484.511 664.355 485.057 665.463 486.148C666.588 487.239 667.159 488.551 667.176 490.085C667.159 491.125 666.886 492.071 666.358 492.923C665.847 493.776 665.165 494.457 664.312 494.969C663.477 495.463 662.557 495.71 661.551 495.71ZM661.551 469.759C660 469.759 658.67 469.213 657.562 468.122C656.455 467.014 655.909 465.685 655.926 464.134C655.909 462.599 656.455 461.287 657.562 460.196C658.67 459.088 660 458.534 661.551 458.534C663.051 458.534 664.355 459.088 665.463 460.196C666.588 461.287 667.159 462.599 667.176 464.134C667.159 465.156 666.886 466.094 666.358 466.946C665.847 467.798 665.165 468.48 664.312 468.991C663.477 469.503 662.557 469.759 661.551 469.759ZM695.985 502.997C691.775 502.997 688.161 501.932 685.144 499.801C682.144 497.653 679.835 494.56 678.215 490.52C676.613 486.463 675.812 481.58 675.812 475.869C675.829 470.159 676.638 465.301 678.241 461.295C679.86 457.273 682.17 454.205 685.17 452.091C688.187 449.977 691.792 448.92 695.985 448.92C700.178 448.92 703.783 449.977 706.8 452.091C709.817 454.205 712.127 457.273 713.729 461.295C715.349 465.318 716.158 470.176 716.158 475.869C716.158 481.597 715.349 486.489 713.729 490.545C712.127 494.585 709.817 497.67 706.8 499.801C703.8 501.932 700.195 502.997 695.985 502.997ZM695.985 494.994C699.258 494.994 701.84 493.384 703.732 490.162C705.641 486.923 706.596 482.159 706.596 475.869C706.596 471.71 706.161 468.216 705.292 465.386C704.423 462.557 703.195 460.426 701.61 458.994C700.025 457.545 698.15 456.821 695.985 456.821C692.729 456.821 690.156 458.44 688.263 461.679C686.371 464.901 685.417 469.631 685.4 475.869C685.383 480.045 685.8 483.557 686.653 486.403C687.522 489.25 688.749 491.398 690.335 492.847C691.92 494.278 693.803 494.994 695.985 494.994ZM744.009 502.997C739.798 502.997 736.185 501.932 733.168 499.801C730.168 497.653 727.858 494.56 726.239 490.52C724.636 486.463 723.835 481.58 723.835 475.869C723.852 470.159 724.662 465.301 726.264 461.295C727.884 457.273 730.193 454.205 733.193 452.091C736.21 449.977 739.815 448.92 744.009 448.92C748.202 448.92 751.807 449.977 754.824 452.091C757.841 454.205 760.151 457.273 761.753 461.295C763.372 465.318 764.182 470.176 764.182 475.869C764.182 481.597 763.372 486.489 761.753 490.545C760.151 494.585 757.841 497.67 754.824 499.801C751.824 501.932 748.219 502.997 744.009 502.997ZM744.009 494.994C747.281 494.994 749.864 493.384 751.756 490.162C753.665 486.923 754.619 482.159 754.619 475.869C754.619 471.71 754.185 468.216 753.315 465.386C752.446 462.557 751.219 460.426 749.634 458.994C748.048 457.545 746.173 456.821 744.009 456.821C740.753 456.821 738.179 458.44 736.287 461.679C734.395 464.901 733.44 469.631 733.423 475.869C733.406 480.045 733.824 483.557 734.676 486.403C735.545 489.25 736.773 491.398 738.358 492.847C739.943 494.278 741.827 494.994 744.009 494.994ZM778.481 495.71C776.93 495.71 775.6 495.165 774.492 494.074C773.384 492.966 772.839 491.636 772.856 490.085C772.839 488.551 773.384 487.239 774.492 486.148C775.6 485.057 776.93 484.511 778.481 484.511C779.981 484.511 781.285 485.057 782.393 486.148C783.518 487.239 784.089 488.551 784.106 490.085C784.089 491.125 783.816 492.071 783.288 492.923C782.776 493.776 782.094 494.457 781.242 494.969C780.407 495.463 779.487 495.71 778.481 495.71ZM778.481 469.759C776.93 469.759 775.6 469.213 774.492 468.122C773.384 467.014 772.839 465.685 772.856 464.134C772.839 462.599 773.384 461.287 774.492 460.196C775.6 459.088 776.93 458.534 778.481 458.534C779.981 458.534 781.285 459.088 782.393 460.196C783.518 461.287 784.089 462.599 784.106 464.134C784.089 465.156 783.816 466.094 783.288 466.946C782.776 467.798 782.094 468.48 781.242 468.991C780.407 469.503 779.487 469.759 778.481 469.759ZM812.915 502.997C808.705 502.997 805.091 501.932 802.074 499.801C799.074 497.653 796.764 494.56 795.145 490.52C793.543 486.463 792.741 481.58 792.741 475.869C792.759 470.159 793.568 465.301 795.17 461.295C796.79 457.273 799.099 454.205 802.099 452.091C805.116 449.977 808.722 448.92 812.915 448.92C817.108 448.92 820.713 449.977 823.73 452.091C826.747 454.205 829.057 457.273 830.659 461.295C832.278 465.318 833.088 470.176 833.088 475.869C833.088 481.597 832.278 486.489 830.659 490.545C829.057 494.585 826.747 497.67 823.73 499.801C820.73 501.932 817.125 502.997 812.915 502.997ZM812.915 494.994C816.188 494.994 818.77 493.384 820.662 490.162C822.571 486.923 823.526 482.159 823.526 475.869C823.526 471.71 823.091 468.216 822.222 465.386C821.352 462.557 820.125 460.426 818.54 458.994C816.955 457.545 815.08 456.821 812.915 456.821C809.659 456.821 807.085 458.44 805.193 461.679C803.301 464.901 802.347 469.631 802.33 475.869C802.313 480.045 802.73 483.557 803.582 486.403C804.452 489.25 805.679 491.398 807.264 492.847C808.849 494.278 810.733 494.994 812.915 494.994ZM860.938 502.997C856.728 502.997 853.114 501.932 850.097 499.801C847.097 497.653 844.788 494.56 843.168 490.52C841.566 486.463 840.765 481.58 840.765 475.869C840.782 470.159 841.592 465.301 843.194 461.295C844.813 457.273 847.123 454.205 850.123 452.091C853.14 449.977 856.745 448.92 860.938 448.92C865.131 448.92 868.737 449.977 871.754 452.091C874.771 454.205 877.08 457.273 878.683 461.295C880.302 465.318 881.112 470.176 881.112 475.869C881.112 481.597 880.302 486.489 878.683 490.545C877.08 494.585 874.771 497.67 871.754 499.801C868.754 501.932 865.148 502.997 860.938 502.997ZM860.938 494.994C864.211 494.994 866.793 493.384 868.685 490.162C870.594 486.923 871.549 482.159 871.549 475.869C871.549 471.71 871.114 468.216 870.245 465.386C869.376 462.557 868.148 460.426 866.563 458.994C864.978 457.545 863.103 456.821 860.938 456.821C857.683 456.821 855.109 458.44 853.217 461.679C851.325 464.901 850.37 469.631 850.353 475.869C850.336 480.045 850.754 483.557 851.606 486.403C852.475 489.25 853.702 491.398 855.288 492.847C856.873 494.278 858.756 494.994 860.938 494.994Z" fill="#6B7280"/>
<g clip-path="url(#clip2_738_3219)">
<g filter="url(#filter1_dd_738_3219)">
<circle cx="720" cy="622" r="56" fill="white"/>
<circle cx="720" cy="622" r="55.5" stroke="#6B7280"/>
</g>
<circle cx="721" cy="622" r="41" fill="#FF7B7B"/>
<g opacity="0.2">
<circle cx="821" cy="595" r="29" fill="#D1D5DB"/>
<path d="M814.6 583.5H816.2C817.722 583.5 818.9 584.649 818.9 586V604C818.9 605.351 817.722 606.5 816.2 606.5H814.6C813.078 606.5 811.9 605.351 811.9 604V586C811.9 584.649 813.078 583.5 814.6 583.5ZM825.8 583.5H827.4C828.922 583.5 830.1 584.649 830.1 586V604C830.1 605.351 828.922 606.5 827.4 606.5H825.8C824.278 606.5 823.1 605.351 823.1 604V586C823.1 584.649 824.278 583.5 825.8 583.5Z" fill="#6B7280" stroke="#374151"/>
</g>
</g>
<rect width="1439" height="64" transform="translate(1 75)" fill="#F3F4F6"/>
<path d="M25.7926 102.109V100.409H35.924V102.109H31.8395V113.5H29.8707V102.109H25.7926ZM42.8929 109.428V103.682H44.8105V113.5H42.9313V111.8H42.829C42.6032 112.324 42.2409 112.761 41.7424 113.11C41.248 113.455 40.6323 113.628 39.8951 113.628C39.2644 113.628 38.7061 113.489 38.2203 113.212C37.7388 112.931 37.3596 112.516 37.0826 111.966C36.8098 111.416 36.6735 110.737 36.6735 109.927V103.682H38.5847V109.697C38.5847 110.366 38.7701 110.898 39.1408 111.295C39.5115 111.691 39.9931 111.889 40.5854 111.889C40.9434 111.889 41.2992 111.8 41.6529 111.621C42.0108 111.442 42.307 111.171 42.5414 110.809C42.78 110.447 42.8972 109.987 42.8929 109.428ZM51.6101 113.698C50.6428 113.698 49.8097 113.491 49.1108 113.078C48.4162 112.661 47.8793 112.075 47.5 111.32C47.125 110.562 46.9375 109.673 46.9375 108.655C46.9375 107.649 47.125 106.763 47.5 105.996C47.8793 105.229 48.4077 104.63 49.0852 104.2C49.767 103.769 50.5639 103.554 51.4759 103.554C52.0298 103.554 52.5668 103.646 53.0866 103.829C53.6065 104.012 54.0732 104.3 54.4865 104.692C54.8999 105.084 55.2259 105.593 55.4645 106.219C55.7031 106.842 55.8224 107.598 55.8224 108.489V109.166H48.0178V107.734H53.9496C53.9496 107.232 53.8473 106.786 53.6428 106.398C53.4382 106.006 53.1506 105.697 52.7798 105.472C52.4134 105.246 51.983 105.133 51.4886 105.133C50.9517 105.133 50.483 105.265 50.0824 105.529C49.6861 105.789 49.3793 106.13 49.1619 106.552C48.9489 106.969 48.8423 107.423 48.8423 107.913V109.032C48.8423 109.688 48.9574 110.246 49.1875 110.707C49.4219 111.167 49.7479 111.518 50.1655 111.761C50.5831 112 51.071 112.119 51.6293 112.119C51.9915 112.119 52.3217 112.068 52.62 111.966C52.9183 111.859 53.1761 111.702 53.3935 111.493C53.6108 111.284 53.777 111.026 53.892 110.719L55.701 111.045C55.5561 111.578 55.2962 112.045 54.9212 112.445C54.5504 112.842 54.0838 113.151 53.5213 113.372C52.9631 113.589 52.326 113.698 51.6101 113.698ZM62.8601 100.409H65.2571L69.4247 110.585H69.5781L73.7457 100.409H76.1428V113.5H74.2635V104.027H74.142L70.2812 113.481H68.7216L64.8608 104.021H64.7393V113.5H62.8601V100.409ZM81.7182 113.717C81.0961 113.717 80.5336 113.602 80.0307 113.372C79.5279 113.138 79.1294 112.799 78.8354 112.356C78.5456 111.913 78.4007 111.369 78.4007 110.726C78.4007 110.172 78.5073 109.716 78.7203 109.358C78.9334 109 79.2211 108.717 79.5833 108.508C79.9455 108.299 80.3503 108.141 80.7978 108.035C81.2452 107.928 81.7012 107.847 82.1657 107.792C82.7537 107.724 83.231 107.668 83.5975 107.626C83.964 107.579 84.2303 107.504 84.3965 107.402C84.5627 107.3 84.6458 107.134 84.6458 106.903V106.859C84.6458 106.3 84.4881 105.868 84.1728 105.561C83.8617 105.254 83.3972 105.101 82.7793 105.101C82.1358 105.101 81.6287 105.244 81.258 105.529C80.8915 105.81 80.638 106.124 80.4973 106.469L78.7012 106.06C78.9142 105.463 79.2253 104.982 79.6344 104.615C80.0478 104.244 80.5229 103.976 81.0598 103.81C81.5968 103.639 82.1614 103.554 82.7537 103.554C83.1458 103.554 83.5613 103.601 84.0002 103.695C84.4434 103.784 84.8567 103.95 85.2402 104.193C85.628 104.436 85.9455 104.783 86.1926 105.235C86.4398 105.683 86.5634 106.264 86.5634 106.98V113.5H84.6969V112.158H84.6202C84.4966 112.405 84.3113 112.648 84.0641 112.886C83.8169 113.125 83.4995 113.323 83.1117 113.481C82.7239 113.638 82.2594 113.717 81.7182 113.717ZM82.1337 112.183C82.6621 112.183 83.1138 112.079 83.4888 111.87C83.8681 111.661 84.1557 111.388 84.3517 111.052C84.552 110.711 84.6522 110.347 84.6522 109.959V108.693C84.584 108.761 84.4519 108.825 84.2559 108.885C84.0641 108.94 83.8446 108.989 83.5975 109.032C83.3503 109.07 83.1096 109.107 82.8752 109.141C82.6408 109.17 82.4448 109.196 82.2871 109.217C81.9164 109.264 81.5776 109.343 81.2708 109.454C80.9682 109.565 80.7253 109.724 80.5421 109.933C80.3631 110.138 80.2736 110.411 80.2736 110.751C80.2736 111.224 80.4483 111.582 80.7978 111.825C81.1472 112.064 81.5925 112.183 82.1337 112.183ZM89.9656 117.182C89.68 117.182 89.4201 117.158 89.1857 117.112C88.9513 117.069 88.7766 117.022 88.6616 116.971L89.1218 115.405C89.4712 115.499 89.7823 115.539 90.055 115.526C90.3278 115.513 90.5685 115.411 90.7773 115.219C90.9904 115.028 91.1779 114.714 91.3398 114.28L91.5763 113.628L87.984 103.682H90.0295L92.516 111.301H92.6183L95.1048 103.682H97.1566L93.1104 114.81C92.9229 115.322 92.6843 115.754 92.3945 116.108C92.1048 116.466 91.7596 116.734 91.359 116.913C90.9585 117.092 90.494 117.182 89.9656 117.182ZM104.132 113.5L109.846 102.199V102.103H103.237V100.409H111.892V102.161L106.197 113.5H104.132ZM114.377 111.71L114.281 112.407C114.217 112.918 114.108 113.451 113.955 114.005C113.806 114.563 113.65 115.081 113.488 115.558C113.331 116.036 113.201 116.415 113.098 116.696H111.743C111.799 116.432 111.875 116.074 111.973 115.622C112.071 115.175 112.167 114.674 112.261 114.12C112.355 113.566 112.425 113.001 112.472 112.426L112.536 111.71H114.377ZM121.603 113.5V112.068L126.033 107.479C126.506 106.98 126.896 106.543 127.202 106.168C127.513 105.789 127.746 105.429 127.899 105.088C128.053 104.747 128.129 104.385 128.129 104.001C128.129 103.567 128.027 103.192 127.822 102.876C127.618 102.557 127.339 102.312 126.985 102.141C126.631 101.967 126.233 101.879 125.79 101.879C125.321 101.879 124.912 101.975 124.562 102.167C124.213 102.359 123.945 102.629 123.757 102.979C123.57 103.328 123.476 103.737 123.476 104.206H121.59C121.59 103.409 121.773 102.712 122.14 102.116C122.506 101.519 123.009 101.057 123.648 100.729C124.288 100.396 125.014 100.23 125.828 100.23C126.651 100.23 127.375 100.394 128.001 100.722C128.632 101.046 129.124 101.489 129.478 102.052C129.832 102.61 130.009 103.241 130.009 103.944C130.009 104.43 129.917 104.905 129.734 105.369C129.555 105.834 129.241 106.352 128.794 106.923C128.347 107.489 127.724 108.178 126.928 108.987L124.326 111.71V111.806H130.219V113.5H121.603ZM137.2 113.717C136.19 113.713 135.327 113.447 134.611 112.918C133.895 112.39 133.347 111.621 132.968 110.611C132.589 109.601 132.399 108.384 132.399 106.961C132.399 105.542 132.589 104.33 132.968 103.324C133.352 102.318 133.901 101.551 134.617 101.023C135.337 100.494 136.198 100.23 137.2 100.23C138.201 100.23 139.06 100.496 139.776 101.029C140.491 101.558 141.039 102.325 141.418 103.33C141.802 104.332 141.994 105.542 141.994 106.961C141.994 108.388 141.804 109.607 141.425 110.617C141.045 111.623 140.498 112.392 139.782 112.925C139.066 113.453 138.205 113.717 137.2 113.717ZM137.2 112.011C138.086 112.011 138.778 111.578 139.277 110.713C139.78 109.848 140.031 108.597 140.031 106.961C140.031 105.874 139.916 104.956 139.686 104.206C139.46 103.452 139.134 102.881 138.708 102.493C138.286 102.101 137.783 101.905 137.2 101.905C136.317 101.905 135.625 102.339 135.122 103.209C134.619 104.078 134.366 105.329 134.362 106.961C134.362 108.052 134.474 108.974 134.7 109.729C134.93 110.479 135.256 111.048 135.678 111.435C136.1 111.819 136.607 112.011 137.2 112.011ZM144.261 113.5V112.068L148.691 107.479C149.164 106.98 149.554 106.543 149.861 106.168C150.172 105.789 150.404 105.429 150.557 105.088C150.711 104.747 150.787 104.385 150.787 104.001C150.787 103.567 150.685 103.192 150.481 102.876C150.276 102.557 149.997 102.312 149.643 102.141C149.29 101.967 148.891 101.879 148.448 101.879C147.979 101.879 147.57 101.975 147.221 102.167C146.871 102.359 146.603 102.629 146.415 102.979C146.228 103.328 146.134 103.737 146.134 104.206H144.248C144.248 103.409 144.432 102.712 144.798 102.116C145.165 101.519 145.667 101.057 146.307 100.729C146.946 100.396 147.672 100.23 148.486 100.23C149.309 100.23 150.033 100.394 150.66 100.722C151.29 101.046 151.782 101.489 152.136 102.052C152.49 102.61 152.667 103.241 152.667 103.944C152.667 104.43 152.575 104.905 152.392 105.369C152.213 105.834 151.9 106.352 151.452 106.923C151.005 107.489 150.383 108.178 149.586 108.987L146.984 111.71V111.806H152.878V113.5H144.261ZM154.744 110.943V109.345L160.401 100.409H161.66V102.761H160.861L156.815 109.166V109.268H164.569V110.943H154.744ZM160.951 113.5V110.457L160.964 109.729V100.409H162.836V113.5H160.951Z" fill="#6B7280"/>
<path d="M1393.46 107L1399 112.54V114H1397.54L1392 108.46L1386.46 114H1385V112.54L1390.54 107L1385 101.46V100H1386.46L1392 105.54L1397.54 100H1399V101.46L1393.46 107Z" fill="#374151"/>
</g>
<defs>
<filter id="filter0_d_738_3219" x="-4" y="139" width="1448" height="120" filterUnits="userSpaceOnUse" color-interpolation-filters="sRGB">
<feFlood flood-opacity="0" result="BackgroundImageFix"/>
<feColorMatrix in="SourceAlpha" type="matrix" values="0 0 0 0 0 0 0 0 0 0 0 0 0 0 0 0 0 0 127 0" result="hardAlpha"/>
<feOffset dy="4"/>
<feGaussianBlur stdDeviation="2"/>
<feComposite in2="hardAlpha" operator="out"/>
<feColorMatrix type="matrix" values="0 0 0 0 0 0 0 0 0 0 0 0 0 0 0 0 0 0 0.25 0"/>
<feBlend mode="normal" in2="BackgroundImageFix" result="effect1_dropShadow_738_3219"/>
<feBlend mode="normal" in="SourceGraphic" in2="effect1_dropShadow_738_3219" result="shape"/>
</filter>
<filter id="filter1_dd_738_3219" x="652" y="564" width="136" height="136" filterUnits="userSpaceOnUse" color-interpolation-filters="sRGB">
<feFlood flood-opacity="0" result="BackgroundImageFix"/>
<feColorMatrix in="SourceAlpha" type="matrix" values="0 0 0 0 0 0 0 0 0 0 0 0 0 0 0 0 0 0 127 0" result="hardAlpha"/>
<feOffset dy="4"/>
<feGaussianBlur stdDeviation="3"/>
<feColorMatrix type="matrix" values="0 0 0 0 0 0 0 0 0 0 0 0 0 0 0 0 0 0 0.05 0"/>
<feBlend mode="normal" in2="BackgroundImageFix" result="effect1_dropShadow_738_3219"/>
<feColorMatrix in="SourceAlpha" type="matrix" values="0 0 0 0 0 0 0 0 0 0 0 0 0 0 0 0 0 0 127 0" result="hardAlpha"/>
<feMorphology radius="3" operator="erode" in="SourceAlpha" result="effect2_dropShadow_738_3219"/>
<feOffset dy="10"/>
<feGaussianBlur stdDeviation="7.5"/>
<feColorMatrix type="matrix" values="0 0 0 0 0 0 0 0 0 0 0 0 0 0 0 0 0 0 0.1 0"/>
<feBlend mode="normal" in2="effect1_dropShadow_738_3219" result="effect2_dropShadow_738_3219"/>
<feBlend mode="normal" in="SourceGraphic" in2="effect2_dropShadow_738_3219" result="shape"/>
</filter>
<clipPath id="clip0_738_3219">
<rect width="1440" height="758" fill="white"/>
</clipPath>
<clipPath id="clip1_738_3219">
<rect width="22.1007" height="22.1007" fill="white" transform="matrix(-0.704989 -0.709218 -0.704989 0.709218 140.021 32.9691)"/>
</clipPath>
<clipPath id="clip2_738_3219">
<rect width="198" height="136" fill="white" transform="translate(652 566)"/>
</clipPath>
</defs>
</svg>
