<svg width="390" height="844" viewBox="0 0 390 844" fill="none" xmlns="http://www.w3.org/2000/svg">
<rect width="390" height="844" fill="url(#paint0_linear_1124_6195)"/>
<path d="M16.3331 232.318H18.0781L20.7379 236.947H20.8473L23.5071 232.318H25.2521L21.5582 238.503V242.5H20.027V238.503L16.3331 232.318ZM28.5421 242.654C27.8262 242.654 27.2014 242.49 26.6678 242.162C26.1342 241.834 25.7199 241.375 25.4249 240.785C25.1299 240.195 24.9824 239.505 24.9824 238.717C24.9824 237.924 25.1299 237.232 25.4249 236.638C25.7199 236.045 26.1342 235.585 26.6678 235.256C27.2014 234.928 27.8262 234.764 28.5421 234.764C29.258 234.764 29.8828 234.928 30.4164 235.256C30.95 235.585 31.3643 236.045 31.6593 236.638C31.9542 237.232 32.1017 237.924 32.1017 238.717C32.1017 239.505 31.9542 240.195 31.6593 240.785C31.3643 241.375 30.95 241.834 30.4164 242.162C29.8828 242.49 29.258 242.654 28.5421 242.654ZM28.5471 241.406C29.0111 241.406 29.3955 241.284 29.7005 241.038C30.0054 240.793 30.2308 240.467 30.3766 240.059C30.5257 239.651 30.6003 239.202 30.6003 238.712C30.6003 238.224 30.5257 237.777 30.3766 237.369C30.2308 236.958 30.0054 236.629 29.7005 236.38C29.3955 236.131 29.0111 236.007 28.5471 236.007C28.0797 236.007 27.6919 236.131 27.3837 236.38C27.0788 236.629 26.8517 236.958 26.7026 237.369C26.5568 237.777 26.4838 238.224 26.4838 238.712C26.4838 239.202 26.5568 239.651 26.7026 240.059C26.8517 240.467 27.0788 240.793 27.3837 241.038C27.6919 241.284 28.0797 241.406 28.5471 241.406ZM38.5984 239.333V234.864H40.0898V242.5H38.6282V241.178H38.5487C38.373 241.585 38.0913 241.925 37.7035 242.197C37.319 242.465 36.8401 242.599 36.2667 242.599C35.7762 242.599 35.342 242.492 34.9641 242.276C34.5896 242.058 34.2946 241.734 34.0792 241.307C33.8671 240.879 33.761 240.351 33.761 239.721V234.864H35.2475V239.542C35.2475 240.062 35.3917 240.477 35.68 240.785C35.9684 241.093 36.3429 241.247 36.8036 241.247C37.082 241.247 37.3588 241.178 37.6339 241.038C37.9123 240.899 38.1426 240.689 38.3249 240.407C38.5105 240.125 38.6017 239.767 38.5984 239.333ZM42.0872 242.5V234.864H43.524V236.077H43.6035C43.7427 235.666 43.988 235.343 44.3393 235.107C44.694 234.869 45.095 234.749 45.5424 234.749C45.6352 234.749 45.7446 234.753 45.8706 234.759C45.9998 234.766 46.1009 234.774 46.1738 234.784V236.206C46.1142 236.189 46.0081 236.171 45.8556 236.151C45.7032 236.128 45.5507 236.116 45.3983 236.116C45.0469 236.116 44.7337 236.191 44.4586 236.34C44.1868 236.486 43.9714 236.69 43.8123 236.952C43.6532 237.21 43.5737 237.505 43.5737 237.837V242.5H42.0872ZM51.2846 242.5V232.318H57.5985V233.641H52.8208V236.743H57.1461V238.06H52.8208V242.5H51.2846ZM63.7273 239.333V234.864H65.2188V242.5H63.7571V241.178H63.6776C63.5019 241.585 63.2202 241.925 62.8324 242.197C62.4479 242.465 61.969 242.599 61.3956 242.599C60.9051 242.599 60.4709 242.492 60.093 242.276C59.7185 242.058 59.4235 241.734 59.2081 241.307C58.996 240.879 58.8899 240.351 58.8899 239.721V234.864H60.3764V239.542C60.3764 240.062 60.5206 240.477 60.8089 240.785C61.0973 241.093 61.4718 241.247 61.9325 241.247C62.2109 241.247 62.4877 241.178 62.7628 241.038C63.0412 240.899 63.2715 240.689 63.4538 240.407C63.6394 240.125 63.7306 239.767 63.7273 239.333ZM68.7026 232.318V242.5H67.2161V232.318H68.7026ZM72.1889 232.318V242.5H70.7024V232.318H72.1889ZM86.2312 232.318V242.5H84.8192L79.6438 235.033H79.5494V242.5H78.0131V232.318H79.435L84.6154 239.795H84.7099V232.318H86.2312ZM90.5751 242.669C90.0912 242.669 89.6537 242.58 89.2626 242.401C88.8715 242.218 88.5616 241.955 88.3329 241.61C88.1075 241.265 87.9949 240.843 87.9949 240.342C87.9949 239.911 88.0777 239.557 88.2434 239.278C88.4092 239 88.6329 238.78 88.9146 238.617C89.1963 238.455 89.5112 238.332 89.8592 238.249C90.2072 238.166 90.5618 238.103 90.9231 238.06C91.3805 238.007 91.7517 237.964 92.0368 237.931C92.3218 237.895 92.5289 237.837 92.6582 237.757C92.7875 237.678 92.8521 237.548 92.8521 237.369V237.335C92.8521 236.9 92.7295 236.564 92.4842 236.325C92.2422 236.087 91.881 235.967 91.4004 235.967C90.8999 235.967 90.5055 236.078 90.2172 236.3C89.9321 236.519 89.7349 236.763 89.6255 237.031L88.2285 236.713C88.3942 236.249 88.6362 235.875 88.9544 235.589C89.2759 235.301 89.6454 235.092 90.063 234.963C90.4806 234.83 90.9198 234.764 91.3805 234.764C91.6854 234.764 92.0086 234.801 92.35 234.874C92.6947 234.943 93.0162 235.072 93.3145 235.261C93.6161 235.45 93.863 235.72 94.0552 236.072C94.2475 236.42 94.3436 236.872 94.3436 237.429V242.5H92.8919V241.456H92.8322C92.7361 241.648 92.5919 241.837 92.3997 242.023C92.2074 242.208 91.9605 242.362 91.6589 242.485C91.3573 242.608 90.996 242.669 90.5751 242.669ZM90.8983 241.476C91.3092 241.476 91.6606 241.395 91.9522 241.232C92.2472 241.07 92.4709 240.858 92.6234 240.596C92.7792 240.331 92.8571 240.047 92.8571 239.746V238.761C92.804 238.814 92.7013 238.864 92.5488 238.911C92.3997 238.954 92.229 238.992 92.0368 239.025C91.8445 239.055 91.6573 239.083 91.475 239.109C91.2927 239.133 91.1402 239.152 91.0176 239.169C90.7292 239.205 90.4657 239.267 90.2271 239.353C89.9918 239.439 89.8029 239.563 89.6603 239.726C89.5211 239.885 89.4515 240.097 89.4515 240.362C89.4515 240.73 89.5874 241.009 89.8592 241.197C90.131 241.383 90.4773 241.476 90.8983 241.476ZM96.3235 242.5V234.864H97.7504V236.107H97.8448C98.0039 235.686 98.2641 235.357 98.6254 235.122C98.9866 234.884 99.4192 234.764 99.9229 234.764C100.433 234.764 100.861 234.884 101.206 235.122C101.554 235.361 101.81 235.689 101.976 236.107H102.056C102.238 235.699 102.528 235.374 102.926 235.132C103.324 234.887 103.797 234.764 104.348 234.764C105.04 234.764 105.605 234.981 106.043 235.415C106.484 235.85 106.704 236.504 106.704 237.379V242.5H105.218V237.518C105.218 237.001 105.077 236.627 104.795 236.395C104.513 236.163 104.177 236.047 103.786 236.047C103.302 236.047 102.926 236.196 102.657 236.494C102.389 236.789 102.255 237.169 102.255 237.633V242.5H100.773V237.424C100.773 237.01 100.644 236.677 100.385 236.425C100.127 236.173 99.7904 236.047 99.3761 236.047C99.0943 236.047 98.8342 236.121 98.5955 236.271C98.3602 236.416 98.1696 236.62 98.0238 236.882C97.8813 237.144 97.81 237.447 97.81 237.792V242.5H96.3235ZM111.988 242.654C111.235 242.654 110.587 242.493 110.044 242.172C109.504 241.847 109.086 241.391 108.791 240.805C108.499 240.215 108.354 239.524 108.354 238.732C108.354 237.949 108.499 237.26 108.791 236.663C109.086 236.067 109.497 235.601 110.024 235.266C110.554 234.932 111.174 234.764 111.883 234.764C112.314 234.764 112.732 234.835 113.136 234.978C113.541 235.121 113.903 235.344 114.225 235.649C114.546 235.954 114.8 236.35 114.986 236.837C115.171 237.321 115.264 237.91 115.264 238.602V239.129H109.194V238.016H113.807C113.807 237.625 113.728 237.278 113.569 236.977C113.41 236.672 113.186 236.431 112.898 236.256C112.613 236.08 112.278 235.992 111.893 235.992C111.476 235.992 111.111 236.095 110.8 236.3C110.491 236.503 110.253 236.768 110.084 237.096C109.918 237.421 109.835 237.774 109.835 238.155V239.025C109.835 239.535 109.925 239.969 110.104 240.327C110.286 240.685 110.539 240.959 110.864 241.148C111.189 241.333 111.568 241.426 112.003 241.426C112.284 241.426 112.541 241.386 112.773 241.307C113.005 241.224 113.206 241.101 113.375 240.939C113.544 240.777 113.673 240.576 113.763 240.337L115.17 240.591C115.057 241.005 114.855 241.368 114.563 241.68C114.275 241.988 113.912 242.228 113.474 242.401C113.04 242.57 112.545 242.654 111.988 242.654Z" fill="#1F2A37"/>
<rect x="16.5" y="256" width="357" height="40" rx="7.5" fill="#F9FAFB"/>
<rect x="16.5" y="256" width="357" height="40" rx="7.5" stroke="#D1D5DB"/>
<path d="M33.233 281.5V271.318H34.4659V275.852H39.8949V271.318H41.1278V281.5H39.8949V276.946H34.4659V281.5H33.233ZM46.6388 281.659C45.9031 281.659 45.2683 281.497 44.7347 281.172C44.2044 280.844 43.7951 280.386 43.5067 279.8C43.2217 279.21 43.0792 278.524 43.0792 277.741C43.0792 276.959 43.2217 276.27 43.5067 275.673C43.7951 275.073 44.1961 274.606 44.7099 274.271C45.2269 273.933 45.8301 273.764 46.5195 273.764C46.9173 273.764 47.31 273.83 47.6978 273.963C48.0856 274.096 48.4386 274.311 48.7567 274.609C49.0749 274.904 49.3285 275.295 49.5174 275.783C49.7063 276.27 49.8008 276.87 49.8008 277.582V278.08H43.9144V277.065H48.6076C48.6076 276.634 48.5214 276.25 48.3491 275.912C48.18 275.574 47.9381 275.307 47.6232 275.112C47.3117 274.916 46.9438 274.818 46.5195 274.818C46.0522 274.818 45.6478 274.934 45.3065 275.166C44.9684 275.395 44.7082 275.693 44.5259 276.061C44.3436 276.429 44.2525 276.823 44.2525 277.244V277.92C44.2525 278.497 44.3519 278.986 44.5508 279.387C44.753 279.785 45.033 280.088 45.391 280.297C45.7489 280.502 46.1649 280.605 46.6388 280.605C46.9471 280.605 47.2255 280.562 47.4741 280.476C47.726 280.386 47.9431 280.254 48.1254 280.078C48.3076 279.899 48.4485 279.677 48.5479 279.412L49.6815 279.73C49.5621 280.115 49.3616 280.453 49.0799 280.744C48.7982 281.033 48.4502 281.258 48.0359 281.42C47.6216 281.58 47.1559 281.659 46.6388 281.659ZM53.8327 281.679C53.3488 281.679 52.9097 281.588 52.5153 281.406C52.1209 281.22 51.8076 280.953 51.5756 280.605C51.3436 280.254 51.2276 279.83 51.2276 279.332C51.2276 278.895 51.3138 278.54 51.4862 278.268C51.6585 277.993 51.8888 277.778 52.1772 277.622C52.4656 277.466 52.7837 277.35 53.1317 277.274C53.4831 277.195 53.8361 277.132 54.1907 277.085C54.6547 277.026 55.0309 276.981 55.3192 276.951C55.6109 276.918 55.823 276.863 55.9556 276.787C56.0915 276.711 56.1594 276.578 56.1594 276.389V276.349C56.1594 275.859 56.0252 275.478 55.7567 275.206C55.4916 274.934 55.0889 274.798 54.5487 274.798C53.9885 274.798 53.5494 274.921 53.2312 275.166C52.913 275.411 52.6893 275.673 52.56 275.952L51.4464 275.554C51.6452 275.09 51.9104 274.729 52.2418 274.47C52.5766 274.208 52.9412 274.026 53.3356 273.923C53.7333 273.817 54.1244 273.764 54.5089 273.764C54.7541 273.764 55.0359 273.794 55.354 273.854C55.6755 273.91 55.9854 274.028 56.2837 274.207C56.5853 274.386 56.8356 274.656 57.0344 275.017C57.2333 275.378 57.3327 275.862 57.3327 276.469V281.5H56.1594V280.466H56.0998C56.0202 280.632 55.8877 280.809 55.7021 280.998C55.5165 281.187 55.2695 281.348 54.9613 281.48C54.6531 281.613 54.2769 281.679 53.8327 281.679ZM54.0117 280.625C54.4757 280.625 54.8668 280.534 55.185 280.352C55.5065 280.169 55.7485 279.934 55.9109 279.646C56.0766 279.357 56.1594 279.054 56.1594 278.736V277.662C56.1097 277.722 56.0004 277.776 55.8313 277.826C55.6656 277.872 55.4734 277.914 55.2546 277.95C55.0392 277.983 54.8287 278.013 54.6232 278.04C54.421 278.063 54.257 278.083 54.131 278.099C53.8261 278.139 53.5411 278.204 53.2759 278.293C53.0141 278.379 52.802 278.51 52.6396 278.686C52.4805 278.858 52.4009 279.094 52.4009 279.392C52.4009 279.8 52.5517 280.108 52.8533 280.317C53.1583 280.522 53.5444 280.625 54.0117 280.625ZM62.7953 273.864V274.858H58.8379V273.864H62.7953ZM59.9913 272.034H61.1646V279.312C61.1646 279.644 61.2127 279.893 61.3088 280.058C61.4082 280.221 61.5342 280.33 61.6866 280.386C61.8424 280.439 62.0065 280.466 62.1788 280.466C62.3081 280.466 62.4141 280.459 62.497 280.446C62.5798 280.429 62.6461 280.416 62.6958 280.406L62.9345 281.46C62.8549 281.49 62.7439 281.52 62.6014 281.55C62.4589 281.583 62.2782 281.599 62.0595 281.599C61.728 281.599 61.4032 281.528 61.085 281.386C60.7702 281.243 60.5083 281.026 60.2995 280.734C60.094 280.443 59.9913 280.075 59.9913 279.631V272.034ZM65.8975 276.906V281.5H64.7243V271.318H65.8975V275.057H65.997C66.176 274.662 66.4444 274.349 66.8024 274.117C67.1636 273.882 67.6442 273.764 68.2441 273.764C68.7645 273.764 69.2202 273.869 69.6113 274.077C70.0024 274.283 70.3057 274.599 70.5211 275.027C70.7399 275.451 70.8493 275.991 70.8493 276.648V281.5H69.676V276.727C69.676 276.121 69.5185 275.652 69.2037 275.32C68.8921 274.986 68.4596 274.818 67.9061 274.818C67.5216 274.818 67.1769 274.899 66.872 275.062C66.5704 275.224 66.3317 275.461 66.1561 275.773C65.9837 276.084 65.8975 276.462 65.8975 276.906ZM76.1974 281.659C75.4616 281.659 74.8269 281.497 74.2933 281.172C73.763 280.844 73.3537 280.386 73.0653 279.8C72.7803 279.21 72.6378 278.524 72.6378 277.741C72.6378 276.959 72.7803 276.27 73.0653 275.673C73.3537 275.073 73.7547 274.606 74.2685 274.271C74.7855 273.933 75.3887 273.764 76.0781 273.764C76.4759 273.764 76.8686 273.83 77.2564 273.963C77.6442 274.096 77.9972 274.311 78.3153 274.609C78.6335 274.904 78.8871 275.295 79.076 275.783C79.2649 276.27 79.3594 276.87 79.3594 277.582V278.08H73.473V277.065H78.1662C78.1662 276.634 78.08 276.25 77.9077 275.912C77.7386 275.574 77.4967 275.307 77.1818 275.112C76.8703 274.916 76.5024 274.818 76.0781 274.818C75.6108 274.818 75.2064 274.934 74.8651 275.166C74.527 275.395 74.2668 275.693 74.0845 276.061C73.9022 276.429 73.8111 276.823 73.8111 277.244V277.92C73.8111 278.497 73.9105 278.986 74.1094 279.387C74.3116 279.785 74.5916 280.088 74.9496 280.297C75.3075 280.502 75.7235 280.605 76.1974 280.605C76.5057 280.605 76.7841 280.562 77.0327 280.476C77.2846 280.386 77.5017 280.254 77.6839 280.078C77.8662 279.899 78.0071 279.677 78.1065 279.412L79.2401 279.73C79.1207 280.115 78.9202 280.453 78.6385 280.744C78.3568 281.033 78.0088 281.258 77.5945 281.42C77.1802 281.58 76.7145 281.659 76.1974 281.659ZM81.1442 281.5V273.864H82.2777V275.017H82.3572C82.4964 274.639 82.7483 274.333 83.1129 274.097C83.4775 273.862 83.8885 273.744 84.3459 273.744C84.4321 273.744 84.5398 273.746 84.669 273.749C84.7983 273.753 84.8961 273.758 84.9624 273.764V274.957C84.9226 274.947 84.8314 274.933 84.6889 274.913C84.5497 274.889 84.4022 274.878 84.2464 274.878C83.8752 274.878 83.5438 274.956 83.2521 275.112C82.9638 275.264 82.7351 275.476 82.5661 275.748C82.4003 276.016 82.3175 276.323 82.3175 276.668V281.5H81.1442ZM96.0179 273.864C95.9583 273.36 95.7163 272.969 95.2921 272.69C94.8678 272.412 94.3475 272.273 93.731 272.273C93.2802 272.273 92.8858 272.346 92.5478 272.491C92.213 272.637 91.9512 272.838 91.7623 273.093C91.5766 273.348 91.4838 273.638 91.4838 273.963C91.4838 274.235 91.5485 274.469 91.6777 274.664C91.8103 274.856 91.9793 275.017 92.1848 275.146C92.3903 275.272 92.6058 275.377 92.8311 275.46C93.0565 275.539 93.2637 275.604 93.4526 275.653L94.4867 275.932C94.7518 276.001 95.0468 276.098 95.3716 276.22C95.6998 276.343 96.013 276.51 96.3113 276.722C96.6129 276.931 96.8614 277.2 97.057 277.528C97.2525 277.856 97.3503 278.259 97.3503 278.736C97.3503 279.286 97.2061 279.783 96.9178 280.227C96.6328 280.671 96.2151 281.024 95.665 281.286C95.1181 281.548 94.4535 281.679 93.6713 281.679C92.9422 281.679 92.3108 281.561 91.7772 281.326C91.2469 281.091 90.8292 280.763 90.5243 280.342C90.2227 279.921 90.052 279.432 90.0123 278.875H91.285C91.3181 279.259 91.4474 279.578 91.6728 279.83C91.9015 280.078 92.1898 280.264 92.5378 280.386C92.8891 280.506 93.267 280.565 93.6713 280.565C94.142 280.565 94.5646 280.489 94.9391 280.337C95.3136 280.181 95.6103 279.965 95.829 279.69C96.0478 279.412 96.1571 279.087 96.1571 278.716C96.1571 278.378 96.0627 278.103 95.8738 277.891C95.6848 277.679 95.4363 277.506 95.128 277.374C94.8198 277.241 94.4867 277.125 94.1287 277.026L92.8759 276.668C92.0804 276.439 91.4507 276.112 90.9867 275.688C90.5227 275.264 90.2907 274.709 90.2907 274.023C90.2907 273.453 90.4448 272.955 90.753 272.531C91.0646 272.104 91.4822 271.772 92.0059 271.537C92.5328 271.298 93.1212 271.179 93.7708 271.179C94.427 271.179 95.0104 271.297 95.5208 271.532C96.0312 271.764 96.4355 272.082 96.7338 272.487C97.0355 272.891 97.1945 273.35 97.2111 273.864H96.0179ZM101.466 281.679C100.982 281.679 100.542 281.588 100.148 281.406C99.7537 281.22 99.4405 280.953 99.2085 280.605C98.9764 280.254 98.8604 279.83 98.8604 279.332C98.8604 278.895 98.9466 278.54 99.119 278.268C99.2913 277.993 99.5217 277.778 99.81 277.622C100.098 277.466 100.417 277.35 100.765 277.274C101.116 277.195 101.469 277.132 101.824 277.085C102.288 277.026 102.664 276.981 102.952 276.951C103.244 276.918 103.456 276.863 103.588 276.787C103.724 276.711 103.792 276.578 103.792 276.389V276.349C103.792 275.859 103.658 275.478 103.39 275.206C103.124 274.934 102.722 274.798 102.181 274.798C101.621 274.798 101.182 274.921 100.864 275.166C100.546 275.411 100.322 275.673 100.193 275.952L99.0792 275.554C99.2781 275.09 99.5432 274.729 99.8746 274.47C100.209 274.208 100.574 274.026 100.968 273.923C101.366 273.817 101.757 273.764 102.142 273.764C102.387 273.764 102.669 273.794 102.987 273.854C103.308 273.91 103.618 274.028 103.917 274.207C104.218 274.386 104.468 274.656 104.667 275.017C104.866 275.378 104.966 275.862 104.966 276.469V281.5H103.792V280.466H103.733C103.653 280.632 103.52 280.809 103.335 280.998C103.149 281.187 102.902 281.348 102.594 281.48C102.286 281.613 101.91 281.679 101.466 281.679ZM101.645 280.625C102.109 280.625 102.5 280.534 102.818 280.352C103.139 280.169 103.381 279.934 103.544 279.646C103.709 279.357 103.792 279.054 103.792 278.736V277.662C103.743 277.722 103.633 277.776 103.464 277.826C103.298 277.872 103.106 277.914 102.887 277.95C102.672 277.983 102.462 278.013 102.256 278.04C102.054 278.063 101.89 278.083 101.764 278.099C101.459 278.139 101.174 278.204 100.909 278.293C100.647 278.379 100.435 278.51 100.272 278.686C100.113 278.858 100.034 279.094 100.034 279.392C100.034 279.8 100.185 280.108 100.486 280.317C100.791 280.522 101.177 280.625 101.645 280.625ZM108.28 276.906V281.5H107.107V273.864H108.241V275.057H108.34C108.519 274.669 108.791 274.357 109.155 274.122C109.52 273.884 109.991 273.764 110.567 273.764C111.084 273.764 111.537 273.87 111.925 274.082C112.312 274.291 112.614 274.609 112.829 275.037C113.045 275.461 113.153 275.998 113.153 276.648V281.5H111.979V276.727C111.979 276.127 111.823 275.66 111.512 275.325C111.2 274.987 110.773 274.818 110.229 274.818C109.855 274.818 109.52 274.899 109.225 275.062C108.933 275.224 108.703 275.461 108.534 275.773C108.365 276.084 108.28 276.462 108.28 276.906ZM118.697 273.864V274.858H114.581V273.864H118.697ZM115.814 281.5V272.81C115.814 272.372 115.916 272.008 116.122 271.716C116.327 271.424 116.594 271.205 116.922 271.06C117.25 270.914 117.597 270.841 117.961 270.841C118.25 270.841 118.485 270.864 118.667 270.911C118.85 270.957 118.985 271 119.075 271.04L118.737 272.054C118.677 272.034 118.594 272.009 118.488 271.979C118.386 271.95 118.25 271.935 118.081 271.935C117.693 271.935 117.413 272.032 117.24 272.228C117.071 272.424 116.987 272.71 116.987 273.088V281.5H115.814ZM123.129 281.659C122.44 281.659 121.835 281.495 121.315 281.167C120.798 280.839 120.393 280.38 120.102 279.79C119.813 279.2 119.669 278.51 119.669 277.722C119.669 276.926 119.813 276.232 120.102 275.638C120.393 275.045 120.798 274.585 121.315 274.256C121.835 273.928 122.44 273.764 123.129 273.764C123.819 273.764 124.422 273.928 124.939 274.256C125.459 274.585 125.864 275.045 126.152 275.638C126.444 276.232 126.589 276.926 126.589 277.722C126.589 278.51 126.444 279.2 126.152 279.79C125.864 280.38 125.459 280.839 124.939 281.167C124.422 281.495 123.819 281.659 123.129 281.659ZM123.129 280.605C123.653 280.605 124.084 280.471 124.422 280.202C124.76 279.934 125.01 279.581 125.173 279.143C125.335 278.706 125.416 278.232 125.416 277.722C125.416 277.211 125.335 276.736 125.173 276.295C125.01 275.854 124.76 275.498 124.422 275.226C124.084 274.954 123.653 274.818 123.129 274.818C122.606 274.818 122.175 274.954 121.837 275.226C121.499 275.498 121.248 275.854 121.086 276.295C120.924 276.736 120.842 277.211 120.842 277.722C120.842 278.232 120.924 278.706 121.086 279.143C121.248 279.581 121.499 279.934 121.837 280.202C122.175 280.471 122.606 280.605 123.129 280.605ZM128.381 281.5V273.864H129.514V275.017H129.594C129.733 274.639 129.985 274.333 130.349 274.097C130.714 273.862 131.125 273.744 131.582 273.744C131.668 273.744 131.776 273.746 131.905 273.749C132.035 273.753 132.132 273.758 132.199 273.764V274.957C132.159 274.947 132.068 274.933 131.925 274.913C131.786 274.889 131.639 274.878 131.483 274.878C131.112 274.878 130.78 274.956 130.488 275.112C130.2 275.264 129.971 275.476 129.802 275.748C129.637 276.016 129.554 276.323 129.554 276.668V281.5H128.381ZM136.241 281.659C135.604 281.659 135.042 281.498 134.555 281.177C134.068 280.852 133.687 280.395 133.412 279.805C133.137 279.211 132.999 278.51 132.999 277.702C132.999 276.9 133.137 276.204 133.412 275.614C133.687 275.024 134.07 274.568 134.56 274.246C135.051 273.925 135.617 273.764 136.26 273.764C136.758 273.764 137.15 273.847 137.439 274.013C137.73 274.175 137.952 274.361 138.105 274.57C138.261 274.775 138.382 274.944 138.468 275.077H138.567V271.318H139.741V281.5H138.607V280.327H138.468C138.382 280.466 138.259 280.642 138.1 280.854C137.941 281.062 137.714 281.25 137.419 281.415C137.124 281.578 136.731 281.659 136.241 281.659ZM136.4 280.605C136.87 280.605 137.268 280.482 137.593 280.237C137.918 279.989 138.165 279.646 138.334 279.208C138.503 278.767 138.587 278.259 138.587 277.682C138.587 277.112 138.504 276.613 138.339 276.185C138.173 275.754 137.928 275.42 137.603 275.181C137.278 274.939 136.877 274.818 136.4 274.818C135.903 274.818 135.488 274.946 135.157 275.201C134.829 275.453 134.582 275.796 134.416 276.23C134.254 276.661 134.172 277.145 134.172 277.682C134.172 278.225 134.255 278.719 134.421 279.163C134.59 279.604 134.839 279.955 135.167 280.217C135.498 280.476 135.909 280.605 136.4 280.605Z" fill="#1F2A37"/>
<path d="M16.3331 326.318H18.0781L20.7379 330.947H20.8473L23.5071 326.318H25.2521L21.5582 332.503V336.5H20.027V332.503L16.3331 326.318ZM28.5421 336.654C27.8262 336.654 27.2014 336.49 26.6678 336.162C26.1342 335.834 25.7199 335.375 25.4249 334.785C25.1299 334.195 24.9824 333.505 24.9824 332.717C24.9824 331.924 25.1299 331.232 25.4249 330.638C25.7199 330.045 26.1342 329.585 26.6678 329.256C27.2014 328.928 27.8262 328.764 28.5421 328.764C29.258 328.764 29.8828 328.928 30.4164 329.256C30.95 329.585 31.3643 330.045 31.6593 330.638C31.9542 331.232 32.1017 331.924 32.1017 332.717C32.1017 333.505 31.9542 334.195 31.6593 334.785C31.3643 335.375 30.95 335.834 30.4164 336.162C29.8828 336.49 29.258 336.654 28.5421 336.654ZM28.5471 335.406C29.0111 335.406 29.3955 335.284 29.7005 335.038C30.0054 334.793 30.2308 334.467 30.3766 334.059C30.5257 333.651 30.6003 333.202 30.6003 332.712C30.6003 332.224 30.5257 331.777 30.3766 331.369C30.2308 330.958 30.0054 330.629 29.7005 330.38C29.3955 330.131 29.0111 330.007 28.5471 330.007C28.0797 330.007 27.6919 330.131 27.3837 330.38C27.0788 330.629 26.8517 330.958 26.7026 331.369C26.5568 331.777 26.4838 332.224 26.4838 332.712C26.4838 333.202 26.5568 333.651 26.7026 334.059C26.8517 334.467 27.0788 334.793 27.3837 335.038C27.6919 335.284 28.0797 335.406 28.5471 335.406ZM38.5984 333.333V328.864H40.0898V336.5H38.6282V335.178H38.5487C38.373 335.585 38.0913 335.925 37.7035 336.197C37.319 336.465 36.8401 336.599 36.2667 336.599C35.7762 336.599 35.342 336.492 34.9641 336.276C34.5896 336.058 34.2946 335.734 34.0792 335.307C33.8671 334.879 33.761 334.351 33.761 333.721V328.864H35.2475V333.542C35.2475 334.062 35.3917 334.477 35.68 334.785C35.9684 335.093 36.3429 335.247 36.8036 335.247C37.082 335.247 37.3588 335.178 37.6339 335.038C37.9123 334.899 38.1426 334.689 38.3249 334.407C38.5105 334.125 38.6017 333.767 38.5984 333.333ZM42.0872 336.5V328.864H43.524V330.077H43.6035C43.7427 329.666 43.988 329.343 44.3393 329.107C44.694 328.869 45.095 328.749 45.5424 328.749C45.6352 328.749 45.7446 328.753 45.8706 328.759C45.9998 328.766 46.1009 328.774 46.1738 328.784V330.206C46.1142 330.189 46.0081 330.171 45.8556 330.151C45.7032 330.128 45.5507 330.116 45.3983 330.116C45.0469 330.116 44.7337 330.191 44.4586 330.34C44.1868 330.486 43.9714 330.69 43.8123 330.952C43.6532 331.21 43.5737 331.505 43.5737 331.837V336.5H42.0872ZM54.7995 328.864V330.057H50.4842V328.864H54.7995ZM51.6674 336.5V327.979C51.6674 327.501 51.7718 327.105 51.9806 326.79C52.1895 326.472 52.4662 326.235 52.8109 326.08C53.1556 325.92 53.5301 325.841 53.9345 325.841C54.2328 325.841 54.488 325.866 54.7001 325.915C54.9122 325.962 55.0697 326.005 55.1724 326.045L54.8244 327.248C54.7548 327.228 54.6653 327.205 54.5559 327.178C54.4466 327.148 54.314 327.134 54.1582 327.134C53.7969 327.134 53.5384 327.223 53.3826 327.402C53.2302 327.581 53.1539 327.839 53.1539 328.178V336.5H51.6674ZM56.3333 336.5V328.864H57.8198V336.5H56.3333ZM57.084 327.685C56.8255 327.685 56.6034 327.599 56.4178 327.427C56.2355 327.251 56.1444 327.042 56.1444 326.8C56.1444 326.555 56.2355 326.346 56.4178 326.174C56.6034 325.998 56.8255 325.911 57.084 325.911C57.3425 325.911 57.5629 325.998 57.7452 326.174C57.9308 326.346 58.0236 326.555 58.0236 326.8C58.0236 327.042 57.9308 327.251 57.7452 327.427C57.5629 327.599 57.3425 327.685 57.084 327.685ZM63.1108 336.654C62.3584 336.654 61.7105 336.493 61.1669 336.172C60.6267 335.847 60.209 335.391 59.9141 334.805C59.6224 334.215 59.4766 333.524 59.4766 332.732C59.4766 331.949 59.6224 331.26 59.9141 330.663C60.209 330.067 60.62 329.601 61.147 329.266C61.6773 328.932 62.2971 328.764 63.0064 328.764C63.4373 328.764 63.8549 328.835 64.2592 328.978C64.6636 329.121 65.0265 329.344 65.348 329.649C65.6695 329.954 65.9231 330.35 66.1087 330.837C66.2943 331.321 66.3871 331.91 66.3871 332.602V333.129H60.3168V332.016H64.9304C64.9304 331.625 64.8509 331.278 64.6918 330.977C64.5327 330.672 64.3089 330.431 64.0206 330.256C63.7356 330.08 63.4008 329.992 63.0163 329.992C62.5987 329.992 62.2341 330.095 61.9226 330.3C61.6143 330.503 61.3757 330.768 61.2067 331.096C61.041 331.421 60.9581 331.774 60.9581 332.155V333.025C60.9581 333.535 61.0476 333.969 61.2266 334.327C61.4089 334.685 61.6624 334.959 61.9872 335.148C62.312 335.333 62.6915 335.426 63.1257 335.426C63.4074 335.426 63.6643 335.386 63.8963 335.307C64.1283 335.224 64.3288 335.101 64.4979 334.939C64.6669 334.777 64.7962 334.576 64.8857 334.337L66.2926 334.591C66.1799 335.005 65.9777 335.368 65.6861 335.68C65.3977 335.988 65.0348 336.228 64.5973 336.401C64.1631 336.57 63.6676 336.654 63.1108 336.654ZM69.5229 326.318V336.5H68.0364V326.318H69.5229ZM74.3814 336.649C73.7649 336.649 73.2147 336.492 72.7308 336.177C72.2502 335.859 71.8724 335.406 71.5973 334.82C71.3255 334.23 71.1896 333.522 71.1896 332.697C71.1896 331.871 71.3272 331.165 71.6023 330.579C71.8807 329.992 72.2618 329.543 72.7457 329.232C73.2296 328.92 73.7782 328.764 74.3913 328.764C74.8653 328.764 75.2464 328.844 75.5348 329.003C75.8265 329.159 76.0518 329.341 76.2109 329.55C76.3733 329.759 76.4993 329.942 76.5888 330.102H76.6783V326.318H78.1648V336.5H76.7131V335.312H76.5888C76.4993 335.474 76.37 335.66 76.201 335.869C76.0353 336.077 75.8066 336.26 75.5149 336.415C75.2232 336.571 74.8454 336.649 74.3814 336.649ZM74.7095 335.381C75.1371 335.381 75.4983 335.269 75.7933 335.043C76.0916 334.815 76.317 334.498 76.4695 334.094C76.6252 333.689 76.7031 333.219 76.7031 332.682C76.7031 332.152 76.6269 331.687 76.4744 331.29C76.322 330.892 76.0982 330.582 75.8033 330.36C75.5083 330.138 75.1437 330.027 74.7095 330.027C74.2621 330.027 73.8892 330.143 73.5909 330.375C73.2926 330.607 73.0672 330.924 72.9148 331.325C72.7656 331.726 72.6911 332.178 72.6911 332.682C72.6911 333.192 72.7673 333.651 72.9197 334.059C73.0722 334.467 73.2976 334.79 73.5959 335.028C73.8975 335.264 74.2687 335.381 74.7095 335.381ZM87.2081 336.654C86.4922 336.654 85.8674 336.49 85.3338 336.162C84.8002 335.834 84.3859 335.375 84.0909 334.785C83.7959 334.195 83.6484 333.505 83.6484 332.717C83.6484 331.924 83.7959 331.232 84.0909 330.638C84.3859 330.045 84.8002 329.585 85.3338 329.256C85.8674 328.928 86.4922 328.764 87.2081 328.764C87.924 328.764 88.5488 328.928 89.0824 329.256C89.616 329.585 90.0303 330.045 90.3253 330.638C90.6203 331.232 90.7678 331.924 90.7678 332.717C90.7678 333.505 90.6203 334.195 90.3253 334.785C90.0303 335.375 89.616 335.834 89.0824 336.162C88.5488 336.49 87.924 336.654 87.2081 336.654ZM87.2131 335.406C87.6771 335.406 88.0616 335.284 88.3665 335.038C88.6714 334.793 88.8968 334.467 89.0426 334.059C89.1918 333.651 89.2663 333.202 89.2663 332.712C89.2663 332.224 89.1918 331.777 89.0426 331.369C88.8968 330.958 88.6714 330.629 88.3665 330.38C88.0616 330.131 87.6771 330.007 87.2131 330.007C86.7457 330.007 86.358 330.131 86.0497 330.38C85.7448 330.629 85.5178 330.958 85.3686 331.369C85.2228 331.777 85.1499 332.224 85.1499 332.712C85.1499 333.202 85.2228 333.651 85.3686 334.059C85.5178 334.467 85.7448 334.793 86.0497 335.038C86.358 335.284 86.7457 335.406 87.2131 335.406ZM96.0613 328.864V330.057H91.7459V328.864H96.0613ZM92.9292 336.5V327.979C92.9292 327.501 93.0336 327.105 93.2424 326.79C93.4512 326.472 93.7279 326.235 94.0726 326.08C94.4173 325.92 94.7918 325.841 95.1962 325.841C95.4945 325.841 95.7497 325.866 95.9618 325.915C96.1739 325.962 96.3314 326.005 96.4341 326.045L96.0861 327.248C96.0165 327.228 95.927 327.205 95.8176 327.178C95.7083 327.148 95.5757 327.134 95.4199 327.134C95.0587 327.134 94.8001 327.223 94.6444 327.402C94.4919 327.581 94.4157 327.839 94.4157 328.178V336.5H92.9292ZM101.419 336.5V326.318H105.049C105.841 326.318 106.497 326.462 107.017 326.751C107.538 327.039 107.927 327.433 108.186 327.934C108.444 328.431 108.574 328.991 108.574 329.614C108.574 330.241 108.443 330.804 108.181 331.305C107.922 331.802 107.531 332.196 107.007 332.488C106.487 332.776 105.833 332.92 105.044 332.92H102.548V331.618H104.904C105.405 331.618 105.811 331.532 106.123 331.359C106.434 331.184 106.663 330.945 106.809 330.643C106.954 330.342 107.027 329.999 107.027 329.614C107.027 329.23 106.954 328.888 106.809 328.59C106.663 328.292 106.432 328.058 106.118 327.889C105.806 327.72 105.395 327.636 104.885 327.636H102.956V336.5H101.419ZM110.255 336.5V328.864H111.692V330.077H111.771C111.911 329.666 112.156 329.343 112.507 329.107C112.862 328.869 113.263 328.749 113.71 328.749C113.803 328.749 113.913 328.753 114.039 328.759C114.168 328.766 114.269 328.774 114.342 328.784V330.206C114.282 330.189 114.176 330.171 114.024 330.151C113.871 330.128 113.719 330.116 113.566 330.116C113.215 330.116 112.902 330.191 112.627 330.34C112.355 330.486 112.139 330.69 111.98 330.952C111.821 331.21 111.742 331.505 111.742 331.837V336.5H110.255ZM117.782 336.669C117.298 336.669 116.861 336.58 116.47 336.401C116.079 336.218 115.769 335.955 115.54 335.61C115.315 335.265 115.202 334.843 115.202 334.342C115.202 333.911 115.285 333.557 115.45 333.278C115.616 333 115.84 332.78 116.122 332.617C116.403 332.455 116.718 332.332 117.066 332.249C117.414 332.166 117.769 332.103 118.13 332.06C118.588 332.007 118.959 331.964 119.244 331.931C119.529 331.895 119.736 331.837 119.865 331.757C119.994 331.678 120.059 331.548 120.059 331.369V331.335C120.059 330.9 119.936 330.564 119.691 330.325C119.449 330.087 119.088 329.967 118.607 329.967C118.107 329.967 117.713 330.078 117.424 330.3C117.139 330.519 116.942 330.763 116.833 331.031L115.436 330.713C115.601 330.249 115.843 329.875 116.161 329.589C116.483 329.301 116.852 329.092 117.27 328.963C117.688 328.83 118.127 328.764 118.588 328.764C118.892 328.764 119.216 328.801 119.557 328.874C119.902 328.943 120.223 329.072 120.521 329.261C120.823 329.45 121.07 329.72 121.262 330.072C121.454 330.42 121.551 330.872 121.551 331.429V336.5H120.099V335.456H120.039C119.943 335.648 119.799 335.837 119.607 336.023C119.414 336.208 119.168 336.362 118.866 336.485C118.564 336.608 118.203 336.669 117.782 336.669ZM118.105 335.476C118.516 335.476 118.868 335.395 119.159 335.232C119.454 335.07 119.678 334.858 119.83 334.596C119.986 334.331 120.064 334.047 120.064 333.746V332.761C120.011 332.814 119.908 332.864 119.756 332.911C119.607 332.954 119.436 332.992 119.244 333.025C119.052 333.055 118.864 333.083 118.682 333.109C118.5 333.133 118.347 333.152 118.225 333.169C117.936 333.205 117.673 333.267 117.434 333.353C117.199 333.439 117.01 333.563 116.867 333.726C116.728 333.885 116.659 334.097 116.659 334.362C116.659 334.73 116.794 335.009 117.066 335.197C117.338 335.383 117.684 335.476 118.105 335.476ZM126.747 336.654C126.008 336.654 125.372 336.487 124.838 336.152C124.308 335.814 123.9 335.348 123.615 334.755C123.33 334.162 123.188 333.482 123.188 332.717C123.188 331.941 123.333 331.257 123.625 330.663C123.917 330.067 124.328 329.601 124.858 329.266C125.388 328.932 126.013 328.764 126.732 328.764C127.312 328.764 127.829 328.872 128.283 329.087C128.737 329.299 129.104 329.598 129.382 329.982C129.664 330.367 129.831 330.816 129.884 331.33H128.438C128.358 330.972 128.176 330.663 127.891 330.405C127.609 330.146 127.231 330.017 126.757 330.017C126.343 330.017 125.98 330.126 125.668 330.345C125.36 330.561 125.12 330.869 124.947 331.27C124.775 331.668 124.689 332.138 124.689 332.682C124.689 333.239 124.773 333.719 124.942 334.124C125.112 334.528 125.35 334.841 125.658 335.063C125.97 335.285 126.336 335.396 126.757 335.396C127.039 335.396 127.294 335.345 127.523 335.242C127.755 335.136 127.949 334.985 128.104 334.79C128.263 334.594 128.375 334.359 128.438 334.084H129.884C129.831 334.578 129.67 335.018 129.402 335.406C129.134 335.794 128.774 336.099 128.323 336.321C127.876 336.543 127.35 336.654 126.747 336.654ZM135.039 328.864V330.057H130.867V328.864H135.039ZM131.986 327.034H133.472V334.258C133.472 334.546 133.516 334.763 133.602 334.909C133.688 335.052 133.799 335.149 133.935 335.202C134.074 335.252 134.225 335.277 134.387 335.277C134.507 335.277 134.611 335.269 134.7 335.252C134.79 335.236 134.86 335.222 134.909 335.212L135.178 336.44C135.092 336.473 134.969 336.507 134.81 336.54C134.651 336.576 134.452 336.596 134.213 336.599C133.822 336.606 133.458 336.536 133.119 336.391C132.781 336.245 132.508 336.019 132.299 335.714C132.09 335.41 131.986 335.027 131.986 334.566V327.034ZM136.683 336.5V328.864H138.169V336.5H136.683ZM137.434 327.685C137.175 327.685 136.953 327.599 136.767 327.427C136.585 327.251 136.494 327.042 136.494 326.8C136.494 326.555 136.585 326.346 136.767 326.174C136.953 325.998 137.175 325.911 137.434 325.911C137.692 325.911 137.913 325.998 138.095 326.174C138.28 326.346 138.373 326.555 138.373 326.8C138.373 327.042 138.28 327.251 138.095 327.427C137.913 327.599 137.692 327.685 137.434 327.685ZM143.386 336.654C142.647 336.654 142.01 336.487 141.477 336.152C140.946 335.814 140.539 335.348 140.254 334.755C139.969 334.162 139.826 333.482 139.826 332.717C139.826 331.941 139.972 331.257 140.264 330.663C140.555 330.067 140.966 329.601 141.497 329.266C142.027 328.932 142.652 328.764 143.371 328.764C143.951 328.764 144.468 328.872 144.922 329.087C145.376 329.299 145.742 329.598 146.021 329.982C146.302 330.367 146.47 330.816 146.523 331.33H145.076C144.997 330.972 144.814 330.663 144.529 330.405C144.248 330.146 143.87 330.017 143.396 330.017C142.981 330.017 142.619 330.126 142.307 330.345C141.999 330.561 141.758 330.869 141.586 331.27C141.414 331.668 141.328 332.138 141.328 332.682C141.328 333.239 141.412 333.719 141.581 334.124C141.75 334.528 141.989 334.841 142.297 335.063C142.609 335.285 142.975 335.396 143.396 335.396C143.677 335.396 143.933 335.345 144.161 335.242C144.393 335.136 144.587 334.985 144.743 334.79C144.902 334.594 145.013 334.359 145.076 334.084H146.523C146.47 334.578 146.309 335.018 146.041 335.406C145.772 335.794 145.413 336.099 144.962 336.321C144.514 336.543 143.989 336.654 143.386 336.654ZM151.404 336.654C150.651 336.654 150.003 336.493 149.46 336.172C148.92 335.847 148.502 335.391 148.207 334.805C147.915 334.215 147.77 333.524 147.77 332.732C147.77 331.949 147.915 331.26 148.207 330.663C148.502 330.067 148.913 329.601 149.44 329.266C149.97 328.932 150.59 328.764 151.299 328.764C151.73 328.764 152.148 328.835 152.552 328.978C152.957 329.121 153.319 329.344 153.641 329.649C153.962 329.954 154.216 330.35 154.402 330.837C154.587 331.321 154.68 331.91 154.68 332.602V333.129H148.61V332.016H153.223C153.223 331.625 153.144 331.278 152.985 330.977C152.826 330.672 152.602 330.431 152.314 330.256C152.029 330.08 151.694 329.992 151.309 329.992C150.892 329.992 150.527 330.095 150.216 330.3C149.907 330.503 149.669 330.768 149.5 331.096C149.334 331.421 149.251 331.774 149.251 332.155V333.025C149.251 333.535 149.341 333.969 149.52 334.327C149.702 334.685 149.955 334.959 150.28 335.148C150.605 335.333 150.984 335.426 151.419 335.426C151.7 335.426 151.957 335.386 152.189 335.307C152.421 335.224 152.622 335.101 152.791 334.939C152.96 334.777 153.089 334.576 153.179 334.337L154.586 334.591C154.473 335.005 154.271 335.368 153.979 335.68C153.691 335.988 153.328 336.228 152.89 336.401C152.456 336.57 151.961 336.654 151.404 336.654Z" fill="#1F2A37"/>
<rect x="16.5" y="350" width="357" height="40" rx="7.5" fill="#F9FAFB"/>
<rect x="16.5" y="350" width="357" height="40" rx="7.5" stroke="#D1D5DB"/>
<path d="M41.3068 365.318V375.5H40.1136L34.5653 367.506H34.4659V375.5H33.233V365.318H34.4261L39.9943 373.332H40.0938V365.318H41.3068ZM46.8166 375.659C46.0808 375.659 45.4461 375.497 44.9125 375.172C44.3822 374.844 43.9728 374.386 43.6845 373.8C43.3994 373.21 43.2569 372.524 43.2569 371.741C43.2569 370.959 43.3994 370.27 43.6845 369.673C43.9728 369.073 44.3739 368.606 44.8876 368.271C45.4047 367.933 46.0079 367.764 46.6973 367.764C47.095 367.764 47.4877 367.83 47.8755 367.963C48.2633 368.096 48.6163 368.311 48.9345 368.609C49.2527 368.904 49.5062 369.295 49.6951 369.783C49.8841 370.27 49.9785 370.87 49.9785 371.582V372.08H44.0922V371.065H48.7853C48.7853 370.634 48.6992 370.25 48.5268 369.912C48.3578 369.574 48.1158 369.307 47.801 369.112C47.4894 368.916 47.1215 368.818 46.6973 368.818C46.2299 368.818 45.8256 368.934 45.4842 369.166C45.1461 369.395 44.8859 369.693 44.7037 370.061C44.5214 370.429 44.4302 370.823 44.4302 371.244V371.92C44.4302 372.497 44.5297 372.986 44.7285 373.387C44.9307 373.785 45.2108 374.088 45.5687 374.297C45.9267 374.502 46.3426 374.605 46.8166 374.605C47.1248 374.605 47.4032 374.562 47.6518 374.476C47.9037 374.386 48.1208 374.254 48.3031 374.078C48.4854 373.899 48.6262 373.677 48.7257 373.412L49.8592 373.73C49.7399 374.115 49.5394 374.453 49.2576 374.744C48.9759 375.033 48.6279 375.258 48.2136 375.42C47.7993 375.58 47.3336 375.659 46.8166 375.659ZM56.5758 372.378V367.864H57.7491V375.5H56.5758V374.207H56.4963C56.3173 374.595 56.0389 374.925 55.661 375.197C55.2832 375.465 54.8059 375.599 54.2292 375.599C53.752 375.599 53.3277 375.495 52.9565 375.286C52.5853 375.074 52.2936 374.756 52.0815 374.332C51.8694 373.904 51.7633 373.366 51.7633 372.716V367.864H52.9366V372.636C52.9366 373.193 53.0924 373.637 53.4039 373.969C53.7188 374.3 54.1199 374.466 54.6071 374.466C54.8987 374.466 55.1954 374.391 55.497 374.242C55.8019 374.093 56.0571 373.864 56.2626 373.556C56.4714 373.248 56.5758 372.855 56.5758 372.378ZM59.8981 375.5V367.864H61.0316V369.017H61.1112C61.2504 368.639 61.5022 368.333 61.8668 368.097C62.2314 367.862 62.6424 367.744 63.0998 367.744C63.186 367.744 63.2937 367.746 63.4229 367.749C63.5522 367.753 63.65 367.758 63.7163 367.764V368.957C63.6765 368.947 63.5853 368.933 63.4428 368.913C63.3036 368.889 63.1561 368.878 63.0004 368.878C62.6291 368.878 62.2977 368.956 62.006 369.112C61.7177 369.264 61.489 369.476 61.32 369.748C61.1542 370.016 61.0714 370.323 61.0714 370.668V375.5H59.8981ZM67.9769 375.659C67.2875 375.659 66.6826 375.495 66.1623 375.167C65.6452 374.839 65.2409 374.38 64.9492 373.79C64.6609 373.2 64.5167 372.51 64.5167 371.722C64.5167 370.926 64.6609 370.232 64.9492 369.638C65.2409 369.045 65.6452 368.585 66.1623 368.256C66.6826 367.928 67.2875 367.764 67.9769 367.764C68.6663 367.764 69.2695 367.928 69.7866 368.256C70.3069 368.585 70.7113 369.045 70.9996 369.638C71.2913 370.232 71.4371 370.926 71.4371 371.722C71.4371 372.51 71.2913 373.2 70.9996 373.79C70.7113 374.38 70.3069 374.839 69.7866 375.167C69.2695 375.495 68.6663 375.659 67.9769 375.659ZM67.9769 374.605C68.5006 374.605 68.9315 374.471 69.2695 374.202C69.6076 373.934 69.8578 373.581 70.0202 373.143C70.1826 372.706 70.2638 372.232 70.2638 371.722C70.2638 371.211 70.1826 370.736 70.0202 370.295C69.8578 369.854 69.6076 369.498 69.2695 369.226C68.9315 368.954 68.5006 368.818 67.9769 368.818C67.4532 368.818 67.0224 368.954 66.6843 369.226C66.3462 369.498 66.096 369.854 65.9336 370.295C65.7712 370.736 65.69 371.211 65.69 371.722C65.69 372.232 65.7712 372.706 65.9336 373.143C66.096 373.581 66.3462 373.934 66.6843 374.202C67.0224 374.471 67.4532 374.605 67.9769 374.605ZM74.4015 365.318V375.5H73.2282V365.318H74.4015ZM79.6527 375.659C78.9633 375.659 78.3584 375.495 77.8381 375.167C77.321 374.839 76.9167 374.38 76.625 373.79C76.3366 373.2 76.1925 372.51 76.1925 371.722C76.1925 370.926 76.3366 370.232 76.625 369.638C76.9167 369.045 77.321 368.585 77.8381 368.256C78.3584 367.928 78.9633 367.764 79.6527 367.764C80.3421 367.764 80.9453 367.928 81.4624 368.256C81.9827 368.585 82.3871 369.045 82.6754 369.638C82.9671 370.232 83.1129 370.926 83.1129 371.722C83.1129 372.51 82.9671 373.2 82.6754 373.79C82.3871 374.38 81.9827 374.839 81.4624 375.167C80.9453 375.495 80.3421 375.659 79.6527 375.659ZM79.6527 374.605C80.1764 374.605 80.6072 374.471 80.9453 374.202C81.2834 373.934 81.5336 373.581 81.696 373.143C81.8584 372.706 81.9396 372.232 81.9396 371.722C81.9396 371.211 81.8584 370.736 81.696 370.295C81.5336 369.854 81.2834 369.498 80.9453 369.226C80.6072 368.954 80.1764 368.818 79.6527 368.818C79.129 368.818 78.6982 368.954 78.3601 369.226C78.022 369.498 77.7718 369.854 77.6094 370.295C77.447 370.736 77.3658 371.211 77.3658 371.722C77.3658 372.232 77.447 372.706 77.6094 373.143C77.7718 373.581 78.022 373.934 78.3601 374.202C78.6982 374.471 79.129 374.605 79.6527 374.605ZM87.9863 378.523C87.4196 378.523 86.9324 378.45 86.5247 378.304C86.117 378.161 85.7773 377.973 85.5055 377.737C85.237 377.505 85.0233 377.257 84.8642 376.991L85.7988 376.335C85.9049 376.474 86.0391 376.634 86.2015 376.812C86.3639 376.995 86.586 377.152 86.8677 377.285C87.1528 377.421 87.5256 377.489 87.9863 377.489C88.6028 377.489 89.1116 377.339 89.5126 377.041C89.9136 376.743 90.1142 376.276 90.1142 375.639V374.088H90.0147C89.9286 374.227 89.8059 374.4 89.6468 374.605C89.4911 374.807 89.2657 374.988 88.9707 375.147C88.679 375.303 88.2846 375.381 87.7875 375.381C87.171 375.381 86.6175 375.235 86.127 374.943C85.6397 374.652 85.2536 374.227 84.9686 373.67C84.6868 373.114 84.546 372.437 84.546 371.642C84.546 370.86 84.6835 370.179 84.9586 369.599C85.2337 369.015 85.6165 368.565 86.1071 368.246C86.5976 367.925 87.1644 367.764 87.8074 367.764C88.3045 367.764 88.6989 367.847 88.9906 368.013C89.2856 368.175 89.5109 368.361 89.6667 368.57C89.8258 368.775 89.9484 368.944 90.0346 369.077H90.1539V367.864H91.2875V375.719C91.2875 376.375 91.1383 376.909 90.84 377.32C90.545 377.734 90.1473 378.037 89.6468 378.229C89.1497 378.425 88.5962 378.523 87.9863 378.523ZM87.9466 374.327C88.4172 374.327 88.8149 374.219 89.1397 374.004C89.4645 373.788 89.7115 373.478 89.8805 373.074C90.0495 372.67 90.1341 372.186 90.1341 371.622C90.1341 371.072 90.0512 370.586 89.8855 370.165C89.7198 369.745 89.4745 369.415 89.1497 369.176C88.8249 368.937 88.4238 368.818 87.9466 368.818C87.4494 368.818 87.0351 368.944 86.7037 369.196C86.3755 369.448 86.1286 369.786 85.9629 370.21C85.8005 370.634 85.7193 371.105 85.7193 371.622C85.7193 372.152 85.8021 372.621 85.9679 373.029C86.1369 373.433 86.3855 373.752 86.7136 373.984C87.045 374.212 87.456 374.327 87.9466 374.327ZM93.4352 375.5V367.864H94.6085V375.5H93.4352ZM94.0318 366.591C93.8031 366.591 93.6059 366.513 93.4402 366.357C93.2778 366.201 93.1966 366.014 93.1966 365.795C93.1966 365.577 93.2778 365.389 93.4402 365.234C93.6059 365.078 93.8031 365 94.0318 365C94.2605 365 94.456 365.078 94.6184 365.234C94.7842 365.389 94.867 365.577 94.867 365.795C94.867 366.014 94.7842 366.201 94.6184 366.357C94.456 366.513 94.2605 366.591 94.0318 366.591ZM102.167 369.574L101.113 369.872C101.046 369.696 100.949 369.526 100.819 369.36C100.693 369.191 100.521 369.052 100.302 368.942C100.083 368.833 99.8034 368.778 99.462 368.778C98.9947 368.778 98.6052 368.886 98.2937 369.102C97.9854 369.314 97.8313 369.584 97.8313 369.912C97.8313 370.204 97.9374 370.434 98.1495 370.603C98.3616 370.772 98.6931 370.913 99.1438 371.026L100.277 371.304C100.96 371.47 101.469 371.723 101.804 372.065C102.138 372.403 102.306 372.839 102.306 373.372C102.306 373.81 102.18 374.201 101.928 374.545C101.679 374.89 101.331 375.162 100.884 375.361C100.436 375.56 99.9161 375.659 99.3228 375.659C98.5439 375.659 97.8993 375.49 97.3888 375.152C96.8784 374.814 96.5553 374.32 96.4194 373.67L97.533 373.392C97.6391 373.803 97.8396 374.111 98.1346 374.317C98.4329 374.522 98.8223 374.625 99.3029 374.625C99.8498 374.625 100.284 374.509 100.605 374.277C100.93 374.042 101.093 373.76 101.093 373.432C101.093 373.167 101 372.945 100.814 372.766C100.629 372.583 100.344 372.447 99.9592 372.358L98.6864 372.06C97.9871 371.894 97.4734 371.637 97.1452 371.289C96.8204 370.938 96.658 370.499 96.658 369.972C96.658 369.541 96.779 369.16 97.021 368.828C97.2662 368.497 97.5993 368.237 98.0202 368.048C98.4445 367.859 98.9251 367.764 99.462 367.764C100.218 367.764 100.811 367.93 101.242 368.261C101.676 368.593 101.984 369.03 102.167 369.574ZM107.393 367.864V368.858H103.436V367.864H107.393ZM104.589 366.034H105.762V373.312C105.762 373.644 105.81 373.893 105.906 374.058C106.006 374.221 106.132 374.33 106.284 374.386C106.44 374.439 106.604 374.466 106.776 374.466C106.906 374.466 107.012 374.459 107.095 374.446C107.177 374.429 107.244 374.416 107.294 374.406L107.532 375.46C107.453 375.49 107.342 375.52 107.199 375.55C107.057 375.583 106.876 375.599 106.657 375.599C106.326 375.599 106.001 375.528 105.683 375.386C105.368 375.243 105.106 375.026 104.897 374.734C104.692 374.443 104.589 374.075 104.589 373.631V366.034Z" fill="#1F2A37"/>
<path d="M16 446.5C16 442.082 19.5817 438.5 24 438.5H366C370.418 438.5 374 442.082 374 446.5V475.5C374 479.918 370.418 483.5 366 483.5H24C19.5817 483.5 16 479.918 16 475.5V446.5Z" fill="#095D7E"/>
<path d="M173.719 459.754H171.86C171.807 459.449 171.709 459.179 171.567 458.943C171.424 458.705 171.247 458.502 171.035 458.337C170.823 458.171 170.581 458.047 170.309 457.964C170.04 457.878 169.75 457.835 169.439 457.835C168.885 457.835 168.395 457.974 167.967 458.252C167.54 458.527 167.205 458.932 166.963 459.465C166.721 459.996 166.6 460.643 166.6 461.409C166.6 462.188 166.721 462.844 166.963 463.378C167.208 463.908 167.543 464.309 167.967 464.581C168.395 464.849 168.884 464.984 169.434 464.984C169.739 464.984 170.024 464.944 170.289 464.864C170.558 464.781 170.798 464.661 171.01 464.501C171.225 464.342 171.406 464.147 171.552 463.915C171.701 463.683 171.804 463.418 171.86 463.119L173.719 463.129C173.65 463.613 173.499 464.067 173.267 464.491C173.038 464.916 172.738 465.29 172.367 465.615C171.996 465.937 171.562 466.188 171.065 466.371C170.567 466.55 170.016 466.639 169.409 466.639C168.514 466.639 167.715 466.432 167.013 466.018C166.31 465.603 165.757 465.005 165.352 464.223C164.948 463.441 164.746 462.503 164.746 461.409C164.746 460.312 164.95 459.374 165.357 458.595C165.765 457.813 166.32 457.215 167.023 456.8C167.725 456.386 168.521 456.179 169.409 456.179C169.976 456.179 170.503 456.259 170.99 456.418C171.477 456.577 171.911 456.81 172.293 457.119C172.674 457.424 172.987 457.798 173.232 458.242C173.481 458.683 173.643 459.187 173.719 459.754ZM178.66 466.649C177.914 466.649 177.268 466.485 176.721 466.157C176.174 465.829 175.75 465.37 175.448 464.78C175.15 464.19 175.001 463.5 175.001 462.712C175.001 461.923 175.15 461.232 175.448 460.638C175.75 460.045 176.174 459.585 176.721 459.256C177.268 458.928 177.914 458.764 178.66 458.764C179.406 458.764 180.052 458.928 180.599 459.256C181.146 459.585 181.568 460.045 181.867 460.638C182.168 461.232 182.319 461.923 182.319 462.712C182.319 463.5 182.168 464.19 181.867 464.78C181.568 465.37 181.146 465.829 180.599 466.157C180.052 466.485 179.406 466.649 178.66 466.649ZM178.67 465.207C179.074 465.207 179.412 465.096 179.684 464.874C179.956 464.649 180.158 464.347 180.291 463.969C180.427 463.592 180.494 463.171 180.494 462.707C180.494 462.239 180.427 461.817 180.291 461.439C180.158 461.058 179.956 460.754 179.684 460.529C179.412 460.304 179.074 460.191 178.67 460.191C178.256 460.191 177.911 460.304 177.636 460.529C177.364 460.754 177.16 461.058 177.024 461.439C176.892 461.817 176.825 462.239 176.825 462.707C176.825 463.171 176.892 463.592 177.024 463.969C177.16 464.347 177.364 464.649 177.636 464.874C177.911 465.096 178.256 465.207 178.67 465.207ZM185.646 462.026V466.5H183.847V458.864H185.567V460.161H185.656C185.832 459.734 186.112 459.394 186.496 459.142C186.884 458.89 187.363 458.764 187.933 458.764C188.46 458.764 188.919 458.877 189.31 459.102C189.705 459.328 190.01 459.654 190.225 460.082C190.444 460.509 190.552 461.028 190.548 461.638V466.5H188.749V461.916C188.749 461.406 188.616 461.006 188.351 460.718C188.089 460.43 187.726 460.286 187.262 460.286C186.947 460.286 186.667 460.355 186.422 460.494C186.18 460.63 185.989 460.827 185.85 461.086C185.714 461.344 185.646 461.658 185.646 462.026ZM196.191 458.864V460.256H191.801V458.864H196.191ZM192.885 457.034H194.685V464.203C194.685 464.445 194.721 464.631 194.794 464.76C194.87 464.886 194.97 464.972 195.092 465.018C195.215 465.065 195.351 465.088 195.5 465.088C195.613 465.088 195.715 465.08 195.808 465.063C195.904 465.047 195.977 465.032 196.027 465.018L196.33 466.425C196.234 466.459 196.097 466.495 195.918 466.535C195.742 466.575 195.527 466.598 195.271 466.604C194.821 466.618 194.415 466.55 194.053 466.401C193.692 466.248 193.405 466.013 193.193 465.695C192.984 465.376 192.882 464.979 192.885 464.501V457.034ZM197.696 466.5V458.864H199.496V466.5H197.696ZM198.601 457.78C198.316 457.78 198.071 457.685 197.865 457.496C197.66 457.304 197.557 457.074 197.557 456.805C197.557 456.534 197.66 456.303 197.865 456.114C198.071 455.922 198.316 455.826 198.601 455.826C198.889 455.826 199.135 455.922 199.337 456.114C199.542 456.303 199.645 456.534 199.645 456.805C199.645 457.074 199.542 457.304 199.337 457.496C199.135 457.685 198.889 457.78 198.601 457.78ZM203.146 462.026V466.5H201.347V458.864H203.067V460.161H203.156C203.332 459.734 203.612 459.394 203.996 459.142C204.384 458.89 204.863 458.764 205.433 458.764C205.96 458.764 206.419 458.877 206.81 459.102C207.205 459.328 207.51 459.654 207.725 460.082C207.944 460.509 208.052 461.028 208.048 461.638V466.5H206.249V461.916C206.249 461.406 206.116 461.006 205.851 460.718C205.589 460.43 205.226 460.286 204.762 460.286C204.447 460.286 204.167 460.355 203.922 460.494C203.68 460.63 203.489 460.827 203.35 461.086C203.214 461.344 203.146 461.658 203.146 462.026ZM214.745 463.288V458.864H216.545V466.5H214.8V465.143H214.72C214.548 465.57 214.264 465.92 213.87 466.192C213.479 466.464 212.997 466.599 212.423 466.599C211.923 466.599 211.48 466.488 211.096 466.266C210.715 466.041 210.416 465.714 210.201 465.287C209.986 464.856 209.878 464.336 209.878 463.726V458.864H211.678V463.447C211.678 463.931 211.81 464.316 212.075 464.601C212.34 464.886 212.688 465.028 213.119 465.028C213.384 465.028 213.641 464.964 213.89 464.835C214.138 464.705 214.342 464.513 214.501 464.258C214.664 463.999 214.745 463.676 214.745 463.288ZM221.776 466.649C221.01 466.649 220.349 466.49 219.792 466.172C219.239 465.85 218.813 465.396 218.515 464.81C218.216 464.22 218.067 463.525 218.067 462.727C218.067 461.941 218.216 461.252 218.515 460.658C218.816 460.062 219.237 459.598 219.778 459.266C220.318 458.932 220.952 458.764 221.682 458.764C222.152 458.764 222.596 458.84 223.014 458.993C223.435 459.142 223.806 459.374 224.128 459.689C224.452 460.004 224.708 460.405 224.893 460.892C225.079 461.376 225.172 461.953 225.172 462.622V463.174H218.912V461.961H223.447C223.443 461.616 223.369 461.31 223.223 461.041C223.077 460.769 222.873 460.556 222.611 460.4C222.353 460.244 222.051 460.166 221.706 460.166C221.339 460.166 221.015 460.256 220.737 460.435C220.459 460.61 220.242 460.842 220.086 461.131C219.933 461.416 219.855 461.729 219.852 462.07V463.129C219.852 463.573 219.933 463.955 220.096 464.273C220.258 464.588 220.485 464.83 220.777 464.999C221.068 465.164 221.41 465.247 221.801 465.247C222.063 465.247 222.3 465.211 222.512 465.138C222.724 465.062 222.908 464.951 223.064 464.805C223.22 464.659 223.337 464.478 223.417 464.263L225.097 464.452C224.991 464.896 224.789 465.284 224.491 465.615C224.196 465.943 223.818 466.198 223.357 466.381C222.896 466.56 222.369 466.649 221.776 466.649Z" fill="white"/>
<path d="M52.0166 19.7231C52.6585 19.7231 53.2673 19.8421 53.8428 20.0801C54.4183 20.3125 54.9274 20.6777 55.3701 21.1758C55.8184 21.6683 56.1698 22.3019 56.4243 23.0767C56.6789 23.8459 56.8062 24.7728 56.8062 25.8574V25.874C56.8062 27.2188 56.6125 28.3698 56.2251 29.3271C55.8377 30.2845 55.2816 31.0205 54.5566 31.5352C53.8372 32.0443 52.9767 32.2988 51.9751 32.2988C51.2391 32.2988 50.575 32.166 49.9829 31.9004C49.3963 31.6292 48.9093 31.2585 48.522 30.7881C48.1401 30.3122 47.8828 29.7699 47.75 29.1611L47.7334 29.0698H49.8335L49.8667 29.1528C49.9718 29.4295 50.1213 29.673 50.3149 29.8833C50.5142 30.0936 50.7521 30.2568 51.0288 30.373C51.311 30.4837 51.6265 30.5391 51.9751 30.5391C52.606 30.5391 53.1206 30.3537 53.519 29.9829C53.923 29.6066 54.2246 29.1058 54.4238 28.4805C54.6286 27.8496 54.7448 27.1523 54.7725 26.3887C54.778 26.3057 54.7808 26.2254 54.7808 26.1479C54.7808 26.0649 54.7808 25.9847 54.7808 25.9072L54.4072 23.9067C54.4072 23.453 54.3021 23.0407 54.0918 22.6699C53.8815 22.2992 53.5965 22.0059 53.2368 21.79C52.8826 21.5742 52.4814 21.4663 52.0332 21.4663C51.6016 21.4663 51.2059 21.5715 50.8462 21.7817C50.4865 21.992 50.1987 22.2798 49.9829 22.645C49.7671 23.0047 49.6592 23.4087 49.6592 23.8569V23.8735C49.6592 24.3384 49.7616 24.7507 49.9663 25.1104C50.1711 25.4645 50.4505 25.744 50.8047 25.9487C51.1589 26.1535 51.5628 26.2559 52.0166 26.2559C52.4704 26.2559 52.8771 26.1562 53.2368 25.957C53.5965 25.7578 53.8815 25.4811 54.0918 25.127C54.3021 24.7728 54.4072 24.3716 54.4072 23.9233V23.9067H54.9053V26.1147H54.6147C54.4709 26.4302 54.2578 26.7235 53.9756 26.9946C53.6934 27.2658 53.3447 27.4844 52.9297 27.6504C52.5202 27.8164 52.0387 27.8994 51.4854 27.8994C50.7217 27.8994 50.0465 27.7279 49.46 27.3848C48.8734 27.0417 48.4113 26.5713 48.0737 25.9736C47.7417 25.376 47.5757 24.7008 47.5757 23.9482V23.9316C47.5757 23.1182 47.7638 22.396 48.1401 21.7651C48.522 21.1287 49.0477 20.6307 49.7173 20.271C50.3924 19.9058 51.1589 19.7231 52.0166 19.7231ZM60.0747 30.3896C59.6984 30.3896 59.383 30.2651 59.1284 30.0161C58.8794 29.7616 58.7549 29.4517 58.7549 29.0864C58.7549 28.7157 58.8794 28.4058 59.1284 28.1567C59.383 27.9022 59.6984 27.7749 60.0747 27.7749C60.4565 27.7749 60.772 27.9022 61.021 28.1567C61.27 28.4058 61.3945 28.7157 61.3945 29.0864C61.3945 29.4517 61.27 29.7616 61.021 30.0161C60.772 30.2651 60.4565 30.3896 60.0747 30.3896ZM60.0747 24.2305C59.6984 24.2305 59.383 24.106 59.1284 23.8569C58.8794 23.6024 58.7549 23.2925 58.7549 22.9272C58.7549 22.5565 58.8794 22.2466 59.1284 21.9976C59.383 21.743 59.6984 21.6157 60.0747 21.6157C60.4565 21.6157 60.772 21.743 61.021 21.9976C61.27 22.2466 61.3945 22.5565 61.3945 22.9272C61.3945 23.2925 61.27 23.6024 61.021 23.8569C60.772 24.106 60.4565 24.2305 60.0747 24.2305ZM69.1538 32V29.7007H63.2935V27.9492C63.6089 27.4124 63.9243 26.8729 64.2397 26.3306C64.5607 25.7882 64.8844 25.2487 65.2109 24.7119C65.543 24.1696 65.8722 23.6356 66.1987 23.1099C66.5308 22.5786 66.86 22.0557 67.1865 21.541C67.5186 21.0208 67.8506 20.5145 68.1826 20.022H71.1958V27.9326H72.8145V29.7007H71.1958V32H69.1538ZM65.2856 27.9824H69.187V21.7319H69.0625C68.819 22.1082 68.5672 22.4956 68.3071 22.894C68.0526 23.2925 67.7952 23.6992 67.5352 24.1143C67.2751 24.5293 67.0177 24.9471 66.7632 25.3677C66.5086 25.7827 66.2568 26.2005 66.0078 26.6211C65.7588 27.0361 65.5181 27.4484 65.2856 27.8579V27.9824ZM77.27 32V22.1304H77.1206L74.1406 24.2305V22.2217L77.27 20.022H79.4033V32H77.27Z" fill="black"/>
<path fill-rule="evenodd" clip-rule="evenodd" d="M303.804 19.4999H302.637C301.993 19.4999 301.471 20.0036 301.471 20.6249V30.3749C301.471 30.9963 301.993 31.4999 302.637 31.4999H303.804C304.448 31.4999 304.971 30.9963 304.971 30.3749V20.6249C304.971 20.0036 304.448 19.4999 303.804 19.4999ZM297.147 22.1251H298.314C298.958 22.1251 299.48 22.6288 299.48 23.2501V30.3751C299.48 30.9964 298.958 31.5001 298.314 31.5001H297.147C296.503 31.5001 295.98 30.9964 295.98 30.3751V23.2501C295.98 22.6288 296.503 22.1251 297.147 22.1251ZM292.824 24.7499H291.657C291.013 24.7499 290.49 25.2535 290.49 25.8749V30.3749C290.49 30.9962 291.013 31.4999 291.657 31.4999H292.824C293.468 31.4999 293.99 30.9962 293.99 30.3749V25.8749C293.99 25.2535 293.468 24.7499 292.824 24.7499ZM287.333 26.9998H286.167C285.522 26.9998 285 27.5035 285 28.1248V30.3748C285 30.9961 285.522 31.4998 286.167 31.4998H287.333C287.978 31.4998 288.5 30.9961 288.5 30.3748V28.1248C288.5 27.5035 287.978 26.9998 287.333 26.9998Z" fill="black"/>
<path fill-rule="evenodd" clip-rule="evenodd" d="M320.471 21.846C322.938 21.8461 325.31 22.8167 327.097 24.5571C327.232 24.6915 327.447 24.6898 327.58 24.5533L328.867 23.2234C328.934 23.1542 328.971 23.0604 328.971 22.9629C328.97 22.8653 328.932 22.772 328.864 22.7036C324.172 18.0988 316.77 18.0988 312.078 22.7036C312.01 22.772 311.971 22.8652 311.971 22.9628C311.97 23.0603 312.007 23.1541 312.074 23.2234L313.362 24.5533C313.494 24.69 313.709 24.6917 313.844 24.5571C315.632 22.8166 318.004 21.846 320.471 21.846ZM320.471 26.1727C321.826 26.1726 323.133 26.6884 324.138 27.62C324.274 27.7522 324.488 27.7493 324.62 27.6135L325.905 26.2836C325.973 26.2139 326.011 26.1192 326.01 26.0209C326.009 25.9226 325.969 25.8287 325.9 25.7604C322.841 22.8463 318.104 22.8463 315.045 25.7604C314.975 25.8287 314.936 25.9226 314.935 26.021C314.934 26.1193 314.972 26.214 315.04 26.2836L316.325 27.6135C316.457 27.7493 316.671 27.7522 316.807 27.62C317.811 26.689 319.117 26.1732 320.471 26.1727ZM323.046 29.084C323.048 29.1826 323.01 29.2777 322.941 29.3468L320.718 31.6445C320.653 31.712 320.564 31.75 320.471 31.75C320.378 31.75 320.289 31.712 320.224 31.6445L318.001 29.3468C317.932 29.2776 317.894 29.1825 317.896 29.0839C317.898 28.9853 317.94 28.8919 318.011 28.8258C319.431 27.596 321.511 27.596 322.931 28.8258C323.002 28.892 323.044 28.9854 323.046 29.084Z" fill="black"/>
<rect opacity="0.4" x="336.471" y="19.5" width="24" height="12" rx="3.5" stroke="black"/>
<path opacity="0.5" d="M361.971 23.5V27.5C362.777 27.1612 363.301 26.3731 363.301 25.5C363.301 24.6269 362.777 23.8388 361.971 23.5Z" fill="black"/>
<rect x="337.971" y="21" width="17" height="9" rx="2" fill="black"/>
<path d="M317.925 106.821V132.78C317.925 138.497 316.499 142.747 313.647 145.528C310.794 148.309 306.649 149.7 301.211 149.7C298.32 149.7 295.582 149.333 292.996 148.599C290.448 147.865 288.299 146.803 286.55 145.412L290.087 138.922C291.38 140.004 292.958 140.854 294.821 141.472C296.685 142.09 298.567 142.399 300.469 142.399C303.435 142.399 305.603 141.704 306.972 140.313C308.341 138.922 309.026 136.798 309.026 133.939V132.896C307.885 134.055 306.535 134.943 304.976 135.561C303.416 136.18 301.743 136.489 299.956 136.489C295.924 136.489 292.73 135.33 290.372 133.012C288.014 130.655 286.835 127.14 286.835 122.466V106.821H295.734V121.133C295.734 126.194 297.807 128.724 301.952 128.724C304.082 128.724 305.793 128.029 307.086 126.638C308.379 125.209 309.026 123.103 309.026 120.322V106.821H317.925Z" fill="#14967F"/>
<path d="M270.938 110.935C272.003 109.428 273.429 108.289 275.217 107.516C277.042 106.744 279.134 106.357 281.492 106.357V114.701C280.503 114.624 279.837 114.585 279.495 114.585C276.947 114.585 274.95 115.319 273.505 116.787C272.06 118.217 271.337 120.38 271.337 123.277V137.995H262.438V106.821H270.938V110.935Z" fill="#14967F"/>
<path d="M254.199 106.821V137.995H245.699V134.403C243.493 137.107 240.299 138.459 236.115 138.459C233.225 138.459 230.601 137.802 228.243 136.489C225.923 135.175 224.098 133.302 222.767 130.868C221.435 128.434 220.77 125.614 220.77 122.408C220.77 119.202 221.435 116.382 222.767 113.948C224.098 111.514 225.923 109.641 228.243 108.327C230.601 107.014 233.225 106.357 236.115 106.357C240.033 106.357 243.094 107.613 245.3 110.124V106.821H254.199ZM237.656 131.042C239.899 131.042 241.763 130.269 243.246 128.724C244.729 127.14 245.471 125.035 245.471 122.408C245.471 119.781 244.729 117.695 243.246 116.15C241.763 114.566 239.899 113.774 237.656 113.774C235.374 113.774 233.491 114.566 232.008 116.15C230.525 117.695 229.783 119.781 229.783 122.408C229.783 125.035 230.525 127.14 232.008 128.724C233.491 130.269 235.374 131.042 237.656 131.042Z" fill="#14967F"/>
<path d="M195.415 95V137.995H186.916V134.403C184.71 137.107 181.515 138.459 177.332 138.459C174.441 138.459 171.817 137.802 169.459 136.489C167.14 135.175 165.314 133.302 163.983 130.868C162.652 128.434 161.986 125.614 161.986 122.408C161.986 119.202 162.652 116.382 163.983 113.948C165.314 111.514 167.14 109.641 169.459 108.327C171.817 107.014 174.441 106.357 177.332 106.357C181.249 106.357 184.31 107.613 186.516 110.124V95H195.415ZM178.872 131.042C181.116 131.042 182.979 130.269 184.463 128.724C185.946 127.14 186.687 125.035 186.687 122.408C186.687 119.781 185.946 117.695 184.463 116.15C182.979 114.566 181.116 113.774 178.872 113.774C176.59 113.774 174.708 114.566 173.224 116.15C171.741 117.695 171 119.781 171 122.408C171 125.035 171.741 127.14 173.224 128.724C174.708 130.269 176.59 131.042 178.872 131.042Z" fill="#095D7E"/>
<path d="M143.625 131.216C145.223 131.216 146.63 130.984 147.847 130.52C149.102 130.018 150.262 129.245 151.327 128.202L156.062 133.417C153.171 136.778 148.95 138.459 143.397 138.459C139.936 138.459 136.875 137.783 134.213 136.431C131.551 135.04 129.497 133.128 128.052 130.694C126.607 128.26 125.884 125.498 125.884 122.408C125.884 119.356 126.588 116.613 127.995 114.18C129.44 111.707 131.399 109.795 133.871 108.443C136.381 107.053 139.195 106.357 142.313 106.357C145.242 106.357 147.904 106.995 150.3 108.269C152.696 109.506 154.597 111.321 156.004 113.716C157.45 116.073 158.172 118.873 158.172 122.118L135.468 126.58C136.114 128.125 137.122 129.284 138.491 130.057C139.898 130.829 141.61 131.216 143.625 131.216ZM142.313 113.195C140.07 113.195 138.244 113.929 136.837 115.397C135.43 116.865 134.688 118.893 134.612 121.481L149.558 118.526C149.14 116.903 148.284 115.609 146.991 114.643C145.698 113.678 144.139 113.195 142.313 113.195Z" fill="#095D7E"/>
<path d="M107.305 106.357C111.146 106.357 114.188 107.516 116.432 109.834C118.714 112.113 119.855 115.551 119.855 120.148V137.995H110.956V121.539C110.956 119.066 110.442 117.232 109.416 116.034C108.427 114.798 107.001 114.18 105.137 114.18C103.045 114.18 101.391 114.875 100.174 116.266C98.957 117.618 98.3485 119.646 98.3485 122.35V137.995H89.4493V121.539C89.4493 116.633 87.5097 114.18 83.6306 114.18C81.5769 114.18 79.9416 114.875 78.7246 116.266C77.5076 117.618 76.8991 119.646 76.8991 122.35V137.995H67.9999V106.821H76.4998V110.413C77.6407 109.1 79.0288 108.096 80.6642 107.4C82.3375 106.705 84.163 106.357 86.1406 106.357C88.3084 106.357 90.267 106.801 92.0164 107.69C93.7658 108.54 95.1729 109.795 96.2378 111.456C97.4928 109.834 99.0711 108.578 100.973 107.69C102.912 106.801 105.023 106.357 107.305 106.357Z" fill="#095D7E"/>
<g clip-path="url(#clip0_1124_6195)">
<path d="M210.729 103.182C211.428 103.182 211.995 102.606 211.994 101.896L211.994 98.5533C211.994 97.8432 211.428 97.2675 210.729 97.2676C210.03 97.2676 209.463 97.8432 209.463 98.5533L209.463 101.896C209.463 102.606 210.03 103.182 210.729 103.182Z" fill="#2885AA"/>
<path d="M207.24 100.803L214.151 100.803C214.85 100.803 215.425 101.399 215.425 102.11L215.425 132.083C215.425 132.371 215.326 132.652 215.15 132.878L211.692 137.335C211.452 137.645 211.085 137.826 210.697 137.826C210.309 137.826 209.942 137.645 209.702 137.335L206.246 132.878C206.07 132.651 205.974 132.371 205.974 132.083L205.974 102.11C205.974 101.399 206.541 100.803 207.24 100.803Z" fill="#14967F"/>
<path d="M215.454 132.083C215.454 132.371 215.34 132.652 215.164 132.878L211.7 137.335C211.46 137.645 211.088 137.826 210.7 137.826C210.312 137.826 209.944 137.645 209.704 137.335L206.261 132.878C206.086 132.651 206.003 132.371 206.003 132.083L215.454 132.083Z" fill="#2885AA"/>
<path d="M210.729 97.2674C210.736 97.2674 210.744 97.2684 210.751 97.2686L210.751 103.181C210.744 103.181 210.736 103.182 210.729 103.182C210.03 103.182 209.463 102.606 209.463 101.896L209.463 98.5532C209.463 97.8431 210.03 97.2674 210.729 97.2674Z" fill="#095D7E"/>
<path d="M207.24 100.803L210.751 100.803L210.751 137.823C210.733 137.823 210.715 137.826 210.697 137.826C210.309 137.826 209.942 137.645 209.702 137.335L206.246 132.878C206.07 132.651 205.974 132.371 205.974 132.083L205.974 102.11C205.974 101.399 206.541 100.803 207.24 100.803Z" fill="#107261"/>
<path d="M210.751 132.083L210.751 137.823C210.734 137.823 210.717 137.826 210.7 137.826C210.312 137.826 209.943 137.645 209.703 137.335L206.261 132.878C206.086 132.651 206.003 132.371 206.003 132.083L210.751 132.083Z" fill="#095D7E"/>
<path d="M203.472 120.043C204.171 120.043 204.737 119.467 204.737 118.757L204.737 110.468L215.876 110.468C216.575 110.468 217.142 109.892 217.142 109.182C217.142 108.472 216.575 107.896 215.876 107.896L203.471 107.896C202.772 107.896 202.206 108.472 202.206 109.182L202.206 118.757C202.206 119.467 202.772 120.043 203.472 120.043Z" fill="#095D7E"/>
</g>
<path d="M96.7095 173.17C95.8345 173.17 95.0788 172.989 94.4425 172.625C93.8099 172.258 93.3232 171.739 92.9822 171.068C92.6413 170.394 92.4709 169.6 92.4709 168.688C92.4709 167.79 92.6413 167.002 92.9822 166.324C93.3269 165.642 93.808 165.112 94.4254 164.733C95.0429 164.35 95.7682 164.159 96.6016 164.159C97.1394 164.159 97.647 164.246 98.1243 164.42C98.6054 164.591 99.0296 164.856 99.397 165.216C99.7682 165.576 100.06 166.034 100.272 166.591C100.484 167.144 100.59 167.803 100.59 168.568V169.199H93.4368V167.812H98.6186C98.6148 167.419 98.5296 167.068 98.3629 166.761C98.1963 166.451 97.9633 166.206 97.6641 166.028C97.3686 165.85 97.0239 165.761 96.63 165.761C96.2095 165.761 95.8402 165.864 95.522 166.068C95.2038 166.269 94.9557 166.534 94.7777 166.864C94.6035 167.189 94.5144 167.547 94.5107 167.938V169.148C94.5107 169.655 94.6035 170.091 94.7891 170.455C94.9747 170.814 95.2341 171.091 95.5675 171.284C95.9008 171.473 96.291 171.568 96.7379 171.568C97.0372 171.568 97.308 171.527 97.5504 171.443C97.7929 171.356 98.0031 171.229 98.1811 171.062C98.3591 170.896 98.4936 170.689 98.5845 170.443L100.505 170.659C100.384 171.167 100.153 171.61 99.8118 171.989C99.4747 172.364 99.0429 172.655 98.5163 172.864C97.9898 173.068 97.3875 173.17 96.7095 173.17ZM106.751 164.273V165.864H101.592V164.273H106.751ZM102.881 173V163.449C102.881 162.862 103.003 162.373 103.245 161.983C103.491 161.593 103.821 161.301 104.234 161.108C104.647 160.915 105.105 160.818 105.609 160.818C105.965 160.818 106.281 160.847 106.558 160.903C106.834 160.96 107.039 161.011 107.171 161.057L106.762 162.648C106.675 162.621 106.565 162.595 106.433 162.568C106.3 162.538 106.152 162.523 105.989 162.523C105.607 162.523 105.336 162.616 105.177 162.801C105.022 162.983 104.944 163.244 104.944 163.585V173H102.881ZM112.782 164.273V165.864H107.623V164.273H112.782ZM108.913 173V163.449C108.913 162.862 109.034 162.373 109.276 161.983C109.522 161.593 109.852 161.301 110.265 161.108C110.678 160.915 111.136 160.818 111.64 160.818C111.996 160.818 112.312 160.847 112.589 160.903C112.865 160.96 113.07 161.011 113.202 161.057L112.793 162.648C112.706 162.621 112.596 162.595 112.464 162.568C112.331 162.538 112.183 162.523 112.021 162.523C111.638 162.523 111.367 162.616 111.208 162.801C111.053 162.983 110.975 163.244 110.975 163.585V173H108.913ZM117.871 173.17C117.019 173.17 116.281 172.983 115.656 172.608C115.031 172.233 114.546 171.708 114.201 171.034C113.86 170.36 113.69 169.572 113.69 168.67C113.69 167.769 113.86 166.979 114.201 166.301C114.546 165.623 115.031 165.097 115.656 164.722C116.281 164.347 117.019 164.159 117.871 164.159C118.724 164.159 119.462 164.347 120.087 164.722C120.712 165.097 121.195 165.623 121.536 166.301C121.881 166.979 122.053 167.769 122.053 168.67C122.053 169.572 121.881 170.36 121.536 171.034C121.195 171.708 120.712 172.233 120.087 172.608C119.462 172.983 118.724 173.17 117.871 173.17ZM117.883 171.523C118.345 171.523 118.731 171.396 119.042 171.142C119.353 170.884 119.584 170.54 119.735 170.108C119.89 169.676 119.968 169.195 119.968 168.665C119.968 168.131 119.89 167.648 119.735 167.216C119.584 166.78 119.353 166.434 119.042 166.176C118.731 165.919 118.345 165.79 117.883 165.79C117.409 165.79 117.015 165.919 116.701 166.176C116.39 166.434 116.157 166.78 116.002 167.216C115.851 167.648 115.775 168.131 115.775 168.665C115.775 169.195 115.851 169.676 116.002 170.108C116.157 170.54 116.39 170.884 116.701 171.142C117.015 171.396 117.409 171.523 117.883 171.523ZM123.799 173V164.273H125.793V165.727H125.884C126.043 165.223 126.316 164.835 126.702 164.562C127.093 164.286 127.538 164.148 128.038 164.148C128.151 164.148 128.278 164.153 128.418 164.165C128.562 164.172 128.682 164.186 128.776 164.205V166.097C128.689 166.066 128.551 166.04 128.362 166.017C128.176 165.991 127.996 165.977 127.822 165.977C127.447 165.977 127.11 166.059 126.81 166.222C126.515 166.381 126.282 166.602 126.112 166.886C125.941 167.17 125.856 167.498 125.856 167.869V173H123.799ZM134.969 164.273V165.864H129.952V164.273H134.969ZM131.191 162.182H133.248V170.375C133.248 170.652 133.29 170.864 133.373 171.011C133.46 171.155 133.574 171.254 133.714 171.307C133.854 171.36 134.009 171.386 134.18 171.386C134.308 171.386 134.426 171.377 134.532 171.358C134.642 171.339 134.725 171.322 134.782 171.307L135.129 172.915C135.019 172.953 134.862 172.994 134.657 173.04C134.456 173.085 134.21 173.112 133.918 173.119C133.403 173.134 132.939 173.057 132.526 172.886C132.113 172.712 131.786 172.443 131.543 172.08C131.305 171.716 131.187 171.261 131.191 170.716V162.182ZM138.934 161.364V173H136.877V161.364H138.934ZM144.913 173.17C144.038 173.17 143.282 172.989 142.646 172.625C142.013 172.258 141.526 171.739 141.185 171.068C140.844 170.394 140.674 169.6 140.674 168.688C140.674 167.79 140.844 167.002 141.185 166.324C141.53 165.642 142.011 165.112 142.629 164.733C143.246 164.35 143.971 164.159 144.805 164.159C145.343 164.159 145.85 164.246 146.327 164.42C146.808 164.591 147.233 164.856 147.6 165.216C147.971 165.576 148.263 166.034 148.475 166.591C148.687 167.144 148.793 167.803 148.793 168.568V169.199H141.64V167.812H146.822C146.818 167.419 146.733 167.068 146.566 166.761C146.399 166.451 146.166 166.206 145.867 166.028C145.572 165.85 145.227 165.761 144.833 165.761C144.413 165.761 144.043 165.864 143.725 166.068C143.407 166.269 143.159 166.534 142.981 166.864C142.807 167.189 142.718 167.547 142.714 167.938V169.148C142.714 169.655 142.807 170.091 142.992 170.455C143.178 170.814 143.437 171.091 143.771 171.284C144.104 171.473 144.494 171.568 144.941 171.568C145.24 171.568 145.511 171.527 145.754 171.443C145.996 171.356 146.206 171.229 146.384 171.062C146.562 170.896 146.697 170.689 146.788 170.443L148.708 170.659C148.587 171.167 148.356 171.61 148.015 171.989C147.678 172.364 147.246 172.655 146.719 172.864C146.193 173.068 145.591 173.17 144.913 173.17ZM157.431 166.58L155.556 166.784C155.503 166.595 155.41 166.417 155.278 166.25C155.149 166.083 154.975 165.949 154.755 165.847C154.535 165.744 154.266 165.693 153.948 165.693C153.52 165.693 153.16 165.786 152.869 165.972C152.581 166.157 152.439 166.398 152.442 166.693C152.439 166.947 152.531 167.153 152.721 167.312C152.914 167.472 153.232 167.602 153.675 167.705L155.164 168.023C155.99 168.201 156.603 168.483 157.005 168.869C157.41 169.256 157.615 169.761 157.619 170.386C157.615 170.936 157.454 171.42 157.136 171.841C156.821 172.258 156.384 172.583 155.823 172.818C155.263 173.053 154.619 173.17 153.891 173.17C152.823 173.17 151.963 172.947 151.312 172.5C150.66 172.049 150.272 171.422 150.147 170.619L152.153 170.426C152.244 170.82 152.437 171.117 152.732 171.318C153.028 171.519 153.412 171.619 153.886 171.619C154.374 171.619 154.766 171.519 155.062 171.318C155.361 171.117 155.511 170.869 155.511 170.574C155.511 170.324 155.414 170.117 155.221 169.955C155.031 169.792 154.736 169.667 154.335 169.58L152.846 169.267C152.009 169.093 151.389 168.799 150.988 168.386C150.586 167.97 150.388 167.443 150.391 166.807C150.388 166.269 150.533 165.803 150.829 165.409C151.128 165.011 151.543 164.705 152.073 164.489C152.607 164.269 153.223 164.159 153.92 164.159C154.942 164.159 155.747 164.377 156.335 164.812C156.925 165.248 157.291 165.837 157.431 166.58ZM166.212 166.58L164.337 166.784C164.284 166.595 164.192 166.417 164.059 166.25C163.93 166.083 163.756 165.949 163.536 165.847C163.317 165.744 163.048 165.693 162.729 165.693C162.301 165.693 161.942 165.786 161.65 165.972C161.362 166.157 161.22 166.398 161.224 166.693C161.22 166.947 161.313 167.153 161.502 167.312C161.695 167.472 162.013 167.602 162.457 167.705L163.945 168.023C164.771 168.201 165.385 168.483 165.786 168.869C166.192 169.256 166.396 169.761 166.4 170.386C166.396 170.936 166.235 171.42 165.917 171.841C165.603 172.258 165.165 172.583 164.604 172.818C164.044 173.053 163.4 173.17 162.673 173.17C161.604 173.17 160.745 172.947 160.093 172.5C159.442 172.049 159.053 171.422 158.928 170.619L160.934 170.426C161.025 170.82 161.218 171.117 161.513 171.318C161.809 171.519 162.193 171.619 162.667 171.619C163.156 171.619 163.548 171.519 163.843 171.318C164.142 171.117 164.292 170.869 164.292 170.574C164.292 170.324 164.195 170.117 164.002 169.955C163.813 169.792 163.517 169.667 163.116 169.58L161.627 169.267C160.79 169.093 160.171 168.799 159.769 168.386C159.368 167.97 159.169 167.443 159.173 166.807C159.169 166.269 159.315 165.803 159.61 165.409C159.909 165.011 160.324 164.705 160.854 164.489C161.388 164.269 162.004 164.159 162.701 164.159C163.724 164.159 164.529 164.377 165.116 164.812C165.707 165.248 166.072 165.837 166.212 166.58ZM175.928 173.17C175.053 173.17 174.298 172.989 173.661 172.625C173.029 172.258 172.542 171.739 172.201 171.068C171.86 170.394 171.69 169.6 171.69 168.688C171.69 167.79 171.86 167.002 172.201 166.324C172.546 165.642 173.027 165.112 173.644 164.733C174.262 164.35 174.987 164.159 175.82 164.159C176.358 164.159 176.866 164.246 177.343 164.42C177.824 164.591 178.248 164.856 178.616 165.216C178.987 165.576 179.279 166.034 179.491 166.591C179.703 167.144 179.809 167.803 179.809 168.568V169.199H172.656V167.812H177.837C177.834 167.419 177.748 167.068 177.582 166.761C177.415 166.451 177.182 166.206 176.883 166.028C176.587 165.85 176.243 165.761 175.849 165.761C175.428 165.761 175.059 165.864 174.741 166.068C174.423 166.269 174.174 166.534 173.996 166.864C173.822 167.189 173.733 167.547 173.729 167.938V169.148C173.729 169.655 173.822 170.091 174.008 170.455C174.193 170.814 174.453 171.091 174.786 171.284C175.12 171.473 175.51 171.568 175.957 171.568C176.256 171.568 176.527 171.527 176.769 171.443C177.012 171.356 177.222 171.229 177.4 171.062C177.578 170.896 177.712 170.689 177.803 170.443L179.724 170.659C179.603 171.167 179.371 171.61 179.031 171.989C178.693 172.364 178.262 172.655 177.735 172.864C177.209 173.068 176.606 173.17 175.928 173.17ZM183.606 167.886V173H181.549V164.273H183.515V165.756H183.617C183.818 165.267 184.138 164.879 184.577 164.591C185.021 164.303 185.568 164.159 186.219 164.159C186.822 164.159 187.346 164.288 187.793 164.545C188.244 164.803 188.593 165.176 188.839 165.665C189.089 166.153 189.212 166.746 189.208 167.443V173H187.151V167.761C187.151 167.178 187 166.722 186.697 166.392C186.397 166.062 185.983 165.898 185.452 165.898C185.093 165.898 184.772 165.977 184.492 166.136C184.216 166.292 183.998 166.517 183.839 166.812C183.683 167.108 183.606 167.466 183.606 167.886ZM195.106 173.17C194.235 173.17 193.487 172.979 192.862 172.597C192.24 172.214 191.761 171.686 191.424 171.011C191.091 170.333 190.924 169.553 190.924 168.67C190.924 167.784 191.094 167.002 191.435 166.324C191.776 165.642 192.257 165.112 192.879 164.733C193.504 164.35 194.242 164.159 195.094 164.159C195.803 164.159 196.43 164.29 196.975 164.551C197.524 164.809 197.962 165.174 198.288 165.648C198.613 166.117 198.799 166.667 198.844 167.295H196.879C196.799 166.875 196.61 166.525 196.31 166.244C196.015 165.96 195.619 165.818 195.123 165.818C194.702 165.818 194.333 165.932 194.015 166.159C193.697 166.383 193.449 166.705 193.271 167.125C193.096 167.545 193.009 168.049 193.009 168.636C193.009 169.231 193.096 169.742 193.271 170.17C193.445 170.595 193.689 170.922 194.004 171.153C194.322 171.381 194.695 171.494 195.123 171.494C195.426 171.494 195.697 171.437 195.935 171.324C196.178 171.206 196.38 171.038 196.543 170.818C196.706 170.598 196.818 170.331 196.879 170.017H198.844C198.795 170.634 198.613 171.182 198.299 171.659C197.985 172.133 197.557 172.504 197.015 172.773C196.473 173.038 195.837 173.17 195.106 173.17ZM204.34 173.17C203.488 173.17 202.749 172.983 202.124 172.608C201.499 172.233 201.014 171.708 200.67 171.034C200.329 170.36 200.158 169.572 200.158 168.67C200.158 167.769 200.329 166.979 200.67 166.301C201.014 165.623 201.499 165.097 202.124 164.722C202.749 164.347 203.488 164.159 204.34 164.159C205.192 164.159 205.931 164.347 206.556 164.722C207.181 165.097 207.664 165.623 208.005 166.301C208.35 166.979 208.522 167.769 208.522 168.67C208.522 169.572 208.35 170.36 208.005 171.034C207.664 171.708 207.181 172.233 206.556 172.608C205.931 172.983 205.192 173.17 204.34 173.17ZM204.352 171.523C204.814 171.523 205.2 171.396 205.511 171.142C205.821 170.884 206.052 170.54 206.204 170.108C206.359 169.676 206.437 169.195 206.437 168.665C206.437 168.131 206.359 167.648 206.204 167.216C206.052 166.78 205.821 166.434 205.511 166.176C205.2 165.919 204.814 165.79 204.352 165.79C203.878 165.79 203.484 165.919 203.17 166.176C202.859 166.434 202.626 166.78 202.471 167.216C202.319 167.648 202.244 168.131 202.244 168.665C202.244 169.195 202.319 169.676 202.471 170.108C202.626 170.54 202.859 170.884 203.17 171.142C203.484 171.396 203.878 171.523 204.352 171.523ZM215.83 169.33V164.273H217.887V173H215.893V171.449H215.802C215.605 171.937 215.281 172.337 214.83 172.648C214.383 172.958 213.832 173.114 213.177 173.114C212.605 173.114 212.099 172.987 211.66 172.733C211.224 172.475 210.883 172.102 210.637 171.614C210.391 171.121 210.268 170.527 210.268 169.83V164.273H212.325V169.511C212.325 170.064 212.476 170.504 212.779 170.83C213.082 171.155 213.48 171.318 213.972 171.318C214.275 171.318 214.569 171.244 214.853 171.097C215.137 170.949 215.37 170.729 215.552 170.438C215.737 170.142 215.83 169.773 215.83 169.33ZM222.059 167.886V173H220.002V164.273H221.968V165.756H222.07C222.271 165.267 222.591 164.879 223.031 164.591C223.474 164.303 224.021 164.159 224.673 164.159C225.275 164.159 225.799 164.288 226.246 164.545C226.697 164.803 227.046 165.176 227.292 165.665C227.542 166.153 227.665 166.746 227.661 167.443V173H225.604V167.761C225.604 167.178 225.453 166.722 225.15 166.392C224.851 166.062 224.436 165.898 223.906 165.898C223.546 165.898 223.226 165.977 222.945 166.136C222.669 166.292 222.451 166.517 222.292 166.812C222.137 167.108 222.059 167.466 222.059 167.886ZM234.11 164.273V165.864H229.093V164.273H234.11ZM230.332 162.182H232.388V170.375C232.388 170.652 232.43 170.864 232.513 171.011C232.601 171.155 232.714 171.254 232.854 171.307C232.995 171.36 233.15 171.386 233.32 171.386C233.449 171.386 233.567 171.377 233.673 171.358C233.782 171.339 233.866 171.322 233.923 171.307L234.269 172.915C234.159 172.953 234.002 172.994 233.798 173.04C233.597 173.085 233.351 173.112 233.059 173.119C232.544 173.134 232.08 173.057 231.667 172.886C231.254 172.712 230.926 172.443 230.684 172.08C230.445 171.716 230.328 171.261 230.332 170.716V162.182ZM239.6 173.17C238.725 173.17 237.969 172.989 237.333 172.625C236.701 172.258 236.214 171.739 235.873 171.068C235.532 170.394 235.362 169.6 235.362 168.688C235.362 167.79 235.532 167.002 235.873 166.324C236.218 165.642 236.699 165.112 237.316 164.733C237.933 164.35 238.659 164.159 239.492 164.159C240.03 164.159 240.538 164.246 241.015 164.42C241.496 164.591 241.92 164.856 242.288 165.216C242.659 165.576 242.951 166.034 243.163 166.591C243.375 167.144 243.481 167.803 243.481 168.568V169.199H236.327V167.812H241.509C241.505 167.419 241.42 167.068 241.254 166.761C241.087 166.451 240.854 166.206 240.555 166.028C240.259 165.85 239.915 165.761 239.521 165.761C239.1 165.761 238.731 165.864 238.413 166.068C238.094 166.269 237.846 166.534 237.668 166.864C237.494 167.189 237.405 167.547 237.401 167.938V169.148C237.401 169.655 237.494 170.091 237.68 170.455C237.865 170.814 238.125 171.091 238.458 171.284C238.791 171.473 239.182 171.568 239.629 171.568C239.928 171.568 240.199 171.527 240.441 171.443C240.683 171.356 240.894 171.229 241.072 171.062C241.25 170.896 241.384 170.689 241.475 170.443L243.396 170.659C243.274 171.167 243.043 171.61 242.702 171.989C242.365 172.364 241.933 172.655 241.407 172.864C240.88 173.068 240.278 173.17 239.6 173.17ZM245.221 173V164.273H247.215V165.727H247.306C247.465 165.223 247.738 164.835 248.124 164.562C248.514 164.286 248.96 164.148 249.46 164.148C249.573 164.148 249.7 164.153 249.84 164.165C249.984 164.172 250.103 164.186 250.198 164.205V166.097C250.111 166.066 249.973 166.04 249.783 166.017C249.598 165.991 249.418 165.977 249.244 165.977C248.869 165.977 248.531 166.059 248.232 166.222C247.937 166.381 247.704 166.602 247.533 166.886C247.363 167.17 247.278 167.498 247.278 167.869V173H245.221ZM257.59 167.886V173H255.533V164.273H257.499V165.756H257.602C257.802 165.267 258.122 164.879 258.562 164.591C259.005 164.303 259.552 164.159 260.204 164.159C260.806 164.159 261.331 164.288 261.778 164.545C262.228 164.803 262.577 165.176 262.823 165.665C263.073 166.153 263.196 166.746 263.192 167.443V173H261.136V167.761C261.136 167.178 260.984 166.722 260.681 166.392C260.382 166.062 259.967 165.898 259.437 165.898C259.077 165.898 258.757 165.977 258.477 166.136C258.2 166.292 257.982 166.517 257.823 166.812C257.668 167.108 257.59 167.466 257.59 167.886ZM269.09 173.17C268.238 173.17 267.499 172.983 266.874 172.608C266.249 172.233 265.764 171.708 265.42 171.034C265.079 170.36 264.908 169.572 264.908 168.67C264.908 167.769 265.079 166.979 265.42 166.301C265.764 165.623 266.249 165.097 266.874 164.722C267.499 164.347 268.238 164.159 269.09 164.159C269.942 164.159 270.681 164.347 271.306 164.722C271.931 165.097 272.414 165.623 272.755 166.301C273.1 166.979 273.272 167.769 273.272 168.67C273.272 169.572 273.1 170.36 272.755 171.034C272.414 171.708 271.931 172.233 271.306 172.608C270.681 172.983 269.942 173.17 269.09 173.17ZM269.102 171.523C269.564 171.523 269.95 171.396 270.261 171.142C270.571 170.884 270.802 170.54 270.954 170.108C271.109 169.676 271.187 169.195 271.187 168.665C271.187 168.131 271.109 167.648 270.954 167.216C270.802 166.78 270.571 166.434 270.261 166.176C269.95 165.919 269.564 165.79 269.102 165.79C268.628 165.79 268.234 165.919 267.92 166.176C267.609 166.434 267.376 166.78 267.221 167.216C267.069 167.648 266.994 168.131 266.994 168.665C266.994 169.195 267.069 169.676 267.221 170.108C267.376 170.54 267.609 170.884 267.92 171.142C268.234 171.396 268.628 171.523 269.102 171.523ZM279.376 164.273V165.864H274.359V164.273H279.376ZM275.597 162.182H277.654V170.375C277.654 170.652 277.696 170.864 277.779 171.011C277.866 171.155 277.98 171.254 278.12 171.307C278.26 171.36 278.415 171.386 278.586 171.386C278.715 171.386 278.832 171.377 278.938 171.358C279.048 171.339 279.131 171.322 279.188 171.307L279.535 172.915C279.425 172.953 279.268 172.994 279.063 173.04C278.862 173.085 278.616 173.112 278.325 173.119C277.809 173.134 277.345 173.057 276.933 172.886C276.52 172.712 276.192 172.443 275.95 172.08C275.711 171.716 275.594 171.261 275.597 170.716V162.182ZM284.866 173.17C283.991 173.17 283.235 172.989 282.599 172.625C281.966 172.258 281.479 171.739 281.138 171.068C280.798 170.394 280.627 169.6 280.627 168.688C280.627 167.79 280.798 167.002 281.138 166.324C281.483 165.642 281.964 165.112 282.582 164.733C283.199 164.35 283.924 164.159 284.758 164.159C285.296 164.159 285.803 164.246 286.281 164.42C286.762 164.591 287.186 164.856 287.553 165.216C287.924 165.576 288.216 166.034 288.428 166.591C288.64 167.144 288.746 167.803 288.746 168.568V169.199H281.593V167.812H286.775C286.771 167.419 286.686 167.068 286.519 166.761C286.353 166.451 286.12 166.206 285.82 166.028C285.525 165.85 285.18 165.761 284.786 165.761C284.366 165.761 283.996 165.864 283.678 166.068C283.36 166.269 283.112 166.534 282.934 166.864C282.76 167.189 282.671 167.547 282.667 167.938V169.148C282.667 169.655 282.76 170.091 282.945 170.455C283.131 170.814 283.39 171.091 283.724 171.284C284.057 171.473 284.447 171.568 284.894 171.568C285.193 171.568 285.464 171.527 285.707 171.443C285.949 171.356 286.159 171.229 286.337 171.062C286.515 170.896 286.65 170.689 286.741 170.443L288.661 170.659C288.54 171.167 288.309 171.61 287.968 171.989C287.631 172.364 287.199 172.655 286.673 172.864C286.146 173.068 285.544 173.17 284.866 173.17ZM297.384 166.58L295.509 166.784C295.456 166.595 295.363 166.417 295.231 166.25C295.102 166.083 294.928 165.949 294.708 165.847C294.488 165.744 294.219 165.693 293.901 165.693C293.473 165.693 293.113 165.786 292.822 165.972C292.534 166.157 292.392 166.398 292.396 166.693C292.392 166.947 292.485 167.153 292.674 167.312C292.867 167.472 293.185 167.602 293.629 167.705L295.117 168.023C295.943 168.201 296.557 168.483 296.958 168.869C297.363 169.256 297.568 169.761 297.572 170.386C297.568 170.936 297.407 171.42 297.089 171.841C296.774 172.258 296.337 172.583 295.776 172.818C295.216 173.053 294.572 173.17 293.844 173.17C292.776 173.17 291.916 172.947 291.265 172.5C290.613 172.049 290.225 171.422 290.1 170.619L292.106 170.426C292.197 170.82 292.39 171.117 292.685 171.318C292.981 171.519 293.365 171.619 293.839 171.619C294.327 171.619 294.719 171.519 295.015 171.318C295.314 171.117 295.464 170.869 295.464 170.574C295.464 170.324 295.367 170.117 295.174 169.955C294.985 169.792 294.689 169.667 294.288 169.58L292.799 169.267C291.962 169.093 291.343 168.799 290.941 168.386C290.54 167.97 290.341 167.443 290.344 166.807C290.341 166.269 290.487 165.803 290.782 165.409C291.081 165.011 291.496 164.705 292.026 164.489C292.56 164.269 293.176 164.159 293.873 164.159C294.896 164.159 295.701 164.377 296.288 164.812C296.879 165.248 297.244 165.837 297.384 166.58Z" fill="#6B7280"/>
<defs>
<linearGradient id="paint0_linear_1124_6195" x1="195" y1="422" x2="195" y2="844" gradientUnits="userSpaceOnUse">
<stop offset="0.592417" stop-color="white"/>
<stop offset="0.853081" stop-color="#F7FCFC"/>
<stop offset="1" stop-color="#E4F5F6"/>
</linearGradient>
<clipPath id="clip0_1124_6195">
<rect width="29.2281" height="29.2281" fill="white" transform="matrix(-0.70156 -0.712611 -0.70156 0.712611 231.22 117.549)"/>
</clipPath>
</defs>
</svg>
