<svg width="254" height="54" viewBox="0 0 254 54" fill="none" xmlns="http://www.w3.org/2000/svg">
<path d="M249.925 11.6375V37.1942C249.925 42.8228 248.499 47.0062 245.647 49.7444C242.794 52.4826 238.649 53.8517 233.211 53.8517C230.32 53.8517 227.582 53.4904 224.996 52.7679C222.448 52.0453 220.299 50.9994 218.55 49.6303L222.087 43.2411C223.38 44.306 224.958 45.1427 226.821 45.7512C228.685 46.3597 230.568 46.6639 232.469 46.6639C235.435 46.6639 237.603 45.9793 238.972 44.6102C240.341 43.2411 241.026 41.1494 241.026 38.3351V37.3083C239.885 38.4492 238.535 39.3239 236.976 39.9324C235.416 40.5409 233.743 40.8452 231.956 40.8452C227.924 40.8452 224.73 39.7042 222.372 37.4224C220.014 35.1025 218.835 31.6417 218.835 27.04V11.6375H227.734V25.7279C227.734 30.7099 229.807 33.201 233.952 33.201C236.082 33.201 237.793 32.5164 239.086 31.1473C240.38 29.7402 241.026 27.6675 241.026 24.9293V11.6375H249.925Z" fill="#14967F"/>
<path d="M202.938 15.6877C204.003 14.2045 205.429 13.0826 207.217 12.322C209.042 11.5614 211.134 11.1811 213.492 11.1811V19.3958C212.503 19.3197 211.837 19.2817 211.495 19.2817C208.947 19.2817 206.951 20.0043 205.505 21.4494C204.06 22.8566 203.338 24.9863 203.338 27.8386V42.3284H194.438V11.6375H202.938V15.6877Z" fill="#14967F"/>
<path d="M186.199 11.6375V42.3284H177.699V38.7915C175.493 41.4537 172.299 42.7847 168.116 42.7847C165.225 42.7847 162.601 42.1382 160.243 40.8452C157.923 39.5521 156.098 37.7076 154.767 35.3117C153.436 32.9157 152.77 30.1395 152.77 26.9829C152.77 23.8264 153.436 21.0501 154.767 18.6542C156.098 16.2582 157.923 14.4137 160.243 13.1207C162.601 11.8276 165.225 11.1811 168.116 11.1811C172.033 11.1811 175.094 12.4171 177.3 14.8891V11.6375H186.199ZM169.656 35.4828C171.9 35.4828 173.763 34.7222 175.246 33.201C176.729 31.6417 177.471 29.569 177.471 26.9829C177.471 24.3968 176.729 22.3432 175.246 20.8219C173.763 19.2627 171.9 18.483 169.656 18.483C167.374 18.483 165.491 19.2627 164.008 20.8219C162.525 22.3432 161.783 24.3968 161.783 26.9829C161.783 29.569 162.525 31.6417 164.008 33.201C165.491 34.7222 167.374 35.4828 169.656 35.4828Z" fill="#14967F"/>
<path d="M127.416 0V42.3284H118.916V38.7915C116.71 41.4537 113.515 42.7847 109.332 42.7847C106.442 42.7847 103.817 42.1382 101.46 40.8452C99.1397 39.5521 97.3142 37.7076 95.9831 35.3117C94.652 32.9157 93.9865 30.1395 93.9865 26.9829C93.9865 23.8263 94.652 21.0501 95.9831 18.6541C97.3142 16.2582 99.1397 14.4137 101.46 13.1207C103.817 11.8276 106.442 11.1811 109.332 11.1811C113.249 11.1811 116.311 12.4171 118.516 14.8891V0H127.416ZM110.872 35.4828C113.116 35.4828 114.98 34.7222 116.463 33.201C117.946 31.6417 118.688 29.569 118.688 26.9829C118.688 24.3968 117.946 22.3431 116.463 20.8219C114.98 19.2626 113.116 18.483 110.872 18.483C108.59 18.483 106.708 19.2626 105.225 20.8219C103.741 22.3431 103 24.3968 103 26.9829C103 29.569 103.741 31.6417 105.225 33.201C106.708 34.7222 108.59 35.4828 110.872 35.4828Z" fill="#095D7E"/>
<path d="M75.6256 35.654C77.2229 35.654 78.63 35.4258 79.847 34.9694C81.102 34.475 82.262 33.7144 83.3268 32.6876L88.0617 37.8217C85.1713 41.1304 80.9499 42.7847 75.3974 42.7847C71.9366 42.7847 68.8751 42.1192 66.213 40.7881C63.5508 39.419 61.4971 37.5365 60.052 35.1405C58.6068 32.7446 57.8842 30.0254 57.8842 26.9829C57.8842 23.9785 58.5878 21.2783 59.9949 18.8823C61.4401 16.4484 63.3987 14.5658 65.8707 13.2348C68.3807 11.8656 71.195 11.1811 74.3135 11.1811C77.2419 11.1811 79.9041 11.8086 82.3 13.0636C84.696 14.2806 86.5975 16.0681 88.0046 18.426C89.4498 20.7459 90.1724 23.5031 90.1724 26.6977L67.468 31.0903C68.1145 32.6115 69.1223 33.7524 70.4914 34.513C71.8986 35.2736 73.61 35.654 75.6256 35.654ZM74.3135 17.9126C72.0697 17.9126 70.2442 18.6351 68.8371 20.0803C67.4299 21.5255 66.6883 23.5221 66.6123 26.0702L81.5584 23.1608C81.1401 21.5635 80.2844 20.2895 78.9913 19.3387C77.6983 18.3879 76.139 17.9126 74.3135 17.9126Z" fill="#095D7E"/>
<path d="M39.3049 11.1811C43.146 11.1811 46.1885 12.322 48.4323 14.6039C50.7142 16.8477 51.8551 20.2324 51.8551 24.7581V42.3284H42.9559V26.1272C42.9559 23.6932 42.4425 21.8868 41.4156 20.7078C40.4268 19.4908 39.0007 18.8823 37.1371 18.8823C35.0455 18.8823 33.3911 19.5669 32.1741 20.936C30.9571 22.2671 30.3486 24.2637 30.3486 26.9259V42.3284H21.4494V26.1272C21.4494 21.2973 19.5098 18.8823 15.6307 18.8823C13.577 18.8823 11.9417 19.5669 10.7247 20.936C9.50772 22.2671 8.89923 24.2637 8.89923 26.9259V42.3284H0V11.6375H8.4999V15.1743C9.64083 13.8813 11.029 12.8925 12.6643 12.2079C14.3376 11.5234 16.1631 11.1811 18.1407 11.1811C20.3085 11.1811 22.2671 11.6184 24.0165 12.4932C25.7659 13.3298 27.1731 14.5658 28.2379 16.2012C29.4929 14.6039 31.0712 13.3679 32.9728 12.4932C34.9123 11.6184 37.0231 11.1811 39.3049 11.1811Z" fill="#095D7E"/>
<g clip-path="url(#clip0_3812_6010)">
<path d="M142.729 8.05495C143.428 8.05495 143.995 7.48825 143.995 6.78919L143.995 3.49819C143.995 2.79909 143.428 2.23239 142.729 2.23243C142.03 2.23243 141.463 2.79913 141.463 3.49819L141.463 6.78919C141.463 7.48821 142.03 8.05491 142.729 8.05495Z" fill="#2885AA"/>
<path d="M139.24 5.71267L146.151 5.71267C146.85 5.71267 147.425 6.30019 147.425 6.99925L147.425 36.5077C147.425 36.7918 147.326 37.0676 147.15 37.2908L143.692 41.6788C143.452 41.9836 143.085 42.1615 142.697 42.1615C142.309 42.1615 141.942 41.9836 141.702 41.6788L138.246 37.2907C138.07 37.0675 137.974 36.7917 137.974 36.5077L137.974 6.99925C137.974 6.30015 138.541 5.71259 139.24 5.71267Z" fill="#14967F"/>
<path d="M147.454 36.5078C147.454 36.7918 147.34 37.0676 147.164 37.2909L143.7 41.6788C143.46 41.9836 143.088 42.1615 142.7 42.1616C142.312 42.1616 141.944 41.9837 141.704 41.6789L138.261 37.2908C138.086 37.0676 138.003 36.7918 138.003 36.5078L147.454 36.5078Z" fill="#2885AA"/>
<path d="M142.729 2.23227C142.736 2.23227 142.744 2.23327 142.751 2.23339V8.05367C142.744 8.05379 142.737 8.05475 142.729 8.05483C142.03 8.05483 141.463 7.48813 141.463 6.78907L141.463 3.49807C141.463 2.79901 142.03 2.23227 142.729 2.23227Z" fill="#095D7E"/>
<path d="M139.24 5.71267L142.751 5.71267L142.751 42.1585C142.733 42.1593 142.715 42.1616 142.697 42.1616C142.309 42.1616 141.942 41.9837 141.702 41.679L138.246 37.2908C138.07 37.0676 137.974 36.7918 137.974 36.5078L137.974 6.99925C137.974 6.30016 138.541 5.71259 139.24 5.71267Z" fill="#107261"/>
<path d="M142.751 36.5077L142.751 42.1586C142.734 42.1593 142.718 42.1615 142.701 42.1615C142.313 42.1615 141.944 41.9836 141.704 41.6788L138.262 37.2908C138.086 37.0676 138.003 36.7918 138.003 36.5077L142.751 36.5077Z" fill="#095D7E"/>
<path d="M135.472 24.6547C136.171 24.6547 136.738 24.088 136.737 23.3889L136.737 15.2277L147.876 15.2277C148.575 15.2277 149.142 14.661 149.142 13.962C149.142 13.2629 148.575 12.6962 147.876 12.6962L135.472 12.6962C134.772 12.6962 134.206 13.2629 134.206 13.962L134.206 23.3889C134.206 24.088 134.773 24.6547 135.472 24.6547Z" fill="#095D7E"/>
</g>
<defs>
<clipPath id="clip0_3812_6010">
<rect width="28.9988" height="28.9988" fill="white" transform="matrix(-0.707107 -0.707107 -0.707107 0.707107 163.22 22.1992)"/>
</clipPath>
</defs>
</svg>
