<svg width="1126" height="337" viewBox="0 0 1126 337" fill="none" xmlns="http://www.w3.org/2000/svg">
<path d="M263.61 253.115C263.61 304.623 210.976 337 126.939 337H0L56.1718 72.8359H179.131C236.629 72.8359 275.109 98.958 275.109 138.325C275.109 166.655 253.879 190.201 218.937 200.503C246.802 208.965 263.61 228.465 263.61 253.115ZM161.881 127.288H122.517L112.344 173.277H151.708C180.458 173.277 196.38 164.447 196.38 147.891C196.38 134.278 184.881 127.288 161.881 127.288ZM143.747 227.729H100.844L88.9019 282.548H131.805C164.093 282.548 183.554 271.143 183.554 252.379C183.554 236.559 169.4 227.729 143.747 227.729Z" fill="white"/>
<path d="M518.947 278.869L506.562 337H289.394L345.566 72.8359H560.081L548.138 130.967H414.122L405.276 172.173H526.466L514.081 230.304H392.892L382.277 278.869H518.947Z" fill="white"/>
<path d="M705.424 337H624.483L667.386 133.91H573.177L586.003 72.8359H854.92L842.536 133.91H748.327L705.424 337Z" fill="white"/>
<path d="M910.88 337H829.939L858.025 204.918L886.111 72.8359H1012.17C1080.72 72.8359 1125.39 103.005 1125.39 148.995C1125.39 192.409 1095.76 223.314 1038.26 239.502L1098.86 337H1009.51L956.436 248.332H929.456L910.88 337ZM955.109 129.127L941.398 192.041H982.974C1022.78 192.041 1044.01 179.9 1044.01 157.089C1044.01 138.325 1028.53 129.127 996.685 129.127H955.109Z" fill="white"/>
<circle cx="483.406" cy="24.8611" r="24.8611" fill="black"/>
<circle cx="483.406" cy="24.8611" r="24.8611" fill="white"/>
<circle cx="417.113" cy="24.8611" r="24.8611" fill="black"/>
<circle cx="417.113" cy="24.8611" r="24.8611" fill="white"/>
</svg>
