<svg width="1765" height="584" viewBox="0 0 1765 584" fill="none" xmlns="http://www.w3.org/2000/svg">
<path d="M291.981 0C322.619 3.35201e-05 352.155 4.72003 379.901 13.4707H379.879V570.498C352.139 579.244 322.611 583.962 291.981 583.962C130.725 583.962 0.000247462 453.238 0 291.981C0 130.725 130.725 0 291.981 0Z" fill="white"/>
<path d="M596.703 388.48C575.956 388.48 557.935 384.509 542.638 376.567C527.517 368.448 515.737 357.152 507.298 342.679C499.034 328.207 494.902 311.263 494.902 291.848C494.902 272.433 499.034 255.578 507.298 241.282C515.737 226.809 527.517 215.601 542.638 207.659C557.935 199.54 575.956 195.48 596.703 195.48C609.362 195.48 620.967 197.157 631.516 200.511C642.241 203.688 651.12 208.277 658.153 214.277L641.538 259.02C633.626 253.725 626.505 250.106 620.176 248.165C613.846 246.047 606.725 244.988 598.813 244.988C584.572 244.988 573.583 249.047 565.847 257.166C558.286 265.109 554.506 276.669 554.506 291.848C554.506 307.203 558.286 318.94 565.847 327.059C573.583 335.002 584.572 338.973 598.813 338.973C606.725 338.973 613.846 338.002 620.176 336.061C626.505 333.943 633.626 330.236 641.538 324.941L658.153 369.684C651.12 375.684 642.241 380.362 631.516 383.715C620.967 386.892 609.362 388.48 596.703 388.48Z" fill="white"/>
<path d="M667.596 385.304L755.947 198.657H802.1L890.978 385.304H834.011L811.858 334.737L833.22 350.622H725.353L746.452 334.737L724.299 385.304H667.596ZM778.891 256.902L751.727 322.294L743.815 307.468H814.759L807.638 322.294L780.21 256.902H778.891Z" fill="white"/>
<path d="M911.891 385.304V198.657H1007.89C1029.87 198.657 1046.39 204.129 1057.47 215.072C1068.55 225.838 1074.09 240.399 1074.09 258.755C1074.09 276.934 1068.55 291.495 1057.47 302.438C1046.39 313.381 1029.87 318.852 1007.89 318.852H968.857V385.304H911.891ZM968.857 275.434H1000.24C1006.92 275.434 1011.85 274.022 1015.01 271.198C1018.18 268.197 1019.76 264.05 1019.76 258.755C1019.76 253.46 1018.18 249.4 1015.01 246.576C1011.85 243.576 1006.92 242.076 1000.24 242.076H968.857V275.434Z" fill="white"/>
<path d="M1147.32 385.304V244.723H1093.52V198.657H1258.09V244.723H1204.29V385.304H1147.32Z" fill="white"/>
<path d="M1245.79 385.304L1334.14 198.657H1380.29L1469.17 385.304H1412.2L1390.05 334.737L1411.41 350.622H1303.55L1324.65 334.737L1302.49 385.304H1245.79ZM1357.08 256.902L1329.92 322.294L1322.01 307.468H1392.95L1385.83 322.294L1358.4 256.902H1357.08Z" fill="white"/>
<path d="M1490.08 385.304V198.657H1547.05V385.304H1490.08Z" fill="white"/>
<path d="M1592.16 385.304V198.657H1633.83L1720.07 303.232H1711.89V198.657H1764.9V385.304H1723.23L1637.26 280.729H1645.43V385.304H1592.16Z" fill="white"/>
</svg>
