<svg width="2213" height="472" viewBox="0 0 2213 472" fill="none" xmlns="http://www.w3.org/2000/svg">
<path d="M2177.48 102V326C2177.48 375.333 2165.06 412 2140.2 436C2115.35 460 2079.24 472 2031.85 472C2006.67 472 1982.82 468.833 1960.28 462.5C1938.08 456.167 1919.36 447 1904.12 435L1934.94 379C1946.2 388.333 1959.95 395.667 1976.19 401C1992.42 406.333 2008.83 409 2025.39 409C2051.24 409 2070.13 403 2082.05 391C2093.98 379 2099.95 360.667 2099.95 336V327C2090.01 337 2078.24 344.667 2064.66 350C2051.07 355.333 2036.49 358 2020.92 358C1985.8 358 1957.96 348 1937.42 328C1916.88 307.667 1906.61 277.333 1906.61 237V102H1984.14V225.5C1984.14 269.167 2002.2 291 2038.32 291C2056.87 291 2071.78 285 2083.05 273C2094.31 260.667 2099.95 242.5 2099.95 218.5V102H2177.48Z" fill="white"/>
<path d="M1768.11 137.5C1777.38 124.5 1789.81 114.667 1805.38 108C1821.29 101.333 1839.51 98 1860.05 98V170C1851.44 169.333 1845.64 169 1842.66 169C1820.46 169 1803.06 175.333 1790.47 188C1777.88 200.333 1771.59 219 1771.59 244V371H1694.05V102H1768.11V137.5Z" fill="white"/>
<path d="M1622.27 102V371H1548.21V340C1528.99 363.333 1501.16 375 1464.71 375C1439.53 375 1416.67 369.333 1396.12 358C1375.91 346.667 1360.01 330.5 1348.41 309.5C1336.81 288.5 1331.01 264.167 1331.01 236.5C1331.01 208.833 1336.81 184.5 1348.41 163.5C1360.01 142.5 1375.91 126.333 1396.12 115C1416.67 103.667 1439.53 98 1464.71 98C1498.84 98 1525.51 108.833 1544.73 130.5V102H1622.27ZM1478.13 311C1497.68 311 1513.92 304.333 1526.84 291C1539.76 277.333 1546.22 259.167 1546.22 236.5C1546.22 213.833 1539.76 195.833 1526.84 182.5C1513.92 168.833 1497.68 162 1478.13 162C1458.25 162 1441.85 168.833 1428.93 182.5C1416 195.833 1409.54 213.833 1409.54 236.5C1409.54 259.167 1416 277.333 1428.93 291C1441.85 304.333 1458.25 311 1478.13 311Z" fill="white"/>
<path d="M1110.11 0V371H1036.06V340C1016.84 363.333 989.007 375 952.559 375C927.377 375 904.514 369.333 883.971 358C863.759 346.667 847.854 330.5 836.257 309.5C824.66 288.5 818.861 264.167 818.861 236.5C818.861 208.833 824.66 184.5 836.257 163.5C847.854 142.5 863.759 126.333 883.971 115C904.514 103.667 927.377 98 952.559 98C986.688 98 1013.36 108.833 1032.58 130.5V0H1110.11ZM965.979 311C985.528 311 1001.76 304.333 1014.69 291C1027.61 277.333 1034.07 259.167 1034.07 236.5C1034.07 213.833 1027.61 195.833 1014.69 182.5C1001.76 168.833 985.528 162 965.979 162C946.098 162 929.696 168.833 916.774 182.5C903.851 195.833 897.39 213.833 897.39 236.5C897.39 259.167 903.851 277.333 916.774 291C929.696 304.333 946.098 311 965.979 311Z" fill="white"/>
<path d="M658.891 312.5C672.807 312.5 685.067 310.5 695.67 306.5C706.605 302.167 716.711 295.5 725.988 286.5L767.241 331.5C742.059 360.5 705.279 375 656.903 375C626.75 375 600.077 369.167 576.883 357.5C553.689 345.5 535.796 329 523.205 308C510.614 287 504.318 263.167 504.318 236.5C504.318 210.167 510.448 186.5 522.708 165.5C535.299 144.167 552.363 127.667 573.901 116C595.77 104 620.289 98 647.46 98C672.973 98 696.167 103.5 717.042 114.5C737.917 125.167 754.484 140.833 766.744 161.5C779.335 181.833 785.631 206 785.631 234L587.817 272.5C593.45 285.833 602.231 295.833 614.159 302.5C626.419 309.167 641.33 312.5 658.891 312.5ZM647.46 157C627.91 157 612.006 163.333 599.746 176C587.486 188.667 581.025 206.167 580.362 228.5L710.581 203C706.936 189 699.481 177.833 688.215 169.5C676.949 161.167 663.364 157 647.46 157Z" fill="white"/>
<path d="M342.445 98C375.911 98 402.419 108 421.968 128C441.849 147.667 451.789 177.333 451.789 217V371H374.255V229C374.255 207.667 369.781 191.833 360.835 181.5C352.22 170.833 339.795 165.5 323.559 165.5C305.335 165.5 290.921 171.5 280.318 183.5C269.715 195.167 264.414 212.667 264.414 236V371H186.879V229C186.879 186.667 169.98 165.5 136.183 165.5C118.29 165.5 104.042 171.5 93.4394 183.5C82.8363 195.167 77.5348 212.667 77.5348 236V371H0V102H74.0557V133C83.9961 121.667 96.0902 113 110.338 107C124.917 101 140.822 98 158.052 98C176.938 98 194.003 101.833 209.245 109.5C224.486 116.833 236.746 127.667 246.024 142C256.958 128 270.709 117.167 287.276 109.5C304.175 101.833 322.565 98 342.445 98Z" fill="white"/>
<g clip-path="url(#clip0_1417_1979)">
<path d="M1243.53 70.5987C1249.62 70.5987 1254.56 65.6317 1254.56 59.5046L1254.56 30.6595C1254.56 24.532 1249.62 19.565 1243.53 19.5654C1237.44 19.5654 1232.5 24.5324 1232.5 30.6595L1232.5 59.5045C1232.5 65.6313 1237.44 70.5983 1243.53 70.5987Z" fill="white"/>
<path d="M1213.14 50.0703L1273.35 50.0703C1279.44 50.0703 1284.45 55.2198 1284.45 61.3469L1284.45 319.983C1284.45 322.473 1283.58 324.89 1282.05 326.846L1251.93 365.307C1249.84 367.978 1246.63 369.538 1243.25 369.537C1239.87 369.537 1236.67 367.978 1234.58 365.307L1204.47 326.846C1202.94 324.889 1202.11 322.472 1202.11 319.982L1202.11 61.3469C1202.11 55.2195 1207.05 50.0696 1213.14 50.0703Z" fill="white"/>
<path d="M1284.7 319.983C1284.7 322.473 1283.71 324.891 1282.17 326.847L1251.99 365.307C1249.9 367.978 1246.66 369.538 1243.28 369.538C1239.9 369.538 1236.69 367.979 1234.6 365.307L1204.61 326.847C1203.08 324.89 1202.36 322.473 1202.36 319.984L1284.7 319.983Z" fill="white"/>
<path d="M1243.53 19.5654C1243.6 19.5654 1243.66 19.5742 1243.73 19.5752L1243.73 70.5888C1243.66 70.5899 1243.6 70.5983 1243.53 70.599C1237.44 70.599 1232.5 65.632 1232.5 59.5049L1232.5 30.6599C1232.5 24.5327 1237.44 19.5654 1243.53 19.5654Z" fill="white"/>
<path d="M1213.14 50.0702L1243.73 50.0702L1243.73 369.511C1243.57 369.518 1243.41 369.538 1243.25 369.538C1239.87 369.538 1236.67 367.979 1234.58 365.308L1204.47 326.847C1202.94 324.89 1202.11 322.473 1202.11 319.983L1202.11 61.3468C1202.11 55.2194 1207.05 50.0695 1213.14 50.0702Z" fill="white"/>
<path d="M1243.72 319.981L1243.72 369.511C1243.58 369.517 1243.43 369.536 1243.28 369.536C1239.9 369.536 1236.69 367.977 1234.6 365.306L1204.61 326.845C1203.08 324.889 1202.36 322.472 1202.36 319.982L1243.72 319.981Z" fill="white"/>
<path d="M1180.3 216.093C1186.39 216.093 1191.33 211.126 1191.33 204.998L1191.33 133.467L1288.38 133.467C1294.47 133.467 1299.41 128.5 1299.41 122.373C1299.41 116.246 1294.47 111.279 1288.38 111.279L1180.3 111.279C1174.21 111.279 1169.27 116.246 1169.27 122.373L1169.27 204.998C1169.27 211.126 1174.21 216.093 1180.3 216.093Z" fill="white"/>
</g>
<defs>
<clipPath id="clip0_1417_1979">
<rect width="253.412" height="253.412" fill="white" transform="matrix(-0.704989 -0.709218 -0.704989 0.709218 1422.06 194.57)"/>
</clipPath>
</defs>
</svg>
