<svg width="2782" height="520" viewBox="0 0 2782 520" fill="none" xmlns="http://www.w3.org/2000/svg">
<g clip-path="url(#clip0_1417_1943)">
<path d="M157.041 356.266L61.519 258.537L61.0966 258.406L60.7007 258.864V355.939L60.2256 356.409H35.3618L35.0451 356.292L34.8867 355.939V54.6657L35.3618 54.1953H60.2388L60.7139 54.6657V253.167L61.2286 253.638L61.519 253.507L148.727 169.967L149.057 169.837H184.426L184.743 170.66L91.015 254.879L91.0018 255.571L194.522 355.599L194.192 356.409H157.384L157.041 356.266Z" fill="white"/>
<path d="M663.501 204.419L658.116 210.926L655.292 216.152L651.253 224.03L648.099 233.45L646.054 243.602L645.209 253.924L645.117 355.846L644.536 356.421L620.121 356.408L619.303 355.611V55.0301L619.54 54.4422L620.134 54.207H644.325L645.077 54.9648L645.09 199.859L645.394 200.669L646.7 201.074L647.624 200.081L648.614 197.39L648.957 196.867L654.236 189.028L655.239 187.878L655.688 187.486L660.769 182.509L666.404 178.602L667.156 178.027L672.739 174.513L676.936 172.566L687.771 168.28L690.41 167.692L705.745 165.328L717.808 165.367L729.791 167.026L741.048 170.214L750.326 174.656L759.327 181.398L766.413 189.12L772.405 198.553L776.892 209.031L780.178 221.104L781.643 232.431L782 246.777L781.96 355.415L780.944 356.408H756.806L755.948 355.572L755.882 244.673L754.971 234.339L752.596 222.083L750.075 214.244L746.406 207.097L741.352 200.395L737.234 196.502L732.417 193.209L726.914 190.518L720.724 188.44L710.232 186.507L699.899 186.454L688.562 188.623L677.424 193.131L670.72 197.638L664.49 202.825L664.095 203.348L663.501 204.419Z" fill="white"/>
<path d="M264.62 117.757L264.211 121.873L262.996 125.845L261.017 129.49L258.364 132.691L255.131 135.317L251.449 137.277L247.437 138.479L243.28 138.884L239.122 138.479L235.11 137.277L231.428 135.317L228.195 132.691L225.542 129.49L223.563 125.845L222.349 121.873L221.939 117.757L222.349 113.642L223.563 109.67L225.542 106.025L228.195 102.824L231.428 100.198L235.11 98.2379L239.122 97.0359L243.28 96.6309L247.437 97.0359L251.449 98.2379L255.131 100.198L258.364 102.824L261.017 106.025L262.996 109.67L264.211 113.642L264.62 117.757Z" fill="white"/>
<path d="M1399.4 321.015L1405.51 319.108L1406.47 319.591L1406.48 319.722L1407.83 355.312L1407.1 356.305L1397.69 358.656L1387.62 360.263L1377.84 360.969L1368.03 360.76L1359.41 359.715L1351.17 357.755L1344.01 355.037L1337.53 351.379L1330.41 345.434L1323.27 335.923L1318.34 324.321L1315.42 310.145L1314.5 293.317L1314.46 207.726L1313.74 207.02H1282.11L1281.49 206.393V169.98L1282.22 169.248H1313.74L1314.47 168.543V115.994L1315.22 115.236H1360.7L1361.36 115.89V168.569L1361.39 168.739L1362.06 169.261H1408.11L1408.44 169.379L1408.65 169.797V206.236L1407.87 207.007H1361.93L1361.37 207.569L1361.4 292.663L1362.01 302.149L1363.82 309.949L1366.9 315.881L1371.11 319.63L1376.12 321.669L1382.56 322.727L1389.76 322.661L1397.52 321.59L1398.25 321.342L1399.4 321.015Z" fill="white"/>
<path d="M405.632 332.76L406.384 352.802L405.645 353.9L397.37 356.382L388.383 358.094L379.554 358.891L370.672 358.76L362.912 357.767L355.548 355.833L349.226 353.129L343.565 349.47L336.768 342.676L331.502 333.831L328.335 323.366L327.239 308.341V191.837L326.382 190.988H288.479L287.727 190.243V170.658L288.466 169.94H326.448L327.2 169.182V117.705L328.018 116.895H352.143L352.974 117.731V169.326L353.159 169.77L353.608 169.953H405.658L406.252 170.188L406.489 170.776V190.1L406.344 190.57L405.605 190.975H353.792L353.001 191.759L352.974 304.748L353.568 312.221L355.35 320.1L358.134 326.475L362.16 331.257L365.762 333.753L369.933 335.504L379.752 336.902L392.949 336.144L404.629 332.133L404.761 332.094L405.632 332.76Z" fill="white"/>
<path d="M2692.29 149.415L2691.78 154.563L2690.26 159.514L2687.79 164.087L2684.48 168.085L2680.44 171.365L2675.82 173.808L2670.82 175.31L2665.62 175.82L2660.42 175.31L2655.42 173.808L2650.8 171.365L2646.76 168.085L2643.45 164.087L2640.98 159.514L2639.46 154.563L2638.95 149.415L2639.46 144.267L2640.98 139.315L2643.45 134.742L2646.76 130.744L2650.8 127.465L2655.42 125.022L2660.42 123.519L2665.62 123.01L2670.82 123.519L2675.82 125.022L2680.44 127.465L2684.48 130.744L2687.79 134.742L2690.26 139.315L2691.78 144.267L2692.29 149.415Z" fill="white"/>
<path d="M2687.21 149.402L2686.8 153.57L2685.56 157.581L2683.57 161.279L2680.89 164.519L2677.61 167.171L2673.88 169.144L2669.83 170.372L2665.62 170.777L2661.41 170.372L2657.36 169.144L2653.62 167.171L2650.35 164.519L2647.67 161.279L2645.68 157.581L2644.44 153.57L2644.03 149.402L2644.44 145.234L2645.68 141.223L2647.67 137.526L2650.35 134.286L2653.62 131.633L2657.36 129.661L2661.41 128.432L2665.62 128.027L2669.83 128.432L2673.88 129.661L2677.61 131.633L2680.89 134.286L2683.57 137.526L2685.56 141.223L2686.8 145.234L2687.21 149.402Z" fill="#F7921E"/>
<path d="M2672.61 149.938L2675.38 152.604L2675.7 153.845L2677.52 163.605L2677.54 163.67L2676.91 164.363H2671.95L2671 163.553L2669.6 154.524L2668.34 152.277L2665.91 151.376H2661.84L2660.26 152.695L2660.23 152.97V163.383L2659.93 164.088L2659.22 164.389H2656.14L2655.05 163.304V134.325L2655.77 133.594L2666.9 133.607L2671.73 134.378L2675.17 136.599L2676.56 139.12L2677.05 142.57L2676.97 143.458L2675.62 146.372L2672.55 149.011L2672.43 149.115L2672.61 149.938Z" fill="white"/>
<path d="M2660.43 139.471L2661.3 138.609L2666.83 138.596L2669.56 139.628L2670.7 142.11V142.45L2669.58 144.945L2666.83 145.991L2661.3 146.004L2661.26 145.991L2660.43 145.141V139.471Z" fill="#F7921E"/>
<path d="M1697.79 198.593L1698.25 198.854L1698.37 198.737L1703.07 191.172L1708.38 184.574L1714.55 178.668L1721.31 173.782L1732.08 168.464L1743.84 165.237L1756.85 164.035L1770.62 164.976L1782.24 167.641L1792.77 172.24L1799.74 176.8L1806.14 182.366L1808.73 185.11L1816.71 196.346L1822.43 209.503L1825.89 224.789L1826.99 241.774L1827.06 356.122L1826.24 356.945L1780.05 356.971L1779.52 356.448L1779.47 253.389L1778.9 240.65L1777.08 229.95L1774.02 221.366L1769.67 214.559L1764.8 209.816L1759.31 206.341L1754.65 204.538L1749.62 203.479L1738.44 203.623L1729.24 205.857L1721.34 209.738L1716.59 213.291L1712.45 217.446L1708.72 222.476L1705.66 228.029L1701.46 240.781L1700.08 254.604L1700.15 356.161L1699.32 356.984L1653.19 357.023L1652.6 356.461L1652.47 170.163L1652.67 169.653L1653.26 169.379L1696.89 169.353L1697.77 170.202L1697.79 198.593Z" fill="white"/>
<path d="M494.57 168.163L495.059 168.241L495.428 168.202L513.997 165.445L530.863 165.68L540.18 167.078L549.313 169.273L557.772 172.135L565.889 175.767L573.16 179.948L579.944 184.86L585.883 190.243L591.241 196.319L591.148 197.024L591.135 197.037L572.197 210.482L571.168 210.325L565.097 203.4L559.198 198.37L552.744 194.176L545.829 190.857L538.557 188.414L531.008 186.859L523.274 186.232L515.448 186.52L507.622 187.761L505.722 188.166L493.963 191.406L480.383 198.723L474.484 203.204L469.165 208.234L463.781 214.715L459.188 221.914L455.374 229.844L452.339 238.494L451.415 241.891L449.066 257.164L449.435 273.091L452.51 288.638L458.225 302.657L466.394 314.873L471.356 320.204L476.886 324.986L485.358 330.565L494.795 334.929L504.745 337.868L515.501 339.502L525.162 339.776L534.281 338.94L542.873 336.98L550.923 333.91L557.099 330.578L562.919 326.502L573.504 316.115L574.599 315.984L592.415 329.154L592.574 330.369L592.561 330.382L580.657 342.075L567.235 350.999L553.879 356.656L539.309 360.066L525.65 361.308L513.099 361.033L500.509 359.413L488.486 356.565L477.374 352.58L467.146 347.458L457.829 341.187L451.059 335.399L444.856 328.879L439.221 321.654L434.153 313.698L429.758 304.97L426.287 295.667L423.753 285.79L422.13 275.338L421.51 259.738L422.922 244.491L426.234 230.798L431.329 218.922L431.817 217.746L432.728 215.094L437.69 206.889L443.259 199.402L449.409 192.647L456.153 186.598L464.296 180.758L473.164 175.793L482.218 171.952L493.488 168.215L494.57 168.163Z" fill="white"/>
<path d="M1085.51 181.268L1097.04 173.886L1109.3 168.647L1112.62 167.64L1123.3 165.929L1132.23 165.197L1142.14 165.576L1152.09 167.066L1161.34 169.483L1166.39 171.403L1172.64 174.63L1178.34 178.576L1183.75 183.45L1188.54 188.95L1192.78 195.169L1196.31 201.872L1199.14 208.966L1201.21 216.335L1203.37 228.59L1204.18 244.164L1204.17 356.069L1203.82 356.408H1178.83H1178.8L1178.02 355.559L1177.84 353.73L1177.74 352.815L1178.15 336.758L1178.19 250.527L1177 232.523L1173.48 217.419L1170.93 211.239L1167.66 205.517L1163.91 200.683L1159.4 196.41L1152.22 191.811L1143.48 188.532L1135.42 186.86L1127.66 186.219L1120.18 186.611L1113 188.035L1108.14 189.656L1100.61 192.765L1093.68 196.985L1087.83 202.015L1082.86 207.686L1080.78 210.612L1073.46 223.717L1073.27 224.488L1070.71 232.967L1068.18 244.922L1067.39 259.451L1067.4 355.611L1066.6 356.408H1041.4L1041.16 356.33L1040.97 355.977V170.959L1041.11 170.515L1041.75 170.188H1065.46L1065.84 170.567V200.683L1066.08 201.493L1067.48 202.185L1068.75 201.297L1072.47 194.542L1076.92 189.094L1084.23 181.96L1084.72 181.686L1085.51 181.268Z" fill="white"/>
<path d="M2349.77 167.876V356.199L2349 356.957H2293.53L2292.73 356.186V331.689L2292.18 331.362L2292.05 331.493L2284.82 341.331L2277.06 348.517L2268.83 353.691L2260.14 357.584L2251.08 360.158L2241.56 361.478L2224.15 361.308L2216.12 360.171L2208.39 358.264L2201.55 355.755L2195.11 352.515L2189.45 348.7L2184.29 344.153L2179.12 338.025L2174.76 330.84L2169.84 318.388L2166.96 304.421L2165.43 289.436L2164.91 276.671L2164.88 167.667L2165.01 167.327L2165.41 167.144H2223.51L2224.2 167.823L2224.24 262.939L2225.01 278.513L2227.57 290.703L2231.91 299.626L2234.75 302.997L2238.22 305.754L2242.64 307.923L2247.75 309.308L2253.2 309.922L2265.09 308.838L2270.34 307.244L2274.88 304.84L2280.1 300.332L2284.12 294.688L2287.21 287.541L2289.08 279.61L2290.21 261.306L2290.28 167.667L2290.87 167.092H2348.98L2349.77 167.876Z" fill="white"/>
<path d="M1566.5 327.797L1566.04 327.536L1565.92 327.653L1561.21 335.218L1555.89 341.816L1549.72 347.722L1542.96 352.608L1532.18 357.926L1520.4 361.14L1507.38 362.329L1493.61 361.388L1481.99 358.71L1471.44 354.098L1464.47 349.538L1458.09 343.959L1455.5 341.215L1447.5 329.966L1441.81 316.809L1438.36 301.496L1437.26 284.499L1437.27 170.099L1438.09 169.275H1484.31L1484.84 169.798L1484.81 272.91L1485.37 285.661L1487.19 296.362L1490.24 304.959L1494.6 311.779L1499.46 316.522L1504.96 319.997L1509.62 321.813L1514.65 322.871L1525.83 322.741L1535.04 320.507L1542.96 316.626L1547.7 313.072L1551.84 308.918L1555.59 303.887L1558.65 298.335L1562.86 285.583L1564.26 271.76L1564.25 170.138L1565.08 169.315H1611.24L1611.82 169.876V356.266L1611.59 356.815L1611.03 357.05H1567.37L1566.5 356.201V327.797Z" fill="white"/>
<path d="M255.468 355.966L255.033 356.397H230.195L229.76 355.966V170.334L230.195 169.902H255.033L255.468 170.334V355.966Z" fill="white"/>
<path d="M926.603 166.452L930.76 167.145L941.054 169.327L942.215 169.706L951.097 173.285L959.213 177.571L966.841 182.745L973.65 188.598L980.487 196.071L986.28 204.29L991.217 213.501L995.083 223.326L997.934 233.844L999.729 244.818L1000.49 256.512L1000.19 268.479L998.99 269.59H843.103L842.377 270.309V270.321L843.775 283.061L847.221 295.028L852.578 306.029L859.758 315.881L864.984 321.225L870.83 326.032L877.284 330.239L884.292 333.819L892.078 336.707L900.3 338.653L908.799 339.646L917.404 339.686L925.956 338.758L934.31 336.851L941.938 334.106L949.104 330.462L959.094 323.511L967.752 315.371L973.783 307.924L974.416 307.832H974.43L992.483 322.126L992.497 322.139L992.589 323.341L984.024 332.683L974.416 341.188L963.938 348.204L955.623 352.464L946.82 355.899L937.529 358.513L927.777 360.329L917.113 361.309L906.582 361.243L896.262 360.146L886.219 358.042L876.545 354.959L867.294 350.883L858.53 345.865L850.348 339.895L838.286 328.031L833.02 321.185L828.309 313.738L823.967 305.102L819.73 294.623L816.933 281.911L815.547 269.028L815.6 256.264L817.091 243.773L820.008 231.7L824.297 220.229L829.958 209.424L836.755 199.729L844.818 190.924L856.802 181.256L870.777 173.416L883.909 168.687L898.136 165.982L913.102 165.211L926.603 166.452ZM897.099 187.618L884.693 191.354L873.172 197.47L865.57 203.271L858.972 209.907L854.194 216.192L850.13 223.064L846.791 230.551L844.164 238.638L842.792 248.149L843.161 249.104L844.099 249.521H973.524L974.172 248.842L973.248 239.266L971.03 229.715L967.679 220.83L963.165 212.508L957.926 205.465L951.723 199.338L944.979 194.582L937.391 191.002L936.651 190.74L923.361 187.331L909.939 186.285L897.099 187.618Z" fill="white"/>
<path d="M1963.74 164.259L1977.61 166.231L1986.97 168.662L1995.7 171.98L2003.79 176.122L2011.25 181.073L2021.24 189.984L2029.66 200.488L2036.46 212.443L2041.58 225.718L2045.09 240.508L2046.62 254.697L2046.69 277.392L2046.04 278.019H1903.39L1902.7 278.828L1904.79 288.575L1908.58 297.264L1912.56 303.248L1917.36 308.539L1923.2 313.334L1929.7 317.267L1936.78 320.337L1944.31 322.479L1952.18 323.669L1960.28 323.878L1967.98 323.198L1975.21 321.722L1981.98 319.448L1988.3 316.392L1998.05 309.271L2006.46 299.824L2006.76 299.772L2037.51 324.113L2037.71 325.668L2026.8 337.779L2014.3 347.474L2007.09 351.589L1999.47 355.038L1982.9 359.938L1971.55 361.741L1960.03 362.538L1948.87 362.329L1937.77 361.127L1927.01 358.932L1916.53 355.731L1906.81 351.642L1897.54 346.56L1885.99 338.105L1876.23 328.189L1870.58 320.56L1865.76 312.236L1861.79 303.234L1858.65 293.54L1856.1 281.337L1854.94 268.781L1855.19 256.095L1856.85 243.461L1859.85 231.401L1864.22 219.825L1869.78 209.242L1876.62 199.47L1884.89 190.468L1894.1 182.759L1903.48 176.788L1913.68 171.915L1924.7 168.152L1936.54 165.486L1949.95 164.023L1963.74 164.259ZM1946.43 199.847L1934.72 202.734L1933.46 203.322L1927.66 206.079L1926.75 206.497L1920.19 211.148L1914.48 216.557L1909.95 222.228L1906.17 228.551L1905.88 229.661L1905.49 231.726L1903.68 237.632L1902.83 243.302L1903.5 244.047H1998.51L1999.17 243.394L1998.19 232.614L1994.98 222.842L1989.12 213.552L1983.22 207.999L1975.27 203.387L1966.25 200.369L1957.11 199.128L1946.43 199.847Z" fill="white"/>
<path d="M2505.93 162.518L2515.02 163.484L2524.26 165.313L2534.19 168.331L2543.51 172.355L2552.17 177.32L2560.11 183.174L2570.17 193.012L2578.54 204.379L2585.08 217.117L2589.65 231.058L2592.37 246.161L2593.23 261.539L2592.24 276.513L2589.4 291.211L2584.89 304.864L2578.62 317.799L2570.88 329.336L2561.45 339.788L2551.1 348.215L2539.8 354.604L2530.51 358.118L2520.65 360.444L2510.24 361.581L2499.27 361.516L2486.17 360.065L2474.38 357.27L2464.3 353.245L2455.91 348.045L2450.18 342.988L2445.09 337.018L2444.91 336.874L2444.19 337.318V445.238L2443.45 445.97H2385.65L2384.95 445.564L2384.84 445.173V167.822L2384.96 167.43L2385.61 167.064H2438.71L2439.41 167.77V191.405L2439.48 191.653L2440.37 191.68L2445.36 185.199L2450.83 180.051L2457.66 174.407L2459.14 173.793L2460.57 173.283L2474.74 166.633L2488.1 163.21L2496.94 162.426L2505.93 162.518ZM2482.23 214.632L2473.91 215.486L2465.92 217.932L2458.56 221.873L2452.12 227.16L2446.85 233.588L2442.95 240.911L2440.56 248.848L2439.79 257.093L2439.84 267.492L2440.7 275.729L2443.17 283.64L2447.15 290.922L2452.49 297.296L2458.99 302.516L2466.38 306.38L2474.4 308.742L2482.73 309.511L2491.12 309.468L2499.44 308.612L2507.43 306.167L2514.79 302.226L2521.23 296.939L2526.5 290.511L2530.4 283.188L2532.79 275.252L2533.57 267.007L2533.51 256.606L2532.65 248.37L2530.18 240.459L2526.2 233.177L2520.86 226.804L2514.36 221.584L2506.97 217.719L2498.95 215.356L2490.62 214.588L2482.23 214.632Z" fill="white"/>
<path d="M2125.75 254.463L2125.58 258.459L2124.61 262.351L2122.85 265.99L2120.39 269.235L2117.32 271.963L2113.75 274.067L2109.83 275.467L2105.69 276.11L2101.51 275.971L2097.44 275.055L2093.64 273.397L2090.25 271.061L2087.41 268.136L2085.22 264.736L2083.78 260.991L2083.12 257.044L2083.29 253.048L2084.26 249.155L2086.01 245.517L2088.47 242.271L2091.55 239.544L2095.12 237.44L2099.04 236.039L2103.18 235.396L2107.36 235.536L2111.43 236.452L2115.23 238.11L2118.62 240.446L2121.46 243.371L2123.64 246.771L2125.09 250.516L2125.75 254.463Z" fill="white"/>
</g>
<defs>
<clipPath id="clip0_1417_1943">
<rect width="2782" height="520" fill="white"/>
</clipPath>
</defs>
</svg>
